G04 #@! TF.GenerationSoftware,KiCad,Pcbnew,(5.1.12)-1*
G04 #@! TF.CreationDate,2022-03-08T00:28:27-06:00*
G04 #@! TF.ProjectId,pcb,7063622e-6b69-4636-9164-5f7063625858,rev?*
G04 #@! TF.SameCoordinates,Original*
G04 #@! TF.FileFunction,Soldermask,Top*
G04 #@! TF.FilePolarity,Negative*
%FSLAX46Y46*%
G04 Gerber Fmt 4.6, Leading zero omitted, Abs format (unit mm)*
G04 Created by KiCad (PCBNEW (5.1.12)-1) date 2022-03-08 00:28:27*
%MOMM*%
%LPD*%
G01*
G04 APERTURE LIST*
%ADD10C,4.877200*%
%ADD11O,1.002000X1.502000*%
%ADD12O,1.802000X1.802000*%
%ADD13O,1.152000X1.602000*%
%ADD14C,0.150000*%
G04 APERTURE END LIST*
D10*
X114427000Y-66040000D03*
X162052000Y-66040000D03*
X161925000Y-154940000D03*
X114300000Y-154940000D03*
G36*
G01*
X155499000Y-94409000D02*
X155499000Y-95933000D01*
G75*
G02*
X155448000Y-95984000I-51000J0D01*
G01*
X153924000Y-95984000D01*
G75*
G02*
X153873000Y-95933000I0J51000D01*
G01*
X153873000Y-94409000D01*
G75*
G02*
X153924000Y-94358000I51000J0D01*
G01*
X155448000Y-94358000D01*
G75*
G02*
X155499000Y-94409000I0J-51000D01*
G01*
G37*
G36*
G01*
X152959000Y-94409000D02*
X152959000Y-95933000D01*
G75*
G02*
X152908000Y-95984000I-51000J0D01*
G01*
X151384000Y-95984000D01*
G75*
G02*
X151333000Y-95933000I0J51000D01*
G01*
X151333000Y-94409000D01*
G75*
G02*
X151384000Y-94358000I51000J0D01*
G01*
X152908000Y-94358000D01*
G75*
G02*
X152959000Y-94409000I0J-51000D01*
G01*
G37*
G36*
G01*
X150419000Y-94409000D02*
X150419000Y-95933000D01*
G75*
G02*
X150368000Y-95984000I-51000J0D01*
G01*
X148844000Y-95984000D01*
G75*
G02*
X148793000Y-95933000I0J51000D01*
G01*
X148793000Y-94409000D01*
G75*
G02*
X148844000Y-94358000I51000J0D01*
G01*
X150368000Y-94358000D01*
G75*
G02*
X150419000Y-94409000I0J-51000D01*
G01*
G37*
G36*
G01*
X147879000Y-94409000D02*
X147879000Y-95933000D01*
G75*
G02*
X147828000Y-95984000I-51000J0D01*
G01*
X146304000Y-95984000D01*
G75*
G02*
X146253000Y-95933000I0J51000D01*
G01*
X146253000Y-94409000D01*
G75*
G02*
X146304000Y-94358000I51000J0D01*
G01*
X147828000Y-94358000D01*
G75*
G02*
X147879000Y-94409000I0J-51000D01*
G01*
G37*
G36*
G01*
X145339000Y-94409000D02*
X145339000Y-95933000D01*
G75*
G02*
X145288000Y-95984000I-51000J0D01*
G01*
X143764000Y-95984000D01*
G75*
G02*
X143713000Y-95933000I0J51000D01*
G01*
X143713000Y-94409000D01*
G75*
G02*
X143764000Y-94358000I51000J0D01*
G01*
X145288000Y-94358000D01*
G75*
G02*
X145339000Y-94409000I0J-51000D01*
G01*
G37*
G36*
G01*
X142799000Y-94409000D02*
X142799000Y-95933000D01*
G75*
G02*
X142748000Y-95984000I-51000J0D01*
G01*
X141224000Y-95984000D01*
G75*
G02*
X141173000Y-95933000I0J51000D01*
G01*
X141173000Y-94409000D01*
G75*
G02*
X141224000Y-94358000I51000J0D01*
G01*
X142748000Y-94358000D01*
G75*
G02*
X142799000Y-94409000I0J-51000D01*
G01*
G37*
D11*
X122528000Y-117904000D03*
X123778000Y-117904000D03*
X125028000Y-117904000D03*
X126278000Y-117904000D03*
X127528000Y-117904000D03*
G36*
G01*
X129279000Y-117403500D02*
X129279000Y-118404500D01*
G75*
G02*
X129028500Y-118655000I-250500J0D01*
G01*
X128527500Y-118655000D01*
G75*
G02*
X128277000Y-118404500I0J250500D01*
G01*
X128277000Y-117403500D01*
G75*
G02*
X128527500Y-117153000I250500J0D01*
G01*
X129028500Y-117153000D01*
G75*
G02*
X129279000Y-117403500I0J-250500D01*
G01*
G37*
G36*
G01*
X115074000Y-123205000D02*
X115074000Y-121935000D01*
G75*
G02*
X115125000Y-121884000I51000J0D01*
G01*
X116395000Y-121884000D01*
G75*
G02*
X116446000Y-121935000I0J-51000D01*
G01*
X116446000Y-123205000D01*
G75*
G02*
X116395000Y-123256000I-51000J0D01*
G01*
X115125000Y-123256000D01*
G75*
G02*
X115074000Y-123205000I0J51000D01*
G01*
G37*
G36*
G01*
X117614000Y-123205000D02*
X117614000Y-121935000D01*
G75*
G02*
X117665000Y-121884000I51000J0D01*
G01*
X118935000Y-121884000D01*
G75*
G02*
X118986000Y-121935000I0J-51000D01*
G01*
X118986000Y-123205000D01*
G75*
G02*
X118935000Y-123256000I-51000J0D01*
G01*
X117665000Y-123256000D01*
G75*
G02*
X117614000Y-123205000I0J51000D01*
G01*
G37*
G36*
G01*
X120154000Y-123205000D02*
X120154000Y-121935000D01*
G75*
G02*
X120205000Y-121884000I51000J0D01*
G01*
X121475000Y-121884000D01*
G75*
G02*
X121526000Y-121935000I0J-51000D01*
G01*
X121526000Y-123205000D01*
G75*
G02*
X121475000Y-123256000I-51000J0D01*
G01*
X120205000Y-123256000D01*
G75*
G02*
X120154000Y-123205000I0J51000D01*
G01*
G37*
G36*
G01*
X122694000Y-123205000D02*
X122694000Y-121935000D01*
G75*
G02*
X122745000Y-121884000I51000J0D01*
G01*
X124015000Y-121884000D01*
G75*
G02*
X124066000Y-121935000I0J-51000D01*
G01*
X124066000Y-123205000D01*
G75*
G02*
X124015000Y-123256000I-51000J0D01*
G01*
X122745000Y-123256000D01*
G75*
G02*
X122694000Y-123205000I0J51000D01*
G01*
G37*
G36*
G01*
X156736000Y-128288828D02*
X156736000Y-127331172D01*
G75*
G02*
X157008172Y-127059000I272172J0D01*
G01*
X157715828Y-127059000D01*
G75*
G02*
X157988000Y-127331172I0J-272172D01*
G01*
X157988000Y-128288828D01*
G75*
G02*
X157715828Y-128561000I-272172J0D01*
G01*
X157008172Y-128561000D01*
G75*
G02*
X156736000Y-128288828I0J272172D01*
G01*
G37*
G36*
G01*
X154686000Y-128288828D02*
X154686000Y-127331172D01*
G75*
G02*
X154958172Y-127059000I272172J0D01*
G01*
X155665828Y-127059000D01*
G75*
G02*
X155938000Y-127331172I0J-272172D01*
G01*
X155938000Y-128288828D01*
G75*
G02*
X155665828Y-128561000I-272172J0D01*
G01*
X154958172Y-128561000D01*
G75*
G02*
X154686000Y-128288828I0J272172D01*
G01*
G37*
G36*
G01*
X156239000Y-102888828D02*
X156239000Y-101931172D01*
G75*
G02*
X156511172Y-101659000I272172J0D01*
G01*
X157218828Y-101659000D01*
G75*
G02*
X157491000Y-101931172I0J-272172D01*
G01*
X157491000Y-102888828D01*
G75*
G02*
X157218828Y-103161000I-272172J0D01*
G01*
X156511172Y-103161000D01*
G75*
G02*
X156239000Y-102888828I0J272172D01*
G01*
G37*
G36*
G01*
X154189000Y-102888828D02*
X154189000Y-101931172D01*
G75*
G02*
X154461172Y-101659000I272172J0D01*
G01*
X155168828Y-101659000D01*
G75*
G02*
X155441000Y-101931172I0J-272172D01*
G01*
X155441000Y-102888828D01*
G75*
G02*
X155168828Y-103161000I-272172J0D01*
G01*
X154461172Y-103161000D01*
G75*
G02*
X154189000Y-102888828I0J272172D01*
G01*
G37*
G36*
G01*
X156239000Y-105428828D02*
X156239000Y-104471172D01*
G75*
G02*
X156511172Y-104199000I272172J0D01*
G01*
X157218828Y-104199000D01*
G75*
G02*
X157491000Y-104471172I0J-272172D01*
G01*
X157491000Y-105428828D01*
G75*
G02*
X157218828Y-105701000I-272172J0D01*
G01*
X156511172Y-105701000D01*
G75*
G02*
X156239000Y-105428828I0J272172D01*
G01*
G37*
G36*
G01*
X154189000Y-105428828D02*
X154189000Y-104471172D01*
G75*
G02*
X154461172Y-104199000I272172J0D01*
G01*
X155168828Y-104199000D01*
G75*
G02*
X155441000Y-104471172I0J-272172D01*
G01*
X155441000Y-105428828D01*
G75*
G02*
X155168828Y-105701000I-272172J0D01*
G01*
X154461172Y-105701000D01*
G75*
G02*
X154189000Y-105428828I0J272172D01*
G01*
G37*
G36*
G01*
X156239000Y-107968828D02*
X156239000Y-107011172D01*
G75*
G02*
X156511172Y-106739000I272172J0D01*
G01*
X157218828Y-106739000D01*
G75*
G02*
X157491000Y-107011172I0J-272172D01*
G01*
X157491000Y-107968828D01*
G75*
G02*
X157218828Y-108241000I-272172J0D01*
G01*
X156511172Y-108241000D01*
G75*
G02*
X156239000Y-107968828I0J272172D01*
G01*
G37*
G36*
G01*
X154189000Y-107968828D02*
X154189000Y-107011172D01*
G75*
G02*
X154461172Y-106739000I272172J0D01*
G01*
X155168828Y-106739000D01*
G75*
G02*
X155441000Y-107011172I0J-272172D01*
G01*
X155441000Y-107968828D01*
G75*
G02*
X155168828Y-108241000I-272172J0D01*
G01*
X154461172Y-108241000D01*
G75*
G02*
X154189000Y-107968828I0J272172D01*
G01*
G37*
G36*
G01*
X156239000Y-110508828D02*
X156239000Y-109551172D01*
G75*
G02*
X156511172Y-109279000I272172J0D01*
G01*
X157218828Y-109279000D01*
G75*
G02*
X157491000Y-109551172I0J-272172D01*
G01*
X157491000Y-110508828D01*
G75*
G02*
X157218828Y-110781000I-272172J0D01*
G01*
X156511172Y-110781000D01*
G75*
G02*
X156239000Y-110508828I0J272172D01*
G01*
G37*
G36*
G01*
X154189000Y-110508828D02*
X154189000Y-109551172D01*
G75*
G02*
X154461172Y-109279000I272172J0D01*
G01*
X155168828Y-109279000D01*
G75*
G02*
X155441000Y-109551172I0J-272172D01*
G01*
X155441000Y-110508828D01*
G75*
G02*
X155168828Y-110781000I-272172J0D01*
G01*
X154461172Y-110781000D01*
G75*
G02*
X154189000Y-110508828I0J272172D01*
G01*
G37*
G36*
G01*
X156239000Y-113048828D02*
X156239000Y-112091172D01*
G75*
G02*
X156511172Y-111819000I272172J0D01*
G01*
X157218828Y-111819000D01*
G75*
G02*
X157491000Y-112091172I0J-272172D01*
G01*
X157491000Y-113048828D01*
G75*
G02*
X157218828Y-113321000I-272172J0D01*
G01*
X156511172Y-113321000D01*
G75*
G02*
X156239000Y-113048828I0J272172D01*
G01*
G37*
G36*
G01*
X154189000Y-113048828D02*
X154189000Y-112091172D01*
G75*
G02*
X154461172Y-111819000I272172J0D01*
G01*
X155168828Y-111819000D01*
G75*
G02*
X155441000Y-112091172I0J-272172D01*
G01*
X155441000Y-113048828D01*
G75*
G02*
X155168828Y-113321000I-272172J0D01*
G01*
X154461172Y-113321000D01*
G75*
G02*
X154189000Y-113048828I0J272172D01*
G01*
G37*
G36*
G01*
X156239000Y-115446828D02*
X156239000Y-114489172D01*
G75*
G02*
X156511172Y-114217000I272172J0D01*
G01*
X157218828Y-114217000D01*
G75*
G02*
X157491000Y-114489172I0J-272172D01*
G01*
X157491000Y-115446828D01*
G75*
G02*
X157218828Y-115719000I-272172J0D01*
G01*
X156511172Y-115719000D01*
G75*
G02*
X156239000Y-115446828I0J272172D01*
G01*
G37*
G36*
G01*
X154189000Y-115446828D02*
X154189000Y-114489172D01*
G75*
G02*
X154461172Y-114217000I272172J0D01*
G01*
X155168828Y-114217000D01*
G75*
G02*
X155441000Y-114489172I0J-272172D01*
G01*
X155441000Y-115446828D01*
G75*
G02*
X155168828Y-115719000I-272172J0D01*
G01*
X154461172Y-115719000D01*
G75*
G02*
X154189000Y-115446828I0J272172D01*
G01*
G37*
G36*
G01*
X149047000Y-126667000D02*
X149047000Y-125143000D01*
G75*
G02*
X149098000Y-125092000I51000J0D01*
G01*
X150622000Y-125092000D01*
G75*
G02*
X150673000Y-125143000I0J-51000D01*
G01*
X150673000Y-126667000D01*
G75*
G02*
X150622000Y-126718000I-51000J0D01*
G01*
X149098000Y-126718000D01*
G75*
G02*
X149047000Y-126667000I0J51000D01*
G01*
G37*
G36*
G01*
X146507000Y-126667000D02*
X146507000Y-125143000D01*
G75*
G02*
X146558000Y-125092000I51000J0D01*
G01*
X148082000Y-125092000D01*
G75*
G02*
X148133000Y-125143000I0J-51000D01*
G01*
X148133000Y-126667000D01*
G75*
G02*
X148082000Y-126718000I-51000J0D01*
G01*
X146558000Y-126718000D01*
G75*
G02*
X146507000Y-126667000I0J51000D01*
G01*
G37*
G36*
G01*
X143967000Y-126667000D02*
X143967000Y-125143000D01*
G75*
G02*
X144018000Y-125092000I51000J0D01*
G01*
X145542000Y-125092000D01*
G75*
G02*
X145593000Y-125143000I0J-51000D01*
G01*
X145593000Y-126667000D01*
G75*
G02*
X145542000Y-126718000I-51000J0D01*
G01*
X144018000Y-126718000D01*
G75*
G02*
X143967000Y-126667000I0J51000D01*
G01*
G37*
G36*
G01*
X141427000Y-126667000D02*
X141427000Y-125143000D01*
G75*
G02*
X141478000Y-125092000I51000J0D01*
G01*
X143002000Y-125092000D01*
G75*
G02*
X143053000Y-125143000I0J-51000D01*
G01*
X143053000Y-126667000D01*
G75*
G02*
X143002000Y-126718000I-51000J0D01*
G01*
X141478000Y-126718000D01*
G75*
G02*
X141427000Y-126667000I0J51000D01*
G01*
G37*
G36*
G01*
X138887000Y-126667000D02*
X138887000Y-125143000D01*
G75*
G02*
X138938000Y-125092000I51000J0D01*
G01*
X140462000Y-125092000D01*
G75*
G02*
X140513000Y-125143000I0J-51000D01*
G01*
X140513000Y-126667000D01*
G75*
G02*
X140462000Y-126718000I-51000J0D01*
G01*
X138938000Y-126718000D01*
G75*
G02*
X138887000Y-126667000I0J51000D01*
G01*
G37*
G36*
G01*
X136347000Y-126667000D02*
X136347000Y-125143000D01*
G75*
G02*
X136398000Y-125092000I51000J0D01*
G01*
X137922000Y-125092000D01*
G75*
G02*
X137973000Y-125143000I0J-51000D01*
G01*
X137973000Y-126667000D01*
G75*
G02*
X137922000Y-126718000I-51000J0D01*
G01*
X136398000Y-126718000D01*
G75*
G02*
X136347000Y-126667000I0J51000D01*
G01*
G37*
G36*
G01*
X133807000Y-126667000D02*
X133807000Y-125143000D01*
G75*
G02*
X133858000Y-125092000I51000J0D01*
G01*
X135382000Y-125092000D01*
G75*
G02*
X135433000Y-125143000I0J-51000D01*
G01*
X135433000Y-126667000D01*
G75*
G02*
X135382000Y-126718000I-51000J0D01*
G01*
X133858000Y-126718000D01*
G75*
G02*
X133807000Y-126667000I0J51000D01*
G01*
G37*
G36*
G01*
X131267000Y-126667000D02*
X131267000Y-125143000D01*
G75*
G02*
X131318000Y-125092000I51000J0D01*
G01*
X132842000Y-125092000D01*
G75*
G02*
X132893000Y-125143000I0J-51000D01*
G01*
X132893000Y-126667000D01*
G75*
G02*
X132842000Y-126718000I-51000J0D01*
G01*
X131318000Y-126718000D01*
G75*
G02*
X131267000Y-126667000I0J51000D01*
G01*
G37*
G36*
G01*
X116879000Y-115860000D02*
X118579000Y-115860000D01*
G75*
G02*
X118630000Y-115911000I0J-51000D01*
G01*
X118630000Y-117611000D01*
G75*
G02*
X118579000Y-117662000I-51000J0D01*
G01*
X116879000Y-117662000D01*
G75*
G02*
X116828000Y-117611000I0J51000D01*
G01*
X116828000Y-115911000D01*
G75*
G02*
X116879000Y-115860000I51000J0D01*
G01*
G37*
D12*
X115189000Y-116761000D03*
X112649000Y-116761000D03*
G36*
G01*
X113931000Y-111720000D02*
X113931000Y-113420000D01*
G75*
G02*
X113880000Y-113471000I-51000J0D01*
G01*
X112180000Y-113471000D01*
G75*
G02*
X112129000Y-113420000I0J51000D01*
G01*
X112129000Y-111720000D01*
G75*
G02*
X112180000Y-111669000I51000J0D01*
G01*
X113880000Y-111669000D01*
G75*
G02*
X113931000Y-111720000I0J-51000D01*
G01*
G37*
X113030000Y-110030000D03*
X113030000Y-107490000D03*
G36*
G01*
X118503000Y-112101000D02*
X118503000Y-113801000D01*
G75*
G02*
X118452000Y-113852000I-51000J0D01*
G01*
X116752000Y-113852000D01*
G75*
G02*
X116701000Y-113801000I0J51000D01*
G01*
X116701000Y-112101000D01*
G75*
G02*
X116752000Y-112050000I51000J0D01*
G01*
X118452000Y-112050000D01*
G75*
G02*
X118503000Y-112101000I0J-51000D01*
G01*
G37*
X117602000Y-110411000D03*
X117602000Y-107871000D03*
G36*
G01*
X118503000Y-102830000D02*
X118503000Y-104530000D01*
G75*
G02*
X118452000Y-104581000I-51000J0D01*
G01*
X116752000Y-104581000D01*
G75*
G02*
X116701000Y-104530000I0J51000D01*
G01*
X116701000Y-102830000D01*
G75*
G02*
X116752000Y-102779000I51000J0D01*
G01*
X118452000Y-102779000D01*
G75*
G02*
X118503000Y-102830000I0J-51000D01*
G01*
G37*
X117602000Y-101140000D03*
X117602000Y-98600000D03*
G36*
G01*
X112510000Y-95513000D02*
X112510000Y-93813000D01*
G75*
G02*
X112561000Y-93762000I51000J0D01*
G01*
X114261000Y-93762000D01*
G75*
G02*
X114312000Y-93813000I0J-51000D01*
G01*
X114312000Y-95513000D01*
G75*
G02*
X114261000Y-95564000I-51000J0D01*
G01*
X112561000Y-95564000D01*
G75*
G02*
X112510000Y-95513000I0J51000D01*
G01*
G37*
X113411000Y-97203000D03*
X113411000Y-99743000D03*
X122301000Y-94917000D03*
X122301000Y-97457000D03*
G36*
G01*
X123202000Y-99147000D02*
X123202000Y-100847000D01*
G75*
G02*
X123151000Y-100898000I-51000J0D01*
G01*
X121451000Y-100898000D01*
G75*
G02*
X121400000Y-100847000I0J51000D01*
G01*
X121400000Y-99147000D01*
G75*
G02*
X121451000Y-99096000I51000J0D01*
G01*
X123151000Y-99096000D01*
G75*
G02*
X123202000Y-99147000I0J-51000D01*
G01*
G37*
G36*
G01*
X130251200Y-91754500D02*
X136753600Y-91754500D01*
G75*
G02*
X136804600Y-91805500I0J-51000D01*
G01*
X136804600Y-98536500D01*
G75*
G02*
X136753600Y-98587500I-51000J0D01*
G01*
X130251200Y-98587500D01*
G75*
G02*
X130200200Y-98536500I0J51000D01*
G01*
X130200200Y-91805500D01*
G75*
G02*
X130251200Y-91754500I51000J0D01*
G01*
G37*
G36*
G01*
X126238000Y-96961500D02*
X127457200Y-96961500D01*
G75*
G02*
X127508200Y-97012500I0J-51000D01*
G01*
X127508200Y-97901500D01*
G75*
G02*
X127457200Y-97952500I-51000J0D01*
G01*
X126238000Y-97952500D01*
G75*
G02*
X126187000Y-97901500I0J51000D01*
G01*
X126187000Y-97012500D01*
G75*
G02*
X126238000Y-96961500I51000J0D01*
G01*
G37*
G36*
G01*
X126238000Y-92389500D02*
X127457200Y-92389500D01*
G75*
G02*
X127508200Y-92440500I0J-51000D01*
G01*
X127508200Y-93329500D01*
G75*
G02*
X127457200Y-93380500I-51000J0D01*
G01*
X126238000Y-93380500D01*
G75*
G02*
X126187000Y-93329500I0J51000D01*
G01*
X126187000Y-92440500D01*
G75*
G02*
X126238000Y-92389500I51000J0D01*
G01*
G37*
G36*
G01*
X133807000Y-119374660D02*
X133807000Y-117850660D01*
G75*
G02*
X133858000Y-117799660I51000J0D01*
G01*
X135382000Y-117799660D01*
G75*
G02*
X135433000Y-117850660I0J-51000D01*
G01*
X135433000Y-119374660D01*
G75*
G02*
X135382000Y-119425660I-51000J0D01*
G01*
X133858000Y-119425660D01*
G75*
G02*
X133807000Y-119374660I0J51000D01*
G01*
G37*
G36*
G01*
X136347000Y-119374660D02*
X136347000Y-117850660D01*
G75*
G02*
X136398000Y-117799660I51000J0D01*
G01*
X137922000Y-117799660D01*
G75*
G02*
X137973000Y-117850660I0J-51000D01*
G01*
X137973000Y-119374660D01*
G75*
G02*
X137922000Y-119425660I-51000J0D01*
G01*
X136398000Y-119425660D01*
G75*
G02*
X136347000Y-119374660I0J51000D01*
G01*
G37*
G36*
G01*
X138887000Y-119374660D02*
X138887000Y-117850660D01*
G75*
G02*
X138938000Y-117799660I51000J0D01*
G01*
X140462000Y-117799660D01*
G75*
G02*
X140513000Y-117850660I0J-51000D01*
G01*
X140513000Y-119374660D01*
G75*
G02*
X140462000Y-119425660I-51000J0D01*
G01*
X138938000Y-119425660D01*
G75*
G02*
X138887000Y-119374660I0J51000D01*
G01*
G37*
G36*
G01*
X123248020Y-107090000D02*
X121883980Y-107090000D01*
G75*
G02*
X121735000Y-106941020I0J148980D01*
G01*
X121735000Y-106856980D01*
G75*
G02*
X121883980Y-106708000I148980J0D01*
G01*
X123248020Y-106708000D01*
G75*
G02*
X123397000Y-106856980I0J-148980D01*
G01*
X123397000Y-106941020D01*
G75*
G02*
X123248020Y-107090000I-148980J0D01*
G01*
G37*
G36*
G01*
X123248020Y-107590000D02*
X121883980Y-107590000D01*
G75*
G02*
X121735000Y-107441020I0J148980D01*
G01*
X121735000Y-107356980D01*
G75*
G02*
X121883980Y-107208000I148980J0D01*
G01*
X123248020Y-107208000D01*
G75*
G02*
X123397000Y-107356980I0J-148980D01*
G01*
X123397000Y-107441020D01*
G75*
G02*
X123248020Y-107590000I-148980J0D01*
G01*
G37*
G36*
G01*
X123248020Y-108090000D02*
X121883980Y-108090000D01*
G75*
G02*
X121735000Y-107941020I0J148980D01*
G01*
X121735000Y-107856980D01*
G75*
G02*
X121883980Y-107708000I148980J0D01*
G01*
X123248020Y-107708000D01*
G75*
G02*
X123397000Y-107856980I0J-148980D01*
G01*
X123397000Y-107941020D01*
G75*
G02*
X123248020Y-108090000I-148980J0D01*
G01*
G37*
G36*
G01*
X123248020Y-108590000D02*
X121883980Y-108590000D01*
G75*
G02*
X121735000Y-108441020I0J148980D01*
G01*
X121735000Y-108356980D01*
G75*
G02*
X121883980Y-108208000I148980J0D01*
G01*
X123248020Y-108208000D01*
G75*
G02*
X123397000Y-108356980I0J-148980D01*
G01*
X123397000Y-108441020D01*
G75*
G02*
X123248020Y-108590000I-148980J0D01*
G01*
G37*
G36*
G01*
X123248020Y-109090000D02*
X121883980Y-109090000D01*
G75*
G02*
X121735000Y-108941020I0J148980D01*
G01*
X121735000Y-108856980D01*
G75*
G02*
X121883980Y-108708000I148980J0D01*
G01*
X123248020Y-108708000D01*
G75*
G02*
X123397000Y-108856980I0J-148980D01*
G01*
X123397000Y-108941020D01*
G75*
G02*
X123248020Y-109090000I-148980J0D01*
G01*
G37*
G36*
G01*
X123248020Y-109590000D02*
X121883980Y-109590000D01*
G75*
G02*
X121735000Y-109441020I0J148980D01*
G01*
X121735000Y-109356980D01*
G75*
G02*
X121883980Y-109208000I148980J0D01*
G01*
X123248020Y-109208000D01*
G75*
G02*
X123397000Y-109356980I0J-148980D01*
G01*
X123397000Y-109441020D01*
G75*
G02*
X123248020Y-109590000I-148980J0D01*
G01*
G37*
G36*
G01*
X123248020Y-110090000D02*
X121883980Y-110090000D01*
G75*
G02*
X121735000Y-109941020I0J148980D01*
G01*
X121735000Y-109856980D01*
G75*
G02*
X121883980Y-109708000I148980J0D01*
G01*
X123248020Y-109708000D01*
G75*
G02*
X123397000Y-109856980I0J-148980D01*
G01*
X123397000Y-109941020D01*
G75*
G02*
X123248020Y-110090000I-148980J0D01*
G01*
G37*
G36*
G01*
X123248020Y-110590000D02*
X121883980Y-110590000D01*
G75*
G02*
X121735000Y-110441020I0J148980D01*
G01*
X121735000Y-110356980D01*
G75*
G02*
X121883980Y-110208000I148980J0D01*
G01*
X123248020Y-110208000D01*
G75*
G02*
X123397000Y-110356980I0J-148980D01*
G01*
X123397000Y-110441020D01*
G75*
G02*
X123248020Y-110590000I-148980J0D01*
G01*
G37*
G36*
G01*
X123248020Y-111090000D02*
X121883980Y-111090000D01*
G75*
G02*
X121735000Y-110941020I0J148980D01*
G01*
X121735000Y-110856980D01*
G75*
G02*
X121883980Y-110708000I148980J0D01*
G01*
X123248020Y-110708000D01*
G75*
G02*
X123397000Y-110856980I0J-148980D01*
G01*
X123397000Y-110941020D01*
G75*
G02*
X123248020Y-111090000I-148980J0D01*
G01*
G37*
G36*
G01*
X123248020Y-111590000D02*
X121883980Y-111590000D01*
G75*
G02*
X121735000Y-111441020I0J148980D01*
G01*
X121735000Y-111356980D01*
G75*
G02*
X121883980Y-111208000I148980J0D01*
G01*
X123248020Y-111208000D01*
G75*
G02*
X123397000Y-111356980I0J-148980D01*
G01*
X123397000Y-111441020D01*
G75*
G02*
X123248020Y-111590000I-148980J0D01*
G01*
G37*
G36*
G01*
X123248020Y-112090000D02*
X121883980Y-112090000D01*
G75*
G02*
X121735000Y-111941020I0J148980D01*
G01*
X121735000Y-111856980D01*
G75*
G02*
X121883980Y-111708000I148980J0D01*
G01*
X123248020Y-111708000D01*
G75*
G02*
X123397000Y-111856980I0J-148980D01*
G01*
X123397000Y-111941020D01*
G75*
G02*
X123248020Y-112090000I-148980J0D01*
G01*
G37*
G36*
G01*
X123248020Y-112590000D02*
X121883980Y-112590000D01*
G75*
G02*
X121735000Y-112441020I0J148980D01*
G01*
X121735000Y-112356980D01*
G75*
G02*
X121883980Y-112208000I148980J0D01*
G01*
X123248020Y-112208000D01*
G75*
G02*
X123397000Y-112356980I0J-148980D01*
G01*
X123397000Y-112441020D01*
G75*
G02*
X123248020Y-112590000I-148980J0D01*
G01*
G37*
G36*
G01*
X123805000Y-114511020D02*
X123805000Y-113146980D01*
G75*
G02*
X123953980Y-112998000I148980J0D01*
G01*
X124038020Y-112998000D01*
G75*
G02*
X124187000Y-113146980I0J-148980D01*
G01*
X124187000Y-114511020D01*
G75*
G02*
X124038020Y-114660000I-148980J0D01*
G01*
X123953980Y-114660000D01*
G75*
G02*
X123805000Y-114511020I0J148980D01*
G01*
G37*
G36*
G01*
X124305000Y-114511020D02*
X124305000Y-113146980D01*
G75*
G02*
X124453980Y-112998000I148980J0D01*
G01*
X124538020Y-112998000D01*
G75*
G02*
X124687000Y-113146980I0J-148980D01*
G01*
X124687000Y-114511020D01*
G75*
G02*
X124538020Y-114660000I-148980J0D01*
G01*
X124453980Y-114660000D01*
G75*
G02*
X124305000Y-114511020I0J148980D01*
G01*
G37*
G36*
G01*
X124805000Y-114511020D02*
X124805000Y-113146980D01*
G75*
G02*
X124953980Y-112998000I148980J0D01*
G01*
X125038020Y-112998000D01*
G75*
G02*
X125187000Y-113146980I0J-148980D01*
G01*
X125187000Y-114511020D01*
G75*
G02*
X125038020Y-114660000I-148980J0D01*
G01*
X124953980Y-114660000D01*
G75*
G02*
X124805000Y-114511020I0J148980D01*
G01*
G37*
G36*
G01*
X125305000Y-114511020D02*
X125305000Y-113146980D01*
G75*
G02*
X125453980Y-112998000I148980J0D01*
G01*
X125538020Y-112998000D01*
G75*
G02*
X125687000Y-113146980I0J-148980D01*
G01*
X125687000Y-114511020D01*
G75*
G02*
X125538020Y-114660000I-148980J0D01*
G01*
X125453980Y-114660000D01*
G75*
G02*
X125305000Y-114511020I0J148980D01*
G01*
G37*
G36*
G01*
X125805000Y-114511020D02*
X125805000Y-113146980D01*
G75*
G02*
X125953980Y-112998000I148980J0D01*
G01*
X126038020Y-112998000D01*
G75*
G02*
X126187000Y-113146980I0J-148980D01*
G01*
X126187000Y-114511020D01*
G75*
G02*
X126038020Y-114660000I-148980J0D01*
G01*
X125953980Y-114660000D01*
G75*
G02*
X125805000Y-114511020I0J148980D01*
G01*
G37*
G36*
G01*
X126305000Y-114511020D02*
X126305000Y-113146980D01*
G75*
G02*
X126453980Y-112998000I148980J0D01*
G01*
X126538020Y-112998000D01*
G75*
G02*
X126687000Y-113146980I0J-148980D01*
G01*
X126687000Y-114511020D01*
G75*
G02*
X126538020Y-114660000I-148980J0D01*
G01*
X126453980Y-114660000D01*
G75*
G02*
X126305000Y-114511020I0J148980D01*
G01*
G37*
G36*
G01*
X126805000Y-114511020D02*
X126805000Y-113146980D01*
G75*
G02*
X126953980Y-112998000I148980J0D01*
G01*
X127038020Y-112998000D01*
G75*
G02*
X127187000Y-113146980I0J-148980D01*
G01*
X127187000Y-114511020D01*
G75*
G02*
X127038020Y-114660000I-148980J0D01*
G01*
X126953980Y-114660000D01*
G75*
G02*
X126805000Y-114511020I0J148980D01*
G01*
G37*
G36*
G01*
X127305000Y-114511020D02*
X127305000Y-113146980D01*
G75*
G02*
X127453980Y-112998000I148980J0D01*
G01*
X127538020Y-112998000D01*
G75*
G02*
X127687000Y-113146980I0J-148980D01*
G01*
X127687000Y-114511020D01*
G75*
G02*
X127538020Y-114660000I-148980J0D01*
G01*
X127453980Y-114660000D01*
G75*
G02*
X127305000Y-114511020I0J148980D01*
G01*
G37*
G36*
G01*
X127805000Y-114511020D02*
X127805000Y-113146980D01*
G75*
G02*
X127953980Y-112998000I148980J0D01*
G01*
X128038020Y-112998000D01*
G75*
G02*
X128187000Y-113146980I0J-148980D01*
G01*
X128187000Y-114511020D01*
G75*
G02*
X128038020Y-114660000I-148980J0D01*
G01*
X127953980Y-114660000D01*
G75*
G02*
X127805000Y-114511020I0J148980D01*
G01*
G37*
G36*
G01*
X128305000Y-114511020D02*
X128305000Y-113146980D01*
G75*
G02*
X128453980Y-112998000I148980J0D01*
G01*
X128538020Y-112998000D01*
G75*
G02*
X128687000Y-113146980I0J-148980D01*
G01*
X128687000Y-114511020D01*
G75*
G02*
X128538020Y-114660000I-148980J0D01*
G01*
X128453980Y-114660000D01*
G75*
G02*
X128305000Y-114511020I0J148980D01*
G01*
G37*
G36*
G01*
X128805000Y-114511020D02*
X128805000Y-113146980D01*
G75*
G02*
X128953980Y-112998000I148980J0D01*
G01*
X129038020Y-112998000D01*
G75*
G02*
X129187000Y-113146980I0J-148980D01*
G01*
X129187000Y-114511020D01*
G75*
G02*
X129038020Y-114660000I-148980J0D01*
G01*
X128953980Y-114660000D01*
G75*
G02*
X128805000Y-114511020I0J148980D01*
G01*
G37*
G36*
G01*
X129305000Y-114511020D02*
X129305000Y-113146980D01*
G75*
G02*
X129453980Y-112998000I148980J0D01*
G01*
X129538020Y-112998000D01*
G75*
G02*
X129687000Y-113146980I0J-148980D01*
G01*
X129687000Y-114511020D01*
G75*
G02*
X129538020Y-114660000I-148980J0D01*
G01*
X129453980Y-114660000D01*
G75*
G02*
X129305000Y-114511020I0J148980D01*
G01*
G37*
G36*
G01*
X131608020Y-112590000D02*
X130243980Y-112590000D01*
G75*
G02*
X130095000Y-112441020I0J148980D01*
G01*
X130095000Y-112356980D01*
G75*
G02*
X130243980Y-112208000I148980J0D01*
G01*
X131608020Y-112208000D01*
G75*
G02*
X131757000Y-112356980I0J-148980D01*
G01*
X131757000Y-112441020D01*
G75*
G02*
X131608020Y-112590000I-148980J0D01*
G01*
G37*
G36*
G01*
X131608020Y-112090000D02*
X130243980Y-112090000D01*
G75*
G02*
X130095000Y-111941020I0J148980D01*
G01*
X130095000Y-111856980D01*
G75*
G02*
X130243980Y-111708000I148980J0D01*
G01*
X131608020Y-111708000D01*
G75*
G02*
X131757000Y-111856980I0J-148980D01*
G01*
X131757000Y-111941020D01*
G75*
G02*
X131608020Y-112090000I-148980J0D01*
G01*
G37*
G36*
G01*
X131608020Y-111590000D02*
X130243980Y-111590000D01*
G75*
G02*
X130095000Y-111441020I0J148980D01*
G01*
X130095000Y-111356980D01*
G75*
G02*
X130243980Y-111208000I148980J0D01*
G01*
X131608020Y-111208000D01*
G75*
G02*
X131757000Y-111356980I0J-148980D01*
G01*
X131757000Y-111441020D01*
G75*
G02*
X131608020Y-111590000I-148980J0D01*
G01*
G37*
G36*
G01*
X131608020Y-111090000D02*
X130243980Y-111090000D01*
G75*
G02*
X130095000Y-110941020I0J148980D01*
G01*
X130095000Y-110856980D01*
G75*
G02*
X130243980Y-110708000I148980J0D01*
G01*
X131608020Y-110708000D01*
G75*
G02*
X131757000Y-110856980I0J-148980D01*
G01*
X131757000Y-110941020D01*
G75*
G02*
X131608020Y-111090000I-148980J0D01*
G01*
G37*
G36*
G01*
X131608020Y-110590000D02*
X130243980Y-110590000D01*
G75*
G02*
X130095000Y-110441020I0J148980D01*
G01*
X130095000Y-110356980D01*
G75*
G02*
X130243980Y-110208000I148980J0D01*
G01*
X131608020Y-110208000D01*
G75*
G02*
X131757000Y-110356980I0J-148980D01*
G01*
X131757000Y-110441020D01*
G75*
G02*
X131608020Y-110590000I-148980J0D01*
G01*
G37*
G36*
G01*
X131608020Y-110090000D02*
X130243980Y-110090000D01*
G75*
G02*
X130095000Y-109941020I0J148980D01*
G01*
X130095000Y-109856980D01*
G75*
G02*
X130243980Y-109708000I148980J0D01*
G01*
X131608020Y-109708000D01*
G75*
G02*
X131757000Y-109856980I0J-148980D01*
G01*
X131757000Y-109941020D01*
G75*
G02*
X131608020Y-110090000I-148980J0D01*
G01*
G37*
G36*
G01*
X131608020Y-109590000D02*
X130243980Y-109590000D01*
G75*
G02*
X130095000Y-109441020I0J148980D01*
G01*
X130095000Y-109356980D01*
G75*
G02*
X130243980Y-109208000I148980J0D01*
G01*
X131608020Y-109208000D01*
G75*
G02*
X131757000Y-109356980I0J-148980D01*
G01*
X131757000Y-109441020D01*
G75*
G02*
X131608020Y-109590000I-148980J0D01*
G01*
G37*
G36*
G01*
X131608020Y-109090000D02*
X130243980Y-109090000D01*
G75*
G02*
X130095000Y-108941020I0J148980D01*
G01*
X130095000Y-108856980D01*
G75*
G02*
X130243980Y-108708000I148980J0D01*
G01*
X131608020Y-108708000D01*
G75*
G02*
X131757000Y-108856980I0J-148980D01*
G01*
X131757000Y-108941020D01*
G75*
G02*
X131608020Y-109090000I-148980J0D01*
G01*
G37*
G36*
G01*
X131608020Y-108590000D02*
X130243980Y-108590000D01*
G75*
G02*
X130095000Y-108441020I0J148980D01*
G01*
X130095000Y-108356980D01*
G75*
G02*
X130243980Y-108208000I148980J0D01*
G01*
X131608020Y-108208000D01*
G75*
G02*
X131757000Y-108356980I0J-148980D01*
G01*
X131757000Y-108441020D01*
G75*
G02*
X131608020Y-108590000I-148980J0D01*
G01*
G37*
G36*
G01*
X131608020Y-108090000D02*
X130243980Y-108090000D01*
G75*
G02*
X130095000Y-107941020I0J148980D01*
G01*
X130095000Y-107856980D01*
G75*
G02*
X130243980Y-107708000I148980J0D01*
G01*
X131608020Y-107708000D01*
G75*
G02*
X131757000Y-107856980I0J-148980D01*
G01*
X131757000Y-107941020D01*
G75*
G02*
X131608020Y-108090000I-148980J0D01*
G01*
G37*
G36*
G01*
X131608020Y-107590000D02*
X130243980Y-107590000D01*
G75*
G02*
X130095000Y-107441020I0J148980D01*
G01*
X130095000Y-107356980D01*
G75*
G02*
X130243980Y-107208000I148980J0D01*
G01*
X131608020Y-107208000D01*
G75*
G02*
X131757000Y-107356980I0J-148980D01*
G01*
X131757000Y-107441020D01*
G75*
G02*
X131608020Y-107590000I-148980J0D01*
G01*
G37*
G36*
G01*
X131608020Y-107090000D02*
X130243980Y-107090000D01*
G75*
G02*
X130095000Y-106941020I0J148980D01*
G01*
X130095000Y-106856980D01*
G75*
G02*
X130243980Y-106708000I148980J0D01*
G01*
X131608020Y-106708000D01*
G75*
G02*
X131757000Y-106856980I0J-148980D01*
G01*
X131757000Y-106941020D01*
G75*
G02*
X131608020Y-107090000I-148980J0D01*
G01*
G37*
G36*
G01*
X129305000Y-106151020D02*
X129305000Y-104786980D01*
G75*
G02*
X129453980Y-104638000I148980J0D01*
G01*
X129538020Y-104638000D01*
G75*
G02*
X129687000Y-104786980I0J-148980D01*
G01*
X129687000Y-106151020D01*
G75*
G02*
X129538020Y-106300000I-148980J0D01*
G01*
X129453980Y-106300000D01*
G75*
G02*
X129305000Y-106151020I0J148980D01*
G01*
G37*
G36*
G01*
X128805000Y-106151020D02*
X128805000Y-104786980D01*
G75*
G02*
X128953980Y-104638000I148980J0D01*
G01*
X129038020Y-104638000D01*
G75*
G02*
X129187000Y-104786980I0J-148980D01*
G01*
X129187000Y-106151020D01*
G75*
G02*
X129038020Y-106300000I-148980J0D01*
G01*
X128953980Y-106300000D01*
G75*
G02*
X128805000Y-106151020I0J148980D01*
G01*
G37*
G36*
G01*
X128305000Y-106151020D02*
X128305000Y-104786980D01*
G75*
G02*
X128453980Y-104638000I148980J0D01*
G01*
X128538020Y-104638000D01*
G75*
G02*
X128687000Y-104786980I0J-148980D01*
G01*
X128687000Y-106151020D01*
G75*
G02*
X128538020Y-106300000I-148980J0D01*
G01*
X128453980Y-106300000D01*
G75*
G02*
X128305000Y-106151020I0J148980D01*
G01*
G37*
G36*
G01*
X127805000Y-106151020D02*
X127805000Y-104786980D01*
G75*
G02*
X127953980Y-104638000I148980J0D01*
G01*
X128038020Y-104638000D01*
G75*
G02*
X128187000Y-104786980I0J-148980D01*
G01*
X128187000Y-106151020D01*
G75*
G02*
X128038020Y-106300000I-148980J0D01*
G01*
X127953980Y-106300000D01*
G75*
G02*
X127805000Y-106151020I0J148980D01*
G01*
G37*
G36*
G01*
X127305000Y-106151020D02*
X127305000Y-104786980D01*
G75*
G02*
X127453980Y-104638000I148980J0D01*
G01*
X127538020Y-104638000D01*
G75*
G02*
X127687000Y-104786980I0J-148980D01*
G01*
X127687000Y-106151020D01*
G75*
G02*
X127538020Y-106300000I-148980J0D01*
G01*
X127453980Y-106300000D01*
G75*
G02*
X127305000Y-106151020I0J148980D01*
G01*
G37*
G36*
G01*
X126805000Y-106151020D02*
X126805000Y-104786980D01*
G75*
G02*
X126953980Y-104638000I148980J0D01*
G01*
X127038020Y-104638000D01*
G75*
G02*
X127187000Y-104786980I0J-148980D01*
G01*
X127187000Y-106151020D01*
G75*
G02*
X127038020Y-106300000I-148980J0D01*
G01*
X126953980Y-106300000D01*
G75*
G02*
X126805000Y-106151020I0J148980D01*
G01*
G37*
G36*
G01*
X126305000Y-106151020D02*
X126305000Y-104786980D01*
G75*
G02*
X126453980Y-104638000I148980J0D01*
G01*
X126538020Y-104638000D01*
G75*
G02*
X126687000Y-104786980I0J-148980D01*
G01*
X126687000Y-106151020D01*
G75*
G02*
X126538020Y-106300000I-148980J0D01*
G01*
X126453980Y-106300000D01*
G75*
G02*
X126305000Y-106151020I0J148980D01*
G01*
G37*
G36*
G01*
X125805000Y-106151020D02*
X125805000Y-104786980D01*
G75*
G02*
X125953980Y-104638000I148980J0D01*
G01*
X126038020Y-104638000D01*
G75*
G02*
X126187000Y-104786980I0J-148980D01*
G01*
X126187000Y-106151020D01*
G75*
G02*
X126038020Y-106300000I-148980J0D01*
G01*
X125953980Y-106300000D01*
G75*
G02*
X125805000Y-106151020I0J148980D01*
G01*
G37*
G36*
G01*
X125305000Y-106151020D02*
X125305000Y-104786980D01*
G75*
G02*
X125453980Y-104638000I148980J0D01*
G01*
X125538020Y-104638000D01*
G75*
G02*
X125687000Y-104786980I0J-148980D01*
G01*
X125687000Y-106151020D01*
G75*
G02*
X125538020Y-106300000I-148980J0D01*
G01*
X125453980Y-106300000D01*
G75*
G02*
X125305000Y-106151020I0J148980D01*
G01*
G37*
G36*
G01*
X124805000Y-106151020D02*
X124805000Y-104786980D01*
G75*
G02*
X124953980Y-104638000I148980J0D01*
G01*
X125038020Y-104638000D01*
G75*
G02*
X125187000Y-104786980I0J-148980D01*
G01*
X125187000Y-106151020D01*
G75*
G02*
X125038020Y-106300000I-148980J0D01*
G01*
X124953980Y-106300000D01*
G75*
G02*
X124805000Y-106151020I0J148980D01*
G01*
G37*
G36*
G01*
X124305000Y-106151020D02*
X124305000Y-104786980D01*
G75*
G02*
X124453980Y-104638000I148980J0D01*
G01*
X124538020Y-104638000D01*
G75*
G02*
X124687000Y-104786980I0J-148980D01*
G01*
X124687000Y-106151020D01*
G75*
G02*
X124538020Y-106300000I-148980J0D01*
G01*
X124453980Y-106300000D01*
G75*
G02*
X124305000Y-106151020I0J148980D01*
G01*
G37*
G36*
G01*
X123805000Y-106151020D02*
X123805000Y-104786980D01*
G75*
G02*
X123953980Y-104638000I148980J0D01*
G01*
X124038020Y-104638000D01*
G75*
G02*
X124187000Y-104786980I0J-148980D01*
G01*
X124187000Y-106151020D01*
G75*
G02*
X124038020Y-106300000I-148980J0D01*
G01*
X123953980Y-106300000D01*
G75*
G02*
X123805000Y-106151020I0J148980D01*
G01*
G37*
G36*
G01*
X162031000Y-124741000D02*
X162031000Y-123441000D01*
G75*
G02*
X162082000Y-123390000I51000J0D01*
G01*
X163632000Y-123390000D01*
G75*
G02*
X163683000Y-123441000I0J-51000D01*
G01*
X163683000Y-124741000D01*
G75*
G02*
X163632000Y-124792000I-51000J0D01*
G01*
X162082000Y-124792000D01*
G75*
G02*
X162031000Y-124741000I0J51000D01*
G01*
G37*
G36*
G01*
X162031000Y-120241000D02*
X162031000Y-118941000D01*
G75*
G02*
X162082000Y-118890000I51000J0D01*
G01*
X163632000Y-118890000D01*
G75*
G02*
X163683000Y-118941000I0J-51000D01*
G01*
X163683000Y-120241000D01*
G75*
G02*
X163632000Y-120292000I-51000J0D01*
G01*
X162082000Y-120292000D01*
G75*
G02*
X162031000Y-120241000I0J51000D01*
G01*
G37*
G36*
G01*
X154071000Y-120241000D02*
X154071000Y-118941000D01*
G75*
G02*
X154122000Y-118890000I51000J0D01*
G01*
X155672000Y-118890000D01*
G75*
G02*
X155723000Y-118941000I0J-51000D01*
G01*
X155723000Y-120241000D01*
G75*
G02*
X155672000Y-120292000I-51000J0D01*
G01*
X154122000Y-120292000D01*
G75*
G02*
X154071000Y-120241000I0J51000D01*
G01*
G37*
G36*
G01*
X154071000Y-124741000D02*
X154071000Y-123441000D01*
G75*
G02*
X154122000Y-123390000I51000J0D01*
G01*
X155672000Y-123390000D01*
G75*
G02*
X155723000Y-123441000I0J-51000D01*
G01*
X155723000Y-124741000D01*
G75*
G02*
X155672000Y-124792000I-51000J0D01*
G01*
X154122000Y-124792000D01*
G75*
G02*
X154071000Y-124741000I0J51000D01*
G01*
G37*
G36*
G01*
X151706000Y-99628000D02*
X151706000Y-101128000D01*
G75*
G02*
X151655000Y-101179000I-51000J0D01*
G01*
X150605000Y-101179000D01*
G75*
G02*
X150554000Y-101128000I0J51000D01*
G01*
X150554000Y-99628000D01*
G75*
G02*
X150605000Y-99577000I51000J0D01*
G01*
X151655000Y-99577000D01*
G75*
G02*
X151706000Y-99628000I0J-51000D01*
G01*
G37*
D13*
X148590000Y-100378000D03*
X149860000Y-100378000D03*
G36*
G01*
X151717000Y-109773000D02*
X151717000Y-111273000D01*
G75*
G02*
X151666000Y-111324000I-51000J0D01*
G01*
X150616000Y-111324000D01*
G75*
G02*
X150565000Y-111273000I0J51000D01*
G01*
X150565000Y-109773000D01*
G75*
G02*
X150616000Y-109722000I51000J0D01*
G01*
X151666000Y-109722000D01*
G75*
G02*
X151717000Y-109773000I0J-51000D01*
G01*
G37*
X148601000Y-110523000D03*
X149871000Y-110523000D03*
G36*
G01*
X151717000Y-104693000D02*
X151717000Y-106193000D01*
G75*
G02*
X151666000Y-106244000I-51000J0D01*
G01*
X150616000Y-106244000D01*
G75*
G02*
X150565000Y-106193000I0J51000D01*
G01*
X150565000Y-104693000D01*
G75*
G02*
X150616000Y-104642000I51000J0D01*
G01*
X151666000Y-104642000D01*
G75*
G02*
X151717000Y-104693000I0J-51000D01*
G01*
G37*
X148601000Y-105443000D03*
X149871000Y-105443000D03*
G36*
G01*
X151717000Y-114853000D02*
X151717000Y-116353000D01*
G75*
G02*
X151666000Y-116404000I-51000J0D01*
G01*
X150616000Y-116404000D01*
G75*
G02*
X150565000Y-116353000I0J51000D01*
G01*
X150565000Y-114853000D01*
G75*
G02*
X150616000Y-114802000I51000J0D01*
G01*
X151666000Y-114802000D01*
G75*
G02*
X151717000Y-114853000I0J-51000D01*
G01*
G37*
X148601000Y-115603000D03*
X149871000Y-115603000D03*
D12*
X162560000Y-115237000D03*
X162560000Y-112697000D03*
G36*
G01*
X161659000Y-111007000D02*
X161659000Y-109307000D01*
G75*
G02*
X161710000Y-109256000I51000J0D01*
G01*
X163410000Y-109256000D01*
G75*
G02*
X163461000Y-109307000I0J-51000D01*
G01*
X163461000Y-111007000D01*
G75*
G02*
X163410000Y-111058000I-51000J0D01*
G01*
X161710000Y-111058000D01*
G75*
G02*
X161659000Y-111007000I0J51000D01*
G01*
G37*
X162560000Y-106093000D03*
X162560000Y-103553000D03*
G36*
G01*
X161659000Y-101863000D02*
X161659000Y-100163000D01*
G75*
G02*
X161710000Y-100112000I51000J0D01*
G01*
X163410000Y-100112000D01*
G75*
G02*
X163461000Y-100163000I0J-51000D01*
G01*
X163461000Y-101863000D01*
G75*
G02*
X163410000Y-101914000I-51000J0D01*
G01*
X161710000Y-101914000D01*
G75*
G02*
X161659000Y-101863000I0J51000D01*
G01*
G37*
X162052000Y-94536000D03*
G36*
G01*
X160362000Y-95437000D02*
X158662000Y-95437000D01*
G75*
G02*
X158611000Y-95386000I0J51000D01*
G01*
X158611000Y-93686000D01*
G75*
G02*
X158662000Y-93635000I51000J0D01*
G01*
X160362000Y-93635000D01*
G75*
G02*
X160413000Y-93686000I0J-51000D01*
G01*
X160413000Y-95386000D01*
G75*
G02*
X160362000Y-95437000I-51000J0D01*
G01*
G37*
G36*
G01*
X162986000Y-128073000D02*
X162986000Y-127547000D01*
G75*
G02*
X163249000Y-127284000I263000J0D01*
G01*
X163875000Y-127284000D01*
G75*
G02*
X164138000Y-127547000I0J-263000D01*
G01*
X164138000Y-128073000D01*
G75*
G02*
X163875000Y-128336000I-263000J0D01*
G01*
X163249000Y-128336000D01*
G75*
G02*
X162986000Y-128073000I0J263000D01*
G01*
G37*
G36*
G01*
X161236000Y-128073000D02*
X161236000Y-127547000D01*
G75*
G02*
X161499000Y-127284000I263000J0D01*
G01*
X162125000Y-127284000D01*
G75*
G02*
X162388000Y-127547000I0J-263000D01*
G01*
X162388000Y-128073000D01*
G75*
G02*
X162125000Y-128336000I-263000J0D01*
G01*
X161499000Y-128336000D01*
G75*
G02*
X161236000Y-128073000I0J263000D01*
G01*
G37*
G36*
G01*
X136454860Y-115085740D02*
X136454860Y-114559740D01*
G75*
G02*
X136717860Y-114296740I263000J0D01*
G01*
X137343860Y-114296740D01*
G75*
G02*
X137606860Y-114559740I0J-263000D01*
G01*
X137606860Y-115085740D01*
G75*
G02*
X137343860Y-115348740I-263000J0D01*
G01*
X136717860Y-115348740D01*
G75*
G02*
X136454860Y-115085740I0J263000D01*
G01*
G37*
G36*
G01*
X134704860Y-115085740D02*
X134704860Y-114559740D01*
G75*
G02*
X134967860Y-114296740I263000J0D01*
G01*
X135593860Y-114296740D01*
G75*
G02*
X135856860Y-114559740I0J-263000D01*
G01*
X135856860Y-115085740D01*
G75*
G02*
X135593860Y-115348740I-263000J0D01*
G01*
X134967860Y-115348740D01*
G75*
G02*
X134704860Y-115085740I0J263000D01*
G01*
G37*
G36*
G01*
X136454860Y-113307740D02*
X136454860Y-112781740D01*
G75*
G02*
X136717860Y-112518740I263000J0D01*
G01*
X137343860Y-112518740D01*
G75*
G02*
X137606860Y-112781740I0J-263000D01*
G01*
X137606860Y-113307740D01*
G75*
G02*
X137343860Y-113570740I-263000J0D01*
G01*
X136717860Y-113570740D01*
G75*
G02*
X136454860Y-113307740I0J263000D01*
G01*
G37*
G36*
G01*
X134704860Y-113307740D02*
X134704860Y-112781740D01*
G75*
G02*
X134967860Y-112518740I263000J0D01*
G01*
X135593860Y-112518740D01*
G75*
G02*
X135856860Y-112781740I0J-263000D01*
G01*
X135856860Y-113307740D01*
G75*
G02*
X135593860Y-113570740I-263000J0D01*
G01*
X134967860Y-113570740D01*
G75*
G02*
X134704860Y-113307740I0J263000D01*
G01*
G37*
G36*
G01*
X136454860Y-111529740D02*
X136454860Y-111003740D01*
G75*
G02*
X136717860Y-110740740I263000J0D01*
G01*
X137343860Y-110740740D01*
G75*
G02*
X137606860Y-111003740I0J-263000D01*
G01*
X137606860Y-111529740D01*
G75*
G02*
X137343860Y-111792740I-263000J0D01*
G01*
X136717860Y-111792740D01*
G75*
G02*
X136454860Y-111529740I0J263000D01*
G01*
G37*
G36*
G01*
X134704860Y-111529740D02*
X134704860Y-111003740D01*
G75*
G02*
X134967860Y-110740740I263000J0D01*
G01*
X135593860Y-110740740D01*
G75*
G02*
X135856860Y-111003740I0J-263000D01*
G01*
X135856860Y-111529740D01*
G75*
G02*
X135593860Y-111792740I-263000J0D01*
G01*
X134967860Y-111792740D01*
G75*
G02*
X134704860Y-111529740I0J263000D01*
G01*
G37*
G36*
G01*
X136454860Y-109751740D02*
X136454860Y-109225740D01*
G75*
G02*
X136717860Y-108962740I263000J0D01*
G01*
X137343860Y-108962740D01*
G75*
G02*
X137606860Y-109225740I0J-263000D01*
G01*
X137606860Y-109751740D01*
G75*
G02*
X137343860Y-110014740I-263000J0D01*
G01*
X136717860Y-110014740D01*
G75*
G02*
X136454860Y-109751740I0J263000D01*
G01*
G37*
G36*
G01*
X134704860Y-109751740D02*
X134704860Y-109225740D01*
G75*
G02*
X134967860Y-108962740I263000J0D01*
G01*
X135593860Y-108962740D01*
G75*
G02*
X135856860Y-109225740I0J-263000D01*
G01*
X135856860Y-109751740D01*
G75*
G02*
X135593860Y-110014740I-263000J0D01*
G01*
X134967860Y-110014740D01*
G75*
G02*
X134704860Y-109751740I0J263000D01*
G01*
G37*
G36*
G01*
X136454860Y-107973740D02*
X136454860Y-107447740D01*
G75*
G02*
X136717860Y-107184740I263000J0D01*
G01*
X137343860Y-107184740D01*
G75*
G02*
X137606860Y-107447740I0J-263000D01*
G01*
X137606860Y-107973740D01*
G75*
G02*
X137343860Y-108236740I-263000J0D01*
G01*
X136717860Y-108236740D01*
G75*
G02*
X136454860Y-107973740I0J263000D01*
G01*
G37*
G36*
G01*
X134704860Y-107973740D02*
X134704860Y-107447740D01*
G75*
G02*
X134967860Y-107184740I263000J0D01*
G01*
X135593860Y-107184740D01*
G75*
G02*
X135856860Y-107447740I0J-263000D01*
G01*
X135856860Y-107973740D01*
G75*
G02*
X135593860Y-108236740I-263000J0D01*
G01*
X134967860Y-108236740D01*
G75*
G02*
X134704860Y-107973740I0J263000D01*
G01*
G37*
G36*
G01*
X136443000Y-106229000D02*
X136443000Y-105703000D01*
G75*
G02*
X136706000Y-105440000I263000J0D01*
G01*
X137332000Y-105440000D01*
G75*
G02*
X137595000Y-105703000I0J-263000D01*
G01*
X137595000Y-106229000D01*
G75*
G02*
X137332000Y-106492000I-263000J0D01*
G01*
X136706000Y-106492000D01*
G75*
G02*
X136443000Y-106229000I0J263000D01*
G01*
G37*
G36*
G01*
X134693000Y-106229000D02*
X134693000Y-105703000D01*
G75*
G02*
X134956000Y-105440000I263000J0D01*
G01*
X135582000Y-105440000D01*
G75*
G02*
X135845000Y-105703000I0J-263000D01*
G01*
X135845000Y-106229000D01*
G75*
G02*
X135582000Y-106492000I-263000J0D01*
G01*
X134956000Y-106492000D01*
G75*
G02*
X134693000Y-106229000I0J263000D01*
G01*
G37*
G36*
G01*
X136543000Y-104412828D02*
X136543000Y-103455172D01*
G75*
G02*
X136815172Y-103183000I272172J0D01*
G01*
X137522828Y-103183000D01*
G75*
G02*
X137795000Y-103455172I0J-272172D01*
G01*
X137795000Y-104412828D01*
G75*
G02*
X137522828Y-104685000I-272172J0D01*
G01*
X136815172Y-104685000D01*
G75*
G02*
X136543000Y-104412828I0J272172D01*
G01*
G37*
G36*
G01*
X134493000Y-104412828D02*
X134493000Y-103455172D01*
G75*
G02*
X134765172Y-103183000I272172J0D01*
G01*
X135472828Y-103183000D01*
G75*
G02*
X135745000Y-103455172I0J-272172D01*
G01*
X135745000Y-104412828D01*
G75*
G02*
X135472828Y-104685000I-272172J0D01*
G01*
X134765172Y-104685000D01*
G75*
G02*
X134493000Y-104412828I0J272172D01*
G01*
G37*
G36*
G01*
X127744000Y-100280172D02*
X127744000Y-101237828D01*
G75*
G02*
X127471828Y-101510000I-272172J0D01*
G01*
X126764172Y-101510000D01*
G75*
G02*
X126492000Y-101237828I0J272172D01*
G01*
X126492000Y-100280172D01*
G75*
G02*
X126764172Y-100008000I272172J0D01*
G01*
X127471828Y-100008000D01*
G75*
G02*
X127744000Y-100280172I0J-272172D01*
G01*
G37*
G36*
G01*
X129794000Y-100280172D02*
X129794000Y-101237828D01*
G75*
G02*
X129521828Y-101510000I-272172J0D01*
G01*
X128814172Y-101510000D01*
G75*
G02*
X128542000Y-101237828I0J272172D01*
G01*
X128542000Y-100280172D01*
G75*
G02*
X128814172Y-100008000I272172J0D01*
G01*
X129521828Y-100008000D01*
G75*
G02*
X129794000Y-100280172I0J-272172D01*
G01*
G37*
D14*
G36*
X128278084Y-117632033D02*
G01*
X128279000Y-117633714D01*
X128279000Y-118174287D01*
X128278000Y-118176019D01*
X128276000Y-118176019D01*
X128275010Y-118174483D01*
X128272628Y-118150296D01*
X128265628Y-118127221D01*
X128254263Y-118105957D01*
X128238968Y-118087320D01*
X128220331Y-118072025D01*
X128199067Y-118060660D01*
X128175992Y-118053660D01*
X128152001Y-118051297D01*
X128128010Y-118053660D01*
X128104935Y-118060660D01*
X128083671Y-118072025D01*
X128065034Y-118087320D01*
X128049739Y-118105957D01*
X128038374Y-118127221D01*
X128031360Y-118150344D01*
X128030978Y-118152918D01*
X128029735Y-118154484D01*
X128027757Y-118154191D01*
X128027000Y-118152624D01*
X128027000Y-117654095D01*
X128026812Y-117652184D01*
X128027637Y-117650362D01*
X128029628Y-117650166D01*
X128030764Y-117651598D01*
X128034308Y-117669417D01*
X128043535Y-117691691D01*
X128056929Y-117711738D01*
X128073976Y-117728785D01*
X128094023Y-117742180D01*
X128116297Y-117751406D01*
X128139948Y-117756111D01*
X128164054Y-117756111D01*
X128187704Y-117751407D01*
X128209978Y-117742180D01*
X128230025Y-117728786D01*
X128247072Y-117711739D01*
X128260467Y-117691692D01*
X128269693Y-117669418D01*
X128274407Y-117645721D01*
X128275002Y-117633616D01*
X128276086Y-117631935D01*
X128278084Y-117632033D01*
G37*
G36*
X123278320Y-117656596D02*
G01*
X123279001Y-117658100D01*
X123279000Y-118149895D01*
X123278000Y-118151627D01*
X123276000Y-118151627D01*
X123275038Y-118150285D01*
X123270693Y-118128440D01*
X123261466Y-118106166D01*
X123248072Y-118086119D01*
X123231025Y-118069072D01*
X123210977Y-118055677D01*
X123188704Y-118046450D01*
X123165053Y-118041746D01*
X123140947Y-118041746D01*
X123117297Y-118046450D01*
X123095023Y-118055677D01*
X123074976Y-118069071D01*
X123057929Y-118086118D01*
X123044534Y-118106166D01*
X123035307Y-118128439D01*
X123030962Y-118150285D01*
X123029643Y-118151789D01*
X123027681Y-118151399D01*
X123027000Y-118149895D01*
X123027000Y-117658105D01*
X123028000Y-117656373D01*
X123030000Y-117656373D01*
X123030962Y-117657715D01*
X123035307Y-117679560D01*
X123044534Y-117701834D01*
X123057928Y-117721881D01*
X123074975Y-117738928D01*
X123095023Y-117752323D01*
X123117296Y-117761549D01*
X123140947Y-117766254D01*
X123165053Y-117766254D01*
X123188703Y-117761550D01*
X123210977Y-117752323D01*
X123231024Y-117738929D01*
X123248071Y-117721882D01*
X123261466Y-117701834D01*
X123270692Y-117679561D01*
X123275039Y-117657710D01*
X123276358Y-117656206D01*
X123278320Y-117656596D01*
G37*
G36*
X127028320Y-117656596D02*
G01*
X127029001Y-117658100D01*
X127029000Y-118149895D01*
X127028000Y-118151627D01*
X127026000Y-118151627D01*
X127025038Y-118150285D01*
X127020693Y-118128440D01*
X127011466Y-118106166D01*
X126998072Y-118086119D01*
X126981025Y-118069072D01*
X126960977Y-118055677D01*
X126938704Y-118046450D01*
X126915053Y-118041746D01*
X126890947Y-118041746D01*
X126867297Y-118046450D01*
X126845023Y-118055677D01*
X126824976Y-118069071D01*
X126807929Y-118086118D01*
X126794534Y-118106166D01*
X126785307Y-118128439D01*
X126780962Y-118150285D01*
X126779643Y-118151789D01*
X126777681Y-118151399D01*
X126777000Y-118149895D01*
X126777000Y-117658105D01*
X126778000Y-117656373D01*
X126780000Y-117656373D01*
X126780962Y-117657715D01*
X126785307Y-117679560D01*
X126794534Y-117701834D01*
X126807928Y-117721881D01*
X126824975Y-117738928D01*
X126845023Y-117752323D01*
X126867296Y-117761549D01*
X126890947Y-117766254D01*
X126915053Y-117766254D01*
X126938703Y-117761550D01*
X126960977Y-117752323D01*
X126981024Y-117738929D01*
X126998071Y-117721882D01*
X127011466Y-117701834D01*
X127020692Y-117679561D01*
X127025039Y-117657710D01*
X127026358Y-117656206D01*
X127028320Y-117656596D01*
G37*
G36*
X125778320Y-117656596D02*
G01*
X125779001Y-117658100D01*
X125779000Y-118149895D01*
X125778000Y-118151627D01*
X125776000Y-118151627D01*
X125775038Y-118150285D01*
X125770693Y-118128440D01*
X125761466Y-118106166D01*
X125748072Y-118086119D01*
X125731025Y-118069072D01*
X125710977Y-118055677D01*
X125688704Y-118046450D01*
X125665053Y-118041746D01*
X125640947Y-118041746D01*
X125617297Y-118046450D01*
X125595023Y-118055677D01*
X125574976Y-118069071D01*
X125557929Y-118086118D01*
X125544534Y-118106166D01*
X125535307Y-118128439D01*
X125530962Y-118150285D01*
X125529643Y-118151789D01*
X125527681Y-118151399D01*
X125527000Y-118149895D01*
X125527000Y-117658105D01*
X125528000Y-117656373D01*
X125530000Y-117656373D01*
X125530962Y-117657715D01*
X125535307Y-117679560D01*
X125544534Y-117701834D01*
X125557928Y-117721881D01*
X125574975Y-117738928D01*
X125595023Y-117752323D01*
X125617296Y-117761549D01*
X125640947Y-117766254D01*
X125665053Y-117766254D01*
X125688703Y-117761550D01*
X125710977Y-117752323D01*
X125731024Y-117738929D01*
X125748071Y-117721882D01*
X125761466Y-117701834D01*
X125770692Y-117679561D01*
X125775039Y-117657710D01*
X125776358Y-117656206D01*
X125778320Y-117656596D01*
G37*
G36*
X124528320Y-117656596D02*
G01*
X124529001Y-117658100D01*
X124529000Y-118149895D01*
X124528000Y-118151627D01*
X124526000Y-118151627D01*
X124525038Y-118150285D01*
X124520693Y-118128440D01*
X124511466Y-118106166D01*
X124498072Y-118086119D01*
X124481025Y-118069072D01*
X124460977Y-118055677D01*
X124438704Y-118046450D01*
X124415053Y-118041746D01*
X124390947Y-118041746D01*
X124367297Y-118046450D01*
X124345023Y-118055677D01*
X124324976Y-118069071D01*
X124307929Y-118086118D01*
X124294534Y-118106166D01*
X124285307Y-118128439D01*
X124280962Y-118150285D01*
X124279643Y-118151789D01*
X124277681Y-118151399D01*
X124277000Y-118149895D01*
X124277000Y-117658105D01*
X124278000Y-117656373D01*
X124280000Y-117656373D01*
X124280962Y-117657715D01*
X124285307Y-117679560D01*
X124294534Y-117701834D01*
X124307928Y-117721881D01*
X124324975Y-117738928D01*
X124345023Y-117752323D01*
X124367296Y-117761549D01*
X124390947Y-117766254D01*
X124415053Y-117766254D01*
X124438703Y-117761550D01*
X124460977Y-117752323D01*
X124481024Y-117738929D01*
X124498071Y-117721882D01*
X124511466Y-117701834D01*
X124520692Y-117679561D01*
X124525039Y-117657710D01*
X124526358Y-117656206D01*
X124528320Y-117656596D01*
G37*
G36*
X150566084Y-114969979D02*
G01*
X150567000Y-114971660D01*
X150567000Y-116234340D01*
X150566000Y-116236072D01*
X150564000Y-116236072D01*
X150563010Y-116234536D01*
X150560628Y-116210349D01*
X150553628Y-116187274D01*
X150542263Y-116166010D01*
X150526968Y-116147373D01*
X150508331Y-116132078D01*
X150487067Y-116120713D01*
X150463992Y-116113713D01*
X150440001Y-116111350D01*
X150416010Y-116113713D01*
X150392935Y-116120713D01*
X150371715Y-116132055D01*
X150347757Y-116153769D01*
X150345802Y-116154191D01*
X150344459Y-116152709D01*
X150344868Y-116151018D01*
X150348255Y-116146892D01*
X150401298Y-116047657D01*
X150433962Y-115939977D01*
X150445000Y-115827906D01*
X150445000Y-115378095D01*
X150433962Y-115266023D01*
X150401298Y-115158343D01*
X150348255Y-115059108D01*
X150346170Y-115056568D01*
X150345844Y-115054594D01*
X150347390Y-115053326D01*
X150349130Y-115053885D01*
X150361976Y-115066731D01*
X150382024Y-115080126D01*
X150404297Y-115089353D01*
X150427948Y-115094057D01*
X150452054Y-115094057D01*
X150475704Y-115089353D01*
X150497978Y-115080126D01*
X150518025Y-115066732D01*
X150535072Y-115049685D01*
X150548467Y-115029637D01*
X150557694Y-115007364D01*
X150562407Y-114983667D01*
X150563002Y-114971562D01*
X150564086Y-114969881D01*
X150566084Y-114969979D01*
G37*
G36*
X149130836Y-115149013D02*
G01*
X149140929Y-115164118D01*
X149157976Y-115181165D01*
X149178024Y-115194560D01*
X149200298Y-115203786D01*
X149223948Y-115208490D01*
X149248054Y-115208490D01*
X149271704Y-115203785D01*
X149293978Y-115194559D01*
X149314025Y-115181164D01*
X149331072Y-115164117D01*
X149341164Y-115149013D01*
X149342958Y-115148128D01*
X149344621Y-115149239D01*
X149344591Y-115151067D01*
X149340702Y-115158343D01*
X149308038Y-115266023D01*
X149297000Y-115378094D01*
X149297000Y-115827906D01*
X149308038Y-115939976D01*
X149340702Y-116047656D01*
X149344591Y-116054932D01*
X149344525Y-116056931D01*
X149342762Y-116057874D01*
X149341164Y-116056986D01*
X149331071Y-116041881D01*
X149314024Y-116024834D01*
X149293976Y-116011439D01*
X149271702Y-116002213D01*
X149248052Y-115997509D01*
X149223946Y-115997509D01*
X149200296Y-116002214D01*
X149178022Y-116011440D01*
X149157975Y-116024835D01*
X149140928Y-116041882D01*
X149130839Y-116056982D01*
X149129045Y-116057867D01*
X149127382Y-116056756D01*
X149127412Y-116054928D01*
X149131298Y-116047657D01*
X149163962Y-115939977D01*
X149175000Y-115827906D01*
X149175000Y-115378095D01*
X149163962Y-115266023D01*
X149131298Y-115158343D01*
X149127409Y-115151067D01*
X149127475Y-115149068D01*
X149129238Y-115148125D01*
X149130836Y-115149013D01*
G37*
G36*
X125059576Y-112996010D02*
G01*
X125089299Y-112998937D01*
X125089684Y-112999013D01*
X125112357Y-113005891D01*
X125112719Y-113006041D01*
X125133616Y-113017211D01*
X125133942Y-113017429D01*
X125154229Y-113034077D01*
X125154374Y-113034209D01*
X125167977Y-113047812D01*
X125188024Y-113061206D01*
X125210298Y-113070432D01*
X125233949Y-113075136D01*
X125258055Y-113075136D01*
X125281705Y-113070431D01*
X125303978Y-113061205D01*
X125324026Y-113047810D01*
X125337628Y-113034208D01*
X125337773Y-113034076D01*
X125358058Y-113017429D01*
X125358384Y-113017211D01*
X125379281Y-113006041D01*
X125379643Y-113005891D01*
X125402316Y-112999013D01*
X125402701Y-112998937D01*
X125432424Y-112996010D01*
X125432620Y-112996000D01*
X125453980Y-112996000D01*
X125455712Y-112997000D01*
X125455712Y-112999000D01*
X125454176Y-112999990D01*
X125425310Y-113002833D01*
X125397737Y-113011197D01*
X125372327Y-113024779D01*
X125350056Y-113043056D01*
X125331779Y-113065327D01*
X125318197Y-113090737D01*
X125309833Y-113118310D01*
X125307000Y-113147074D01*
X125307000Y-114510926D01*
X125309833Y-114539690D01*
X125318197Y-114567263D01*
X125331779Y-114592673D01*
X125350056Y-114614944D01*
X125372327Y-114633221D01*
X125397737Y-114646803D01*
X125425310Y-114655167D01*
X125454176Y-114658010D01*
X125455802Y-114659175D01*
X125455606Y-114661165D01*
X125453980Y-114662000D01*
X125432620Y-114662000D01*
X125432424Y-114661990D01*
X125402701Y-114659063D01*
X125402316Y-114658987D01*
X125379643Y-114652109D01*
X125379281Y-114651959D01*
X125358384Y-114640789D01*
X125358058Y-114640571D01*
X125337771Y-114623923D01*
X125337626Y-114623791D01*
X125324023Y-114610188D01*
X125303976Y-114596794D01*
X125281702Y-114587568D01*
X125258051Y-114582864D01*
X125233945Y-114582864D01*
X125210295Y-114587569D01*
X125188022Y-114596795D01*
X125167974Y-114610190D01*
X125154372Y-114623792D01*
X125154227Y-114623924D01*
X125133942Y-114640571D01*
X125133616Y-114640789D01*
X125112719Y-114651959D01*
X125112357Y-114652109D01*
X125089684Y-114658987D01*
X125089299Y-114659063D01*
X125059576Y-114661990D01*
X125059380Y-114662000D01*
X125038020Y-114662000D01*
X125036288Y-114661000D01*
X125036288Y-114659000D01*
X125037824Y-114658010D01*
X125066690Y-114655167D01*
X125094263Y-114646803D01*
X125119673Y-114633221D01*
X125141944Y-114614944D01*
X125160221Y-114592673D01*
X125173803Y-114567263D01*
X125182167Y-114539690D01*
X125185000Y-114510926D01*
X125185000Y-113147074D01*
X125182167Y-113118310D01*
X125173803Y-113090737D01*
X125160221Y-113065327D01*
X125141944Y-113043056D01*
X125119673Y-113024779D01*
X125094263Y-113011197D01*
X125066690Y-113002833D01*
X125037824Y-112999990D01*
X125036198Y-112998825D01*
X125036394Y-112996835D01*
X125038020Y-112996000D01*
X125059380Y-112996000D01*
X125059576Y-112996010D01*
G37*
G36*
X128059576Y-112996010D02*
G01*
X128089299Y-112998937D01*
X128089684Y-112999013D01*
X128112357Y-113005891D01*
X128112719Y-113006041D01*
X128133616Y-113017211D01*
X128133942Y-113017429D01*
X128154229Y-113034077D01*
X128154374Y-113034209D01*
X128167977Y-113047812D01*
X128188024Y-113061206D01*
X128210298Y-113070432D01*
X128233949Y-113075136D01*
X128258055Y-113075136D01*
X128281705Y-113070431D01*
X128303978Y-113061205D01*
X128324026Y-113047810D01*
X128337628Y-113034208D01*
X128337773Y-113034076D01*
X128358058Y-113017429D01*
X128358384Y-113017211D01*
X128379281Y-113006041D01*
X128379643Y-113005891D01*
X128402316Y-112999013D01*
X128402701Y-112998937D01*
X128432424Y-112996010D01*
X128432620Y-112996000D01*
X128453980Y-112996000D01*
X128455712Y-112997000D01*
X128455712Y-112999000D01*
X128454176Y-112999990D01*
X128425310Y-113002833D01*
X128397737Y-113011197D01*
X128372327Y-113024779D01*
X128350056Y-113043056D01*
X128331779Y-113065327D01*
X128318197Y-113090737D01*
X128309833Y-113118310D01*
X128307000Y-113147074D01*
X128307000Y-114510926D01*
X128309833Y-114539690D01*
X128318197Y-114567263D01*
X128331779Y-114592673D01*
X128350056Y-114614944D01*
X128372327Y-114633221D01*
X128397737Y-114646803D01*
X128425310Y-114655167D01*
X128454176Y-114658010D01*
X128455802Y-114659175D01*
X128455606Y-114661165D01*
X128453980Y-114662000D01*
X128432620Y-114662000D01*
X128432424Y-114661990D01*
X128402701Y-114659063D01*
X128402316Y-114658987D01*
X128379643Y-114652109D01*
X128379281Y-114651959D01*
X128358384Y-114640789D01*
X128358058Y-114640571D01*
X128337771Y-114623923D01*
X128337626Y-114623791D01*
X128324023Y-114610188D01*
X128303976Y-114596794D01*
X128281702Y-114587568D01*
X128258051Y-114582864D01*
X128233945Y-114582864D01*
X128210295Y-114587569D01*
X128188022Y-114596795D01*
X128167974Y-114610190D01*
X128154372Y-114623792D01*
X128154227Y-114623924D01*
X128133942Y-114640571D01*
X128133616Y-114640789D01*
X128112719Y-114651959D01*
X128112357Y-114652109D01*
X128089684Y-114658987D01*
X128089299Y-114659063D01*
X128059576Y-114661990D01*
X128059380Y-114662000D01*
X128038020Y-114662000D01*
X128036288Y-114661000D01*
X128036288Y-114659000D01*
X128037824Y-114658010D01*
X128066690Y-114655167D01*
X128094263Y-114646803D01*
X128119673Y-114633221D01*
X128141944Y-114614944D01*
X128160221Y-114592673D01*
X128173803Y-114567263D01*
X128182167Y-114539690D01*
X128185000Y-114510926D01*
X128185000Y-113147074D01*
X128182167Y-113118310D01*
X128173803Y-113090737D01*
X128160221Y-113065327D01*
X128141944Y-113043056D01*
X128119673Y-113024779D01*
X128094263Y-113011197D01*
X128066690Y-113002833D01*
X128037824Y-112999990D01*
X128036198Y-112998825D01*
X128036394Y-112996835D01*
X128038020Y-112996000D01*
X128059380Y-112996000D01*
X128059576Y-112996010D01*
G37*
G36*
X127059576Y-112996010D02*
G01*
X127089299Y-112998937D01*
X127089684Y-112999013D01*
X127112357Y-113005891D01*
X127112719Y-113006041D01*
X127133616Y-113017211D01*
X127133942Y-113017429D01*
X127154229Y-113034077D01*
X127154374Y-113034209D01*
X127167977Y-113047812D01*
X127188024Y-113061206D01*
X127210298Y-113070432D01*
X127233949Y-113075136D01*
X127258055Y-113075136D01*
X127281705Y-113070431D01*
X127303978Y-113061205D01*
X127324026Y-113047810D01*
X127337628Y-113034208D01*
X127337773Y-113034076D01*
X127358058Y-113017429D01*
X127358384Y-113017211D01*
X127379281Y-113006041D01*
X127379643Y-113005891D01*
X127402316Y-112999013D01*
X127402701Y-112998937D01*
X127432424Y-112996010D01*
X127432620Y-112996000D01*
X127453980Y-112996000D01*
X127455712Y-112997000D01*
X127455712Y-112999000D01*
X127454176Y-112999990D01*
X127425310Y-113002833D01*
X127397737Y-113011197D01*
X127372327Y-113024779D01*
X127350056Y-113043056D01*
X127331779Y-113065327D01*
X127318197Y-113090737D01*
X127309833Y-113118310D01*
X127307000Y-113147074D01*
X127307000Y-114510926D01*
X127309833Y-114539690D01*
X127318197Y-114567263D01*
X127331779Y-114592673D01*
X127350056Y-114614944D01*
X127372327Y-114633221D01*
X127397737Y-114646803D01*
X127425310Y-114655167D01*
X127454176Y-114658010D01*
X127455802Y-114659175D01*
X127455606Y-114661165D01*
X127453980Y-114662000D01*
X127432620Y-114662000D01*
X127432424Y-114661990D01*
X127402701Y-114659063D01*
X127402316Y-114658987D01*
X127379643Y-114652109D01*
X127379281Y-114651959D01*
X127358384Y-114640789D01*
X127358058Y-114640571D01*
X127337771Y-114623923D01*
X127337626Y-114623791D01*
X127324023Y-114610188D01*
X127303976Y-114596794D01*
X127281702Y-114587568D01*
X127258051Y-114582864D01*
X127233945Y-114582864D01*
X127210295Y-114587569D01*
X127188022Y-114596795D01*
X127167974Y-114610190D01*
X127154372Y-114623792D01*
X127154227Y-114623924D01*
X127133942Y-114640571D01*
X127133616Y-114640789D01*
X127112719Y-114651959D01*
X127112357Y-114652109D01*
X127089684Y-114658987D01*
X127089299Y-114659063D01*
X127059576Y-114661990D01*
X127059380Y-114662000D01*
X127038020Y-114662000D01*
X127036288Y-114661000D01*
X127036288Y-114659000D01*
X127037824Y-114658010D01*
X127066690Y-114655167D01*
X127094263Y-114646803D01*
X127119673Y-114633221D01*
X127141944Y-114614944D01*
X127160221Y-114592673D01*
X127173803Y-114567263D01*
X127182167Y-114539690D01*
X127185000Y-114510926D01*
X127185000Y-113147074D01*
X127182167Y-113118310D01*
X127173803Y-113090737D01*
X127160221Y-113065327D01*
X127141944Y-113043056D01*
X127119673Y-113024779D01*
X127094263Y-113011197D01*
X127066690Y-113002833D01*
X127037824Y-112999990D01*
X127036198Y-112998825D01*
X127036394Y-112996835D01*
X127038020Y-112996000D01*
X127059380Y-112996000D01*
X127059576Y-112996010D01*
G37*
G36*
X129059576Y-112996010D02*
G01*
X129089299Y-112998937D01*
X129089684Y-112999013D01*
X129112357Y-113005891D01*
X129112719Y-113006041D01*
X129133616Y-113017211D01*
X129133942Y-113017429D01*
X129154229Y-113034077D01*
X129154374Y-113034209D01*
X129167977Y-113047812D01*
X129188024Y-113061206D01*
X129210298Y-113070432D01*
X129233949Y-113075136D01*
X129258055Y-113075136D01*
X129281705Y-113070431D01*
X129303978Y-113061205D01*
X129324026Y-113047810D01*
X129337628Y-113034208D01*
X129337773Y-113034076D01*
X129358058Y-113017429D01*
X129358384Y-113017211D01*
X129379281Y-113006041D01*
X129379643Y-113005891D01*
X129402316Y-112999013D01*
X129402701Y-112998937D01*
X129432424Y-112996010D01*
X129432620Y-112996000D01*
X129453980Y-112996000D01*
X129455712Y-112997000D01*
X129455712Y-112999000D01*
X129454176Y-112999990D01*
X129425310Y-113002833D01*
X129397737Y-113011197D01*
X129372327Y-113024779D01*
X129350056Y-113043056D01*
X129331779Y-113065327D01*
X129318197Y-113090737D01*
X129309833Y-113118310D01*
X129307000Y-113147074D01*
X129307000Y-114510926D01*
X129309833Y-114539690D01*
X129318197Y-114567263D01*
X129331779Y-114592673D01*
X129350056Y-114614944D01*
X129372327Y-114633221D01*
X129397737Y-114646803D01*
X129425310Y-114655167D01*
X129454176Y-114658010D01*
X129455802Y-114659175D01*
X129455606Y-114661165D01*
X129453980Y-114662000D01*
X129432620Y-114662000D01*
X129432424Y-114661990D01*
X129402701Y-114659063D01*
X129402316Y-114658987D01*
X129379643Y-114652109D01*
X129379281Y-114651959D01*
X129358384Y-114640789D01*
X129358058Y-114640571D01*
X129337771Y-114623923D01*
X129337626Y-114623791D01*
X129324023Y-114610188D01*
X129303976Y-114596794D01*
X129281702Y-114587568D01*
X129258051Y-114582864D01*
X129233945Y-114582864D01*
X129210295Y-114587569D01*
X129188022Y-114596795D01*
X129167974Y-114610190D01*
X129154372Y-114623792D01*
X129154227Y-114623924D01*
X129133942Y-114640571D01*
X129133616Y-114640789D01*
X129112719Y-114651959D01*
X129112357Y-114652109D01*
X129089684Y-114658987D01*
X129089299Y-114659063D01*
X129059576Y-114661990D01*
X129059380Y-114662000D01*
X129038020Y-114662000D01*
X129036288Y-114661000D01*
X129036288Y-114659000D01*
X129037824Y-114658010D01*
X129066690Y-114655167D01*
X129094263Y-114646803D01*
X129119673Y-114633221D01*
X129141944Y-114614944D01*
X129160221Y-114592673D01*
X129173803Y-114567263D01*
X129182167Y-114539690D01*
X129185000Y-114510926D01*
X129185000Y-113147074D01*
X129182167Y-113118310D01*
X129173803Y-113090737D01*
X129160221Y-113065327D01*
X129141944Y-113043056D01*
X129119673Y-113024779D01*
X129094263Y-113011197D01*
X129066690Y-113002833D01*
X129037824Y-112999990D01*
X129036198Y-112998825D01*
X129036394Y-112996835D01*
X129038020Y-112996000D01*
X129059380Y-112996000D01*
X129059576Y-112996010D01*
G37*
G36*
X124559576Y-112996010D02*
G01*
X124589299Y-112998937D01*
X124589684Y-112999013D01*
X124612357Y-113005891D01*
X124612719Y-113006041D01*
X124633616Y-113017211D01*
X124633942Y-113017429D01*
X124654229Y-113034077D01*
X124654374Y-113034209D01*
X124667977Y-113047812D01*
X124688024Y-113061206D01*
X124710298Y-113070432D01*
X124733949Y-113075136D01*
X124758055Y-113075136D01*
X124781705Y-113070431D01*
X124803978Y-113061205D01*
X124824026Y-113047810D01*
X124837628Y-113034208D01*
X124837773Y-113034076D01*
X124858058Y-113017429D01*
X124858384Y-113017211D01*
X124879281Y-113006041D01*
X124879643Y-113005891D01*
X124902316Y-112999013D01*
X124902701Y-112998937D01*
X124932424Y-112996010D01*
X124932620Y-112996000D01*
X124953980Y-112996000D01*
X124955712Y-112997000D01*
X124955712Y-112999000D01*
X124954176Y-112999990D01*
X124925310Y-113002833D01*
X124897737Y-113011197D01*
X124872327Y-113024779D01*
X124850056Y-113043056D01*
X124831779Y-113065327D01*
X124818197Y-113090737D01*
X124809833Y-113118310D01*
X124807000Y-113147074D01*
X124807000Y-114510926D01*
X124809833Y-114539690D01*
X124818197Y-114567263D01*
X124831779Y-114592673D01*
X124850056Y-114614944D01*
X124872327Y-114633221D01*
X124897737Y-114646803D01*
X124925310Y-114655167D01*
X124954176Y-114658010D01*
X124955802Y-114659175D01*
X124955606Y-114661165D01*
X124953980Y-114662000D01*
X124932620Y-114662000D01*
X124932424Y-114661990D01*
X124902701Y-114659063D01*
X124902316Y-114658987D01*
X124879643Y-114652109D01*
X124879281Y-114651959D01*
X124858384Y-114640789D01*
X124858058Y-114640571D01*
X124837771Y-114623923D01*
X124837626Y-114623791D01*
X124824023Y-114610188D01*
X124803976Y-114596794D01*
X124781702Y-114587568D01*
X124758051Y-114582864D01*
X124733945Y-114582864D01*
X124710295Y-114587569D01*
X124688022Y-114596795D01*
X124667974Y-114610190D01*
X124654372Y-114623792D01*
X124654227Y-114623924D01*
X124633942Y-114640571D01*
X124633616Y-114640789D01*
X124612719Y-114651959D01*
X124612357Y-114652109D01*
X124589684Y-114658987D01*
X124589299Y-114659063D01*
X124559576Y-114661990D01*
X124559380Y-114662000D01*
X124538020Y-114662000D01*
X124536288Y-114661000D01*
X124536288Y-114659000D01*
X124537824Y-114658010D01*
X124566690Y-114655167D01*
X124594263Y-114646803D01*
X124619673Y-114633221D01*
X124641944Y-114614944D01*
X124660221Y-114592673D01*
X124673803Y-114567263D01*
X124682167Y-114539690D01*
X124685000Y-114510926D01*
X124685000Y-113147074D01*
X124682167Y-113118310D01*
X124673803Y-113090737D01*
X124660221Y-113065327D01*
X124641944Y-113043056D01*
X124619673Y-113024779D01*
X124594263Y-113011197D01*
X124566690Y-113002833D01*
X124537824Y-112999990D01*
X124536198Y-112998825D01*
X124536394Y-112996835D01*
X124538020Y-112996000D01*
X124559380Y-112996000D01*
X124559576Y-112996010D01*
G37*
G36*
X126559576Y-112996010D02*
G01*
X126589299Y-112998937D01*
X126589684Y-112999013D01*
X126612357Y-113005891D01*
X126612719Y-113006041D01*
X126633616Y-113017211D01*
X126633942Y-113017429D01*
X126654229Y-113034077D01*
X126654374Y-113034209D01*
X126667977Y-113047812D01*
X126688024Y-113061206D01*
X126710298Y-113070432D01*
X126733949Y-113075136D01*
X126758055Y-113075136D01*
X126781705Y-113070431D01*
X126803978Y-113061205D01*
X126824026Y-113047810D01*
X126837628Y-113034208D01*
X126837773Y-113034076D01*
X126858058Y-113017429D01*
X126858384Y-113017211D01*
X126879281Y-113006041D01*
X126879643Y-113005891D01*
X126902316Y-112999013D01*
X126902701Y-112998937D01*
X126932424Y-112996010D01*
X126932620Y-112996000D01*
X126953980Y-112996000D01*
X126955712Y-112997000D01*
X126955712Y-112999000D01*
X126954176Y-112999990D01*
X126925310Y-113002833D01*
X126897737Y-113011197D01*
X126872327Y-113024779D01*
X126850056Y-113043056D01*
X126831779Y-113065327D01*
X126818197Y-113090737D01*
X126809833Y-113118310D01*
X126807000Y-113147074D01*
X126807000Y-114510926D01*
X126809833Y-114539690D01*
X126818197Y-114567263D01*
X126831779Y-114592673D01*
X126850056Y-114614944D01*
X126872327Y-114633221D01*
X126897737Y-114646803D01*
X126925310Y-114655167D01*
X126954176Y-114658010D01*
X126955802Y-114659175D01*
X126955606Y-114661165D01*
X126953980Y-114662000D01*
X126932620Y-114662000D01*
X126932424Y-114661990D01*
X126902701Y-114659063D01*
X126902316Y-114658987D01*
X126879643Y-114652109D01*
X126879281Y-114651959D01*
X126858384Y-114640789D01*
X126858058Y-114640571D01*
X126837771Y-114623923D01*
X126837626Y-114623791D01*
X126824023Y-114610188D01*
X126803976Y-114596794D01*
X126781702Y-114587568D01*
X126758051Y-114582864D01*
X126733945Y-114582864D01*
X126710295Y-114587569D01*
X126688022Y-114596795D01*
X126667974Y-114610190D01*
X126654372Y-114623792D01*
X126654227Y-114623924D01*
X126633942Y-114640571D01*
X126633616Y-114640789D01*
X126612719Y-114651959D01*
X126612357Y-114652109D01*
X126589684Y-114658987D01*
X126589299Y-114659063D01*
X126559576Y-114661990D01*
X126559380Y-114662000D01*
X126538020Y-114662000D01*
X126536288Y-114661000D01*
X126536288Y-114659000D01*
X126537824Y-114658010D01*
X126566690Y-114655167D01*
X126594263Y-114646803D01*
X126619673Y-114633221D01*
X126641944Y-114614944D01*
X126660221Y-114592673D01*
X126673803Y-114567263D01*
X126682167Y-114539690D01*
X126685000Y-114510926D01*
X126685000Y-113147074D01*
X126682167Y-113118310D01*
X126673803Y-113090737D01*
X126660221Y-113065327D01*
X126641944Y-113043056D01*
X126619673Y-113024779D01*
X126594263Y-113011197D01*
X126566690Y-113002833D01*
X126537824Y-112999990D01*
X126536198Y-112998825D01*
X126536394Y-112996835D01*
X126538020Y-112996000D01*
X126559380Y-112996000D01*
X126559576Y-112996010D01*
G37*
G36*
X127559576Y-112996010D02*
G01*
X127589299Y-112998937D01*
X127589684Y-112999013D01*
X127612357Y-113005891D01*
X127612719Y-113006041D01*
X127633616Y-113017211D01*
X127633942Y-113017429D01*
X127654229Y-113034077D01*
X127654374Y-113034209D01*
X127667977Y-113047812D01*
X127688024Y-113061206D01*
X127710298Y-113070432D01*
X127733949Y-113075136D01*
X127758055Y-113075136D01*
X127781705Y-113070431D01*
X127803978Y-113061205D01*
X127824026Y-113047810D01*
X127837628Y-113034208D01*
X127837773Y-113034076D01*
X127858058Y-113017429D01*
X127858384Y-113017211D01*
X127879281Y-113006041D01*
X127879643Y-113005891D01*
X127902316Y-112999013D01*
X127902701Y-112998937D01*
X127932424Y-112996010D01*
X127932620Y-112996000D01*
X127953980Y-112996000D01*
X127955712Y-112997000D01*
X127955712Y-112999000D01*
X127954176Y-112999990D01*
X127925310Y-113002833D01*
X127897737Y-113011197D01*
X127872327Y-113024779D01*
X127850056Y-113043056D01*
X127831779Y-113065327D01*
X127818197Y-113090737D01*
X127809833Y-113118310D01*
X127807000Y-113147074D01*
X127807000Y-114510926D01*
X127809833Y-114539690D01*
X127818197Y-114567263D01*
X127831779Y-114592673D01*
X127850056Y-114614944D01*
X127872327Y-114633221D01*
X127897737Y-114646803D01*
X127925310Y-114655167D01*
X127954176Y-114658010D01*
X127955802Y-114659175D01*
X127955606Y-114661165D01*
X127953980Y-114662000D01*
X127932620Y-114662000D01*
X127932424Y-114661990D01*
X127902701Y-114659063D01*
X127902316Y-114658987D01*
X127879643Y-114652109D01*
X127879281Y-114651959D01*
X127858384Y-114640789D01*
X127858058Y-114640571D01*
X127837771Y-114623923D01*
X127837626Y-114623791D01*
X127824023Y-114610188D01*
X127803976Y-114596794D01*
X127781702Y-114587568D01*
X127758051Y-114582864D01*
X127733945Y-114582864D01*
X127710295Y-114587569D01*
X127688022Y-114596795D01*
X127667974Y-114610190D01*
X127654372Y-114623792D01*
X127654227Y-114623924D01*
X127633942Y-114640571D01*
X127633616Y-114640789D01*
X127612719Y-114651959D01*
X127612357Y-114652109D01*
X127589684Y-114658987D01*
X127589299Y-114659063D01*
X127559576Y-114661990D01*
X127559380Y-114662000D01*
X127538020Y-114662000D01*
X127536288Y-114661000D01*
X127536288Y-114659000D01*
X127537824Y-114658010D01*
X127566690Y-114655167D01*
X127594263Y-114646803D01*
X127619673Y-114633221D01*
X127641944Y-114614944D01*
X127660221Y-114592673D01*
X127673803Y-114567263D01*
X127682167Y-114539690D01*
X127685000Y-114510926D01*
X127685000Y-113147074D01*
X127682167Y-113118310D01*
X127673803Y-113090737D01*
X127660221Y-113065327D01*
X127641944Y-113043056D01*
X127619673Y-113024779D01*
X127594263Y-113011197D01*
X127566690Y-113002833D01*
X127537824Y-112999990D01*
X127536198Y-112998825D01*
X127536394Y-112996835D01*
X127538020Y-112996000D01*
X127559380Y-112996000D01*
X127559576Y-112996010D01*
G37*
G36*
X125559576Y-112996010D02*
G01*
X125589299Y-112998937D01*
X125589684Y-112999013D01*
X125612357Y-113005891D01*
X125612719Y-113006041D01*
X125633616Y-113017211D01*
X125633942Y-113017429D01*
X125654229Y-113034077D01*
X125654374Y-113034209D01*
X125667977Y-113047812D01*
X125688024Y-113061206D01*
X125710298Y-113070432D01*
X125733949Y-113075136D01*
X125758055Y-113075136D01*
X125781705Y-113070431D01*
X125803978Y-113061205D01*
X125824026Y-113047810D01*
X125837628Y-113034208D01*
X125837773Y-113034076D01*
X125858058Y-113017429D01*
X125858384Y-113017211D01*
X125879281Y-113006041D01*
X125879643Y-113005891D01*
X125902316Y-112999013D01*
X125902701Y-112998937D01*
X125932424Y-112996010D01*
X125932620Y-112996000D01*
X125953980Y-112996000D01*
X125955712Y-112997000D01*
X125955712Y-112999000D01*
X125954176Y-112999990D01*
X125925310Y-113002833D01*
X125897737Y-113011197D01*
X125872327Y-113024779D01*
X125850056Y-113043056D01*
X125831779Y-113065327D01*
X125818197Y-113090737D01*
X125809833Y-113118310D01*
X125807000Y-113147074D01*
X125807000Y-114510926D01*
X125809833Y-114539690D01*
X125818197Y-114567263D01*
X125831779Y-114592673D01*
X125850056Y-114614944D01*
X125872327Y-114633221D01*
X125897737Y-114646803D01*
X125925310Y-114655167D01*
X125954176Y-114658010D01*
X125955802Y-114659175D01*
X125955606Y-114661165D01*
X125953980Y-114662000D01*
X125932620Y-114662000D01*
X125932424Y-114661990D01*
X125902701Y-114659063D01*
X125902316Y-114658987D01*
X125879643Y-114652109D01*
X125879281Y-114651959D01*
X125858384Y-114640789D01*
X125858058Y-114640571D01*
X125837771Y-114623923D01*
X125837626Y-114623791D01*
X125824023Y-114610188D01*
X125803976Y-114596794D01*
X125781702Y-114587568D01*
X125758051Y-114582864D01*
X125733945Y-114582864D01*
X125710295Y-114587569D01*
X125688022Y-114596795D01*
X125667974Y-114610190D01*
X125654372Y-114623792D01*
X125654227Y-114623924D01*
X125633942Y-114640571D01*
X125633616Y-114640789D01*
X125612719Y-114651959D01*
X125612357Y-114652109D01*
X125589684Y-114658987D01*
X125589299Y-114659063D01*
X125559576Y-114661990D01*
X125559380Y-114662000D01*
X125538020Y-114662000D01*
X125536288Y-114661000D01*
X125536288Y-114659000D01*
X125537824Y-114658010D01*
X125566690Y-114655167D01*
X125594263Y-114646803D01*
X125619673Y-114633221D01*
X125641944Y-114614944D01*
X125660221Y-114592673D01*
X125673803Y-114567263D01*
X125682167Y-114539690D01*
X125685000Y-114510926D01*
X125685000Y-113147074D01*
X125682167Y-113118310D01*
X125673803Y-113090737D01*
X125660221Y-113065327D01*
X125641944Y-113043056D01*
X125619673Y-113024779D01*
X125594263Y-113011197D01*
X125566690Y-113002833D01*
X125537824Y-112999990D01*
X125536198Y-112998825D01*
X125536394Y-112996835D01*
X125538020Y-112996000D01*
X125559380Y-112996000D01*
X125559576Y-112996010D01*
G37*
G36*
X124059576Y-112996010D02*
G01*
X124089299Y-112998937D01*
X124089684Y-112999013D01*
X124112357Y-113005891D01*
X124112719Y-113006041D01*
X124133616Y-113017211D01*
X124133942Y-113017429D01*
X124154229Y-113034077D01*
X124154374Y-113034209D01*
X124167977Y-113047812D01*
X124188024Y-113061206D01*
X124210298Y-113070432D01*
X124233949Y-113075136D01*
X124258055Y-113075136D01*
X124281705Y-113070431D01*
X124303978Y-113061205D01*
X124324026Y-113047810D01*
X124337628Y-113034208D01*
X124337773Y-113034076D01*
X124358058Y-113017429D01*
X124358384Y-113017211D01*
X124379281Y-113006041D01*
X124379643Y-113005891D01*
X124402316Y-112999013D01*
X124402701Y-112998937D01*
X124432424Y-112996010D01*
X124432620Y-112996000D01*
X124453980Y-112996000D01*
X124455712Y-112997000D01*
X124455712Y-112999000D01*
X124454176Y-112999990D01*
X124425310Y-113002833D01*
X124397737Y-113011197D01*
X124372327Y-113024779D01*
X124350056Y-113043056D01*
X124331779Y-113065327D01*
X124318197Y-113090737D01*
X124309833Y-113118310D01*
X124307000Y-113147074D01*
X124307000Y-114510926D01*
X124309833Y-114539690D01*
X124318197Y-114567263D01*
X124331779Y-114592673D01*
X124350056Y-114614944D01*
X124372327Y-114633221D01*
X124397737Y-114646803D01*
X124425310Y-114655167D01*
X124454176Y-114658010D01*
X124455802Y-114659175D01*
X124455606Y-114661165D01*
X124453980Y-114662000D01*
X124432620Y-114662000D01*
X124432424Y-114661990D01*
X124402701Y-114659063D01*
X124402316Y-114658987D01*
X124379643Y-114652109D01*
X124379281Y-114651959D01*
X124358384Y-114640789D01*
X124358058Y-114640571D01*
X124337771Y-114623923D01*
X124337626Y-114623791D01*
X124324023Y-114610188D01*
X124303976Y-114596794D01*
X124281702Y-114587568D01*
X124258051Y-114582864D01*
X124233945Y-114582864D01*
X124210295Y-114587569D01*
X124188022Y-114596795D01*
X124167974Y-114610190D01*
X124154372Y-114623792D01*
X124154227Y-114623924D01*
X124133942Y-114640571D01*
X124133616Y-114640789D01*
X124112719Y-114651959D01*
X124112357Y-114652109D01*
X124089684Y-114658987D01*
X124089299Y-114659063D01*
X124059576Y-114661990D01*
X124059380Y-114662000D01*
X124038020Y-114662000D01*
X124036288Y-114661000D01*
X124036288Y-114659000D01*
X124037824Y-114658010D01*
X124066690Y-114655167D01*
X124094263Y-114646803D01*
X124119673Y-114633221D01*
X124141944Y-114614944D01*
X124160221Y-114592673D01*
X124173803Y-114567263D01*
X124182167Y-114539690D01*
X124185000Y-114510926D01*
X124185000Y-113147074D01*
X124182167Y-113118310D01*
X124173803Y-113090737D01*
X124160221Y-113065327D01*
X124141944Y-113043056D01*
X124119673Y-113024779D01*
X124094263Y-113011197D01*
X124066690Y-113002833D01*
X124037824Y-112999990D01*
X124036198Y-112998825D01*
X124036394Y-112996835D01*
X124038020Y-112996000D01*
X124059380Y-112996000D01*
X124059576Y-112996010D01*
G37*
G36*
X128559576Y-112996010D02*
G01*
X128589299Y-112998937D01*
X128589684Y-112999013D01*
X128612357Y-113005891D01*
X128612719Y-113006041D01*
X128633616Y-113017211D01*
X128633942Y-113017429D01*
X128654229Y-113034077D01*
X128654374Y-113034209D01*
X128667977Y-113047812D01*
X128688024Y-113061206D01*
X128710298Y-113070432D01*
X128733949Y-113075136D01*
X128758055Y-113075136D01*
X128781705Y-113070431D01*
X128803978Y-113061205D01*
X128824026Y-113047810D01*
X128837628Y-113034208D01*
X128837773Y-113034076D01*
X128858058Y-113017429D01*
X128858384Y-113017211D01*
X128879281Y-113006041D01*
X128879643Y-113005891D01*
X128902316Y-112999013D01*
X128902701Y-112998937D01*
X128932424Y-112996010D01*
X128932620Y-112996000D01*
X128953980Y-112996000D01*
X128955712Y-112997000D01*
X128955712Y-112999000D01*
X128954176Y-112999990D01*
X128925310Y-113002833D01*
X128897737Y-113011197D01*
X128872327Y-113024779D01*
X128850056Y-113043056D01*
X128831779Y-113065327D01*
X128818197Y-113090737D01*
X128809833Y-113118310D01*
X128807000Y-113147074D01*
X128807000Y-114510926D01*
X128809833Y-114539690D01*
X128818197Y-114567263D01*
X128831779Y-114592673D01*
X128850056Y-114614944D01*
X128872327Y-114633221D01*
X128897737Y-114646803D01*
X128925310Y-114655167D01*
X128954176Y-114658010D01*
X128955802Y-114659175D01*
X128955606Y-114661165D01*
X128953980Y-114662000D01*
X128932620Y-114662000D01*
X128932424Y-114661990D01*
X128902701Y-114659063D01*
X128902316Y-114658987D01*
X128879643Y-114652109D01*
X128879281Y-114651959D01*
X128858384Y-114640789D01*
X128858058Y-114640571D01*
X128837771Y-114623923D01*
X128837626Y-114623791D01*
X128824023Y-114610188D01*
X128803976Y-114596794D01*
X128781702Y-114587568D01*
X128758051Y-114582864D01*
X128733945Y-114582864D01*
X128710295Y-114587569D01*
X128688022Y-114596795D01*
X128667974Y-114610190D01*
X128654372Y-114623792D01*
X128654227Y-114623924D01*
X128633942Y-114640571D01*
X128633616Y-114640789D01*
X128612719Y-114651959D01*
X128612357Y-114652109D01*
X128589684Y-114658987D01*
X128589299Y-114659063D01*
X128559576Y-114661990D01*
X128559380Y-114662000D01*
X128538020Y-114662000D01*
X128536288Y-114661000D01*
X128536288Y-114659000D01*
X128537824Y-114658010D01*
X128566690Y-114655167D01*
X128594263Y-114646803D01*
X128619673Y-114633221D01*
X128641944Y-114614944D01*
X128660221Y-114592673D01*
X128673803Y-114567263D01*
X128682167Y-114539690D01*
X128685000Y-114510926D01*
X128685000Y-113147074D01*
X128682167Y-113118310D01*
X128673803Y-113090737D01*
X128660221Y-113065327D01*
X128641944Y-113043056D01*
X128619673Y-113024779D01*
X128594263Y-113011197D01*
X128566690Y-113002833D01*
X128537824Y-112999990D01*
X128536198Y-112998825D01*
X128536394Y-112996835D01*
X128538020Y-112996000D01*
X128559380Y-112996000D01*
X128559576Y-112996010D01*
G37*
G36*
X126059576Y-112996010D02*
G01*
X126089299Y-112998937D01*
X126089684Y-112999013D01*
X126112357Y-113005891D01*
X126112719Y-113006041D01*
X126133616Y-113017211D01*
X126133942Y-113017429D01*
X126154229Y-113034077D01*
X126154374Y-113034209D01*
X126167977Y-113047812D01*
X126188024Y-113061206D01*
X126210298Y-113070432D01*
X126233949Y-113075136D01*
X126258055Y-113075136D01*
X126281705Y-113070431D01*
X126303978Y-113061205D01*
X126324026Y-113047810D01*
X126337628Y-113034208D01*
X126337773Y-113034076D01*
X126358058Y-113017429D01*
X126358384Y-113017211D01*
X126379281Y-113006041D01*
X126379643Y-113005891D01*
X126402316Y-112999013D01*
X126402701Y-112998937D01*
X126432424Y-112996010D01*
X126432620Y-112996000D01*
X126453980Y-112996000D01*
X126455712Y-112997000D01*
X126455712Y-112999000D01*
X126454176Y-112999990D01*
X126425310Y-113002833D01*
X126397737Y-113011197D01*
X126372327Y-113024779D01*
X126350056Y-113043056D01*
X126331779Y-113065327D01*
X126318197Y-113090737D01*
X126309833Y-113118310D01*
X126307000Y-113147074D01*
X126307000Y-114510926D01*
X126309833Y-114539690D01*
X126318197Y-114567263D01*
X126331779Y-114592673D01*
X126350056Y-114614944D01*
X126372327Y-114633221D01*
X126397737Y-114646803D01*
X126425310Y-114655167D01*
X126454176Y-114658010D01*
X126455802Y-114659175D01*
X126455606Y-114661165D01*
X126453980Y-114662000D01*
X126432620Y-114662000D01*
X126432424Y-114661990D01*
X126402701Y-114659063D01*
X126402316Y-114658987D01*
X126379643Y-114652109D01*
X126379281Y-114651959D01*
X126358384Y-114640789D01*
X126358058Y-114640571D01*
X126337771Y-114623923D01*
X126337626Y-114623791D01*
X126324023Y-114610188D01*
X126303976Y-114596794D01*
X126281702Y-114587568D01*
X126258051Y-114582864D01*
X126233945Y-114582864D01*
X126210295Y-114587569D01*
X126188022Y-114596795D01*
X126167974Y-114610190D01*
X126154372Y-114623792D01*
X126154227Y-114623924D01*
X126133942Y-114640571D01*
X126133616Y-114640789D01*
X126112719Y-114651959D01*
X126112357Y-114652109D01*
X126089684Y-114658987D01*
X126089299Y-114659063D01*
X126059576Y-114661990D01*
X126059380Y-114662000D01*
X126038020Y-114662000D01*
X126036288Y-114661000D01*
X126036288Y-114659000D01*
X126037824Y-114658010D01*
X126066690Y-114655167D01*
X126094263Y-114646803D01*
X126119673Y-114633221D01*
X126141944Y-114614944D01*
X126160221Y-114592673D01*
X126173803Y-114567263D01*
X126182167Y-114539690D01*
X126185000Y-114510926D01*
X126185000Y-113147074D01*
X126182167Y-113118310D01*
X126173803Y-113090737D01*
X126160221Y-113065327D01*
X126141944Y-113043056D01*
X126119673Y-113024779D01*
X126094263Y-113011197D01*
X126066690Y-113002833D01*
X126037824Y-112999990D01*
X126036198Y-112998825D01*
X126036394Y-112996835D01*
X126038020Y-112996000D01*
X126059380Y-112996000D01*
X126059576Y-112996010D01*
G37*
G36*
X131758165Y-111939394D02*
G01*
X131759000Y-111941020D01*
X131759000Y-111962380D01*
X131758990Y-111962576D01*
X131756063Y-111992299D01*
X131755987Y-111992684D01*
X131749109Y-112015357D01*
X131748959Y-112015719D01*
X131737789Y-112036616D01*
X131737571Y-112036942D01*
X131720923Y-112057229D01*
X131720791Y-112057374D01*
X131707188Y-112070977D01*
X131693794Y-112091024D01*
X131684568Y-112113298D01*
X131679864Y-112136949D01*
X131679864Y-112161055D01*
X131684569Y-112184705D01*
X131693795Y-112206978D01*
X131707190Y-112227026D01*
X131720792Y-112240628D01*
X131720924Y-112240773D01*
X131737571Y-112261058D01*
X131737789Y-112261384D01*
X131748959Y-112282281D01*
X131749109Y-112282643D01*
X131755987Y-112305316D01*
X131756063Y-112305701D01*
X131758990Y-112335424D01*
X131759000Y-112335620D01*
X131759000Y-112356980D01*
X131758000Y-112358712D01*
X131756000Y-112358712D01*
X131755010Y-112357176D01*
X131752167Y-112328310D01*
X131743803Y-112300737D01*
X131730221Y-112275327D01*
X131711944Y-112253056D01*
X131689673Y-112234779D01*
X131664263Y-112221197D01*
X131636690Y-112212833D01*
X131607926Y-112210000D01*
X130244074Y-112210000D01*
X130215310Y-112212833D01*
X130187737Y-112221197D01*
X130162327Y-112234779D01*
X130140056Y-112253056D01*
X130121779Y-112275327D01*
X130108197Y-112300737D01*
X130099833Y-112328310D01*
X130096990Y-112357176D01*
X130095825Y-112358802D01*
X130093835Y-112358606D01*
X130093000Y-112356980D01*
X130093000Y-112335620D01*
X130093010Y-112335424D01*
X130095937Y-112305701D01*
X130096013Y-112305316D01*
X130102891Y-112282643D01*
X130103041Y-112282281D01*
X130114211Y-112261384D01*
X130114429Y-112261058D01*
X130131077Y-112240771D01*
X130131209Y-112240626D01*
X130144812Y-112227023D01*
X130158206Y-112206976D01*
X130167432Y-112184702D01*
X130172136Y-112161051D01*
X130172136Y-112136945D01*
X130167431Y-112113295D01*
X130158205Y-112091022D01*
X130144810Y-112070974D01*
X130131208Y-112057372D01*
X130131076Y-112057227D01*
X130114429Y-112036942D01*
X130114211Y-112036616D01*
X130103041Y-112015719D01*
X130102891Y-112015357D01*
X130096013Y-111992684D01*
X130095937Y-111992299D01*
X130093010Y-111962576D01*
X130093000Y-111962380D01*
X130093000Y-111941020D01*
X130094000Y-111939288D01*
X130096000Y-111939288D01*
X130096990Y-111940824D01*
X130099833Y-111969690D01*
X130108197Y-111997263D01*
X130121779Y-112022673D01*
X130140056Y-112044944D01*
X130162327Y-112063221D01*
X130187737Y-112076803D01*
X130215310Y-112085167D01*
X130244074Y-112088000D01*
X131607926Y-112088000D01*
X131636690Y-112085167D01*
X131664263Y-112076803D01*
X131689673Y-112063221D01*
X131711944Y-112044944D01*
X131730221Y-112022673D01*
X131743803Y-111997263D01*
X131752167Y-111969690D01*
X131755010Y-111940824D01*
X131756175Y-111939198D01*
X131758165Y-111939394D01*
G37*
G36*
X123398165Y-111939394D02*
G01*
X123399000Y-111941020D01*
X123399000Y-111962380D01*
X123398990Y-111962576D01*
X123396063Y-111992299D01*
X123395987Y-111992684D01*
X123389109Y-112015357D01*
X123388959Y-112015719D01*
X123377789Y-112036616D01*
X123377571Y-112036942D01*
X123360923Y-112057229D01*
X123360791Y-112057374D01*
X123347188Y-112070977D01*
X123333794Y-112091024D01*
X123324568Y-112113298D01*
X123319864Y-112136949D01*
X123319864Y-112161055D01*
X123324569Y-112184705D01*
X123333795Y-112206978D01*
X123347190Y-112227026D01*
X123360792Y-112240628D01*
X123360924Y-112240773D01*
X123377571Y-112261058D01*
X123377789Y-112261384D01*
X123388959Y-112282281D01*
X123389109Y-112282643D01*
X123395987Y-112305316D01*
X123396063Y-112305701D01*
X123398990Y-112335424D01*
X123399000Y-112335620D01*
X123399000Y-112356980D01*
X123398000Y-112358712D01*
X123396000Y-112358712D01*
X123395010Y-112357176D01*
X123392167Y-112328310D01*
X123383803Y-112300737D01*
X123370221Y-112275327D01*
X123351944Y-112253056D01*
X123329673Y-112234779D01*
X123304263Y-112221197D01*
X123276690Y-112212833D01*
X123247926Y-112210000D01*
X121884074Y-112210000D01*
X121855310Y-112212833D01*
X121827737Y-112221197D01*
X121802327Y-112234779D01*
X121780056Y-112253056D01*
X121761779Y-112275327D01*
X121748197Y-112300737D01*
X121739833Y-112328310D01*
X121736990Y-112357176D01*
X121735825Y-112358802D01*
X121733835Y-112358606D01*
X121733000Y-112356980D01*
X121733000Y-112335620D01*
X121733010Y-112335424D01*
X121735937Y-112305701D01*
X121736013Y-112305316D01*
X121742891Y-112282643D01*
X121743041Y-112282281D01*
X121754211Y-112261384D01*
X121754429Y-112261058D01*
X121771077Y-112240771D01*
X121771209Y-112240626D01*
X121784812Y-112227023D01*
X121798206Y-112206976D01*
X121807432Y-112184702D01*
X121812136Y-112161051D01*
X121812136Y-112136945D01*
X121807431Y-112113295D01*
X121798205Y-112091022D01*
X121784810Y-112070974D01*
X121771208Y-112057372D01*
X121771076Y-112057227D01*
X121754429Y-112036942D01*
X121754211Y-112036616D01*
X121743041Y-112015719D01*
X121742891Y-112015357D01*
X121736013Y-111992684D01*
X121735937Y-111992299D01*
X121733010Y-111962576D01*
X121733000Y-111962380D01*
X121733000Y-111941020D01*
X121734000Y-111939288D01*
X121736000Y-111939288D01*
X121736990Y-111940824D01*
X121739833Y-111969690D01*
X121748197Y-111997263D01*
X121761779Y-112022673D01*
X121780056Y-112044944D01*
X121802327Y-112063221D01*
X121827737Y-112076803D01*
X121855310Y-112085167D01*
X121884074Y-112088000D01*
X123247926Y-112088000D01*
X123276690Y-112085167D01*
X123304263Y-112076803D01*
X123329673Y-112063221D01*
X123351944Y-112044944D01*
X123370221Y-112022673D01*
X123383803Y-111997263D01*
X123392167Y-111969690D01*
X123395010Y-111940824D01*
X123396175Y-111939198D01*
X123398165Y-111939394D01*
G37*
G36*
X131758165Y-111439394D02*
G01*
X131759000Y-111441020D01*
X131759000Y-111462380D01*
X131758990Y-111462576D01*
X131756063Y-111492299D01*
X131755987Y-111492684D01*
X131749109Y-111515357D01*
X131748959Y-111515719D01*
X131737789Y-111536616D01*
X131737571Y-111536942D01*
X131720923Y-111557229D01*
X131720791Y-111557374D01*
X131707188Y-111570977D01*
X131693794Y-111591024D01*
X131684568Y-111613298D01*
X131679864Y-111636949D01*
X131679864Y-111661055D01*
X131684569Y-111684705D01*
X131693795Y-111706978D01*
X131707190Y-111727026D01*
X131720792Y-111740628D01*
X131720924Y-111740773D01*
X131737571Y-111761058D01*
X131737789Y-111761384D01*
X131748959Y-111782281D01*
X131749109Y-111782643D01*
X131755987Y-111805316D01*
X131756063Y-111805701D01*
X131758990Y-111835424D01*
X131759000Y-111835620D01*
X131759000Y-111856980D01*
X131758000Y-111858712D01*
X131756000Y-111858712D01*
X131755010Y-111857176D01*
X131752167Y-111828310D01*
X131743803Y-111800737D01*
X131730221Y-111775327D01*
X131711944Y-111753056D01*
X131689673Y-111734779D01*
X131664263Y-111721197D01*
X131636690Y-111712833D01*
X131607926Y-111710000D01*
X130244074Y-111710000D01*
X130215310Y-111712833D01*
X130187737Y-111721197D01*
X130162327Y-111734779D01*
X130140056Y-111753056D01*
X130121779Y-111775327D01*
X130108197Y-111800737D01*
X130099833Y-111828310D01*
X130096990Y-111857176D01*
X130095825Y-111858802D01*
X130093835Y-111858606D01*
X130093000Y-111856980D01*
X130093000Y-111835620D01*
X130093010Y-111835424D01*
X130095937Y-111805701D01*
X130096013Y-111805316D01*
X130102891Y-111782643D01*
X130103041Y-111782281D01*
X130114211Y-111761384D01*
X130114429Y-111761058D01*
X130131077Y-111740771D01*
X130131209Y-111740626D01*
X130144812Y-111727023D01*
X130158206Y-111706976D01*
X130167432Y-111684702D01*
X130172136Y-111661051D01*
X130172136Y-111636945D01*
X130167431Y-111613295D01*
X130158205Y-111591022D01*
X130144810Y-111570974D01*
X130131208Y-111557372D01*
X130131076Y-111557227D01*
X130114429Y-111536942D01*
X130114211Y-111536616D01*
X130103041Y-111515719D01*
X130102891Y-111515357D01*
X130096013Y-111492684D01*
X130095937Y-111492299D01*
X130093010Y-111462576D01*
X130093000Y-111462380D01*
X130093000Y-111441020D01*
X130094000Y-111439288D01*
X130096000Y-111439288D01*
X130096990Y-111440824D01*
X130099833Y-111469690D01*
X130108197Y-111497263D01*
X130121779Y-111522673D01*
X130140056Y-111544944D01*
X130162327Y-111563221D01*
X130187737Y-111576803D01*
X130215310Y-111585167D01*
X130244074Y-111588000D01*
X131607926Y-111588000D01*
X131636690Y-111585167D01*
X131664263Y-111576803D01*
X131689673Y-111563221D01*
X131711944Y-111544944D01*
X131730221Y-111522673D01*
X131743803Y-111497263D01*
X131752167Y-111469690D01*
X131755010Y-111440824D01*
X131756175Y-111439198D01*
X131758165Y-111439394D01*
G37*
G36*
X123398165Y-111439394D02*
G01*
X123399000Y-111441020D01*
X123399000Y-111462380D01*
X123398990Y-111462576D01*
X123396063Y-111492299D01*
X123395987Y-111492684D01*
X123389109Y-111515357D01*
X123388959Y-111515719D01*
X123377789Y-111536616D01*
X123377571Y-111536942D01*
X123360923Y-111557229D01*
X123360791Y-111557374D01*
X123347188Y-111570977D01*
X123333794Y-111591024D01*
X123324568Y-111613298D01*
X123319864Y-111636949D01*
X123319864Y-111661055D01*
X123324569Y-111684705D01*
X123333795Y-111706978D01*
X123347190Y-111727026D01*
X123360792Y-111740628D01*
X123360924Y-111740773D01*
X123377571Y-111761058D01*
X123377789Y-111761384D01*
X123388959Y-111782281D01*
X123389109Y-111782643D01*
X123395987Y-111805316D01*
X123396063Y-111805701D01*
X123398990Y-111835424D01*
X123399000Y-111835620D01*
X123399000Y-111856980D01*
X123398000Y-111858712D01*
X123396000Y-111858712D01*
X123395010Y-111857176D01*
X123392167Y-111828310D01*
X123383803Y-111800737D01*
X123370221Y-111775327D01*
X123351944Y-111753056D01*
X123329673Y-111734779D01*
X123304263Y-111721197D01*
X123276690Y-111712833D01*
X123247926Y-111710000D01*
X121884074Y-111710000D01*
X121855310Y-111712833D01*
X121827737Y-111721197D01*
X121802327Y-111734779D01*
X121780056Y-111753056D01*
X121761779Y-111775327D01*
X121748197Y-111800737D01*
X121739833Y-111828310D01*
X121736990Y-111857176D01*
X121735825Y-111858802D01*
X121733835Y-111858606D01*
X121733000Y-111856980D01*
X121733000Y-111835620D01*
X121733010Y-111835424D01*
X121735937Y-111805701D01*
X121736013Y-111805316D01*
X121742891Y-111782643D01*
X121743041Y-111782281D01*
X121754211Y-111761384D01*
X121754429Y-111761058D01*
X121771077Y-111740771D01*
X121771209Y-111740626D01*
X121784812Y-111727023D01*
X121798206Y-111706976D01*
X121807432Y-111684702D01*
X121812136Y-111661051D01*
X121812136Y-111636945D01*
X121807431Y-111613295D01*
X121798205Y-111591022D01*
X121784810Y-111570974D01*
X121771208Y-111557372D01*
X121771076Y-111557227D01*
X121754429Y-111536942D01*
X121754211Y-111536616D01*
X121743041Y-111515719D01*
X121742891Y-111515357D01*
X121736013Y-111492684D01*
X121735937Y-111492299D01*
X121733010Y-111462576D01*
X121733000Y-111462380D01*
X121733000Y-111441020D01*
X121734000Y-111439288D01*
X121736000Y-111439288D01*
X121736990Y-111440824D01*
X121739833Y-111469690D01*
X121748197Y-111497263D01*
X121761779Y-111522673D01*
X121780056Y-111544944D01*
X121802327Y-111563221D01*
X121827737Y-111576803D01*
X121855310Y-111585167D01*
X121884074Y-111588000D01*
X123247926Y-111588000D01*
X123276690Y-111585167D01*
X123304263Y-111576803D01*
X123329673Y-111563221D01*
X123351944Y-111544944D01*
X123370221Y-111522673D01*
X123383803Y-111497263D01*
X123392167Y-111469690D01*
X123395010Y-111440824D01*
X123396175Y-111439198D01*
X123398165Y-111439394D01*
G37*
G36*
X131758165Y-110939394D02*
G01*
X131759000Y-110941020D01*
X131759000Y-110962380D01*
X131758990Y-110962576D01*
X131756063Y-110992299D01*
X131755987Y-110992684D01*
X131749109Y-111015357D01*
X131748959Y-111015719D01*
X131737789Y-111036616D01*
X131737571Y-111036942D01*
X131720923Y-111057229D01*
X131720791Y-111057374D01*
X131707188Y-111070977D01*
X131693794Y-111091024D01*
X131684568Y-111113298D01*
X131679864Y-111136949D01*
X131679864Y-111161055D01*
X131684569Y-111184705D01*
X131693795Y-111206978D01*
X131707190Y-111227026D01*
X131720792Y-111240628D01*
X131720924Y-111240773D01*
X131737571Y-111261058D01*
X131737789Y-111261384D01*
X131748959Y-111282281D01*
X131749109Y-111282643D01*
X131755987Y-111305316D01*
X131756063Y-111305701D01*
X131758990Y-111335424D01*
X131759000Y-111335620D01*
X131759000Y-111356980D01*
X131758000Y-111358712D01*
X131756000Y-111358712D01*
X131755010Y-111357176D01*
X131752167Y-111328310D01*
X131743803Y-111300737D01*
X131730221Y-111275327D01*
X131711944Y-111253056D01*
X131689673Y-111234779D01*
X131664263Y-111221197D01*
X131636690Y-111212833D01*
X131607926Y-111210000D01*
X130244074Y-111210000D01*
X130215310Y-111212833D01*
X130187737Y-111221197D01*
X130162327Y-111234779D01*
X130140056Y-111253056D01*
X130121779Y-111275327D01*
X130108197Y-111300737D01*
X130099833Y-111328310D01*
X130096990Y-111357176D01*
X130095825Y-111358802D01*
X130093835Y-111358606D01*
X130093000Y-111356980D01*
X130093000Y-111335620D01*
X130093010Y-111335424D01*
X130095937Y-111305701D01*
X130096013Y-111305316D01*
X130102891Y-111282643D01*
X130103041Y-111282281D01*
X130114211Y-111261384D01*
X130114429Y-111261058D01*
X130131077Y-111240771D01*
X130131209Y-111240626D01*
X130144812Y-111227023D01*
X130158206Y-111206976D01*
X130167432Y-111184702D01*
X130172136Y-111161051D01*
X130172136Y-111136945D01*
X130167431Y-111113295D01*
X130158205Y-111091022D01*
X130144810Y-111070974D01*
X130131208Y-111057372D01*
X130131076Y-111057227D01*
X130114429Y-111036942D01*
X130114211Y-111036616D01*
X130103041Y-111015719D01*
X130102891Y-111015357D01*
X130096013Y-110992684D01*
X130095937Y-110992299D01*
X130093010Y-110962576D01*
X130093000Y-110962380D01*
X130093000Y-110941020D01*
X130094000Y-110939288D01*
X130096000Y-110939288D01*
X130096990Y-110940824D01*
X130099833Y-110969690D01*
X130108197Y-110997263D01*
X130121779Y-111022673D01*
X130140056Y-111044944D01*
X130162327Y-111063221D01*
X130187737Y-111076803D01*
X130215310Y-111085167D01*
X130244074Y-111088000D01*
X131607926Y-111088000D01*
X131636690Y-111085167D01*
X131664263Y-111076803D01*
X131689673Y-111063221D01*
X131711944Y-111044944D01*
X131730221Y-111022673D01*
X131743803Y-110997263D01*
X131752167Y-110969690D01*
X131755010Y-110940824D01*
X131756175Y-110939198D01*
X131758165Y-110939394D01*
G37*
G36*
X123398165Y-110939394D02*
G01*
X123399000Y-110941020D01*
X123399000Y-110962380D01*
X123398990Y-110962576D01*
X123396063Y-110992299D01*
X123395987Y-110992684D01*
X123389109Y-111015357D01*
X123388959Y-111015719D01*
X123377789Y-111036616D01*
X123377571Y-111036942D01*
X123360923Y-111057229D01*
X123360791Y-111057374D01*
X123347188Y-111070977D01*
X123333794Y-111091024D01*
X123324568Y-111113298D01*
X123319864Y-111136949D01*
X123319864Y-111161055D01*
X123324569Y-111184705D01*
X123333795Y-111206978D01*
X123347190Y-111227026D01*
X123360792Y-111240628D01*
X123360924Y-111240773D01*
X123377571Y-111261058D01*
X123377789Y-111261384D01*
X123388959Y-111282281D01*
X123389109Y-111282643D01*
X123395987Y-111305316D01*
X123396063Y-111305701D01*
X123398990Y-111335424D01*
X123399000Y-111335620D01*
X123399000Y-111356980D01*
X123398000Y-111358712D01*
X123396000Y-111358712D01*
X123395010Y-111357176D01*
X123392167Y-111328310D01*
X123383803Y-111300737D01*
X123370221Y-111275327D01*
X123351944Y-111253056D01*
X123329673Y-111234779D01*
X123304263Y-111221197D01*
X123276690Y-111212833D01*
X123247926Y-111210000D01*
X121884074Y-111210000D01*
X121855310Y-111212833D01*
X121827737Y-111221197D01*
X121802327Y-111234779D01*
X121780056Y-111253056D01*
X121761779Y-111275327D01*
X121748197Y-111300737D01*
X121739833Y-111328310D01*
X121736990Y-111357176D01*
X121735825Y-111358802D01*
X121733835Y-111358606D01*
X121733000Y-111356980D01*
X121733000Y-111335620D01*
X121733010Y-111335424D01*
X121735937Y-111305701D01*
X121736013Y-111305316D01*
X121742891Y-111282643D01*
X121743041Y-111282281D01*
X121754211Y-111261384D01*
X121754429Y-111261058D01*
X121771077Y-111240771D01*
X121771209Y-111240626D01*
X121784812Y-111227023D01*
X121798206Y-111206976D01*
X121807432Y-111184702D01*
X121812136Y-111161051D01*
X121812136Y-111136945D01*
X121807431Y-111113295D01*
X121798205Y-111091022D01*
X121784810Y-111070974D01*
X121771208Y-111057372D01*
X121771076Y-111057227D01*
X121754429Y-111036942D01*
X121754211Y-111036616D01*
X121743041Y-111015719D01*
X121742891Y-111015357D01*
X121736013Y-110992684D01*
X121735937Y-110992299D01*
X121733010Y-110962576D01*
X121733000Y-110962380D01*
X121733000Y-110941020D01*
X121734000Y-110939288D01*
X121736000Y-110939288D01*
X121736990Y-110940824D01*
X121739833Y-110969690D01*
X121748197Y-110997263D01*
X121761779Y-111022673D01*
X121780056Y-111044944D01*
X121802327Y-111063221D01*
X121827737Y-111076803D01*
X121855310Y-111085167D01*
X121884074Y-111088000D01*
X123247926Y-111088000D01*
X123276690Y-111085167D01*
X123304263Y-111076803D01*
X123329673Y-111063221D01*
X123351944Y-111044944D01*
X123370221Y-111022673D01*
X123383803Y-110997263D01*
X123392167Y-110969690D01*
X123395010Y-110940824D01*
X123396175Y-110939198D01*
X123398165Y-110939394D01*
G37*
G36*
X150566084Y-109889979D02*
G01*
X150567000Y-109891660D01*
X150567000Y-111154340D01*
X150566000Y-111156072D01*
X150564000Y-111156072D01*
X150563010Y-111154536D01*
X150560628Y-111130349D01*
X150553628Y-111107274D01*
X150542263Y-111086010D01*
X150526968Y-111067373D01*
X150508331Y-111052078D01*
X150487067Y-111040713D01*
X150463992Y-111033713D01*
X150440001Y-111031350D01*
X150416010Y-111033713D01*
X150392935Y-111040713D01*
X150371715Y-111052055D01*
X150347757Y-111073769D01*
X150345802Y-111074191D01*
X150344459Y-111072709D01*
X150344868Y-111071018D01*
X150348255Y-111066892D01*
X150401298Y-110967657D01*
X150433962Y-110859977D01*
X150445000Y-110747906D01*
X150445000Y-110298095D01*
X150433962Y-110186023D01*
X150401298Y-110078343D01*
X150348255Y-109979108D01*
X150346170Y-109976568D01*
X150345844Y-109974594D01*
X150347390Y-109973326D01*
X150349130Y-109973885D01*
X150361976Y-109986731D01*
X150382024Y-110000126D01*
X150404297Y-110009353D01*
X150427948Y-110014057D01*
X150452054Y-110014057D01*
X150475704Y-110009353D01*
X150497978Y-110000126D01*
X150518025Y-109986732D01*
X150535072Y-109969685D01*
X150548467Y-109949637D01*
X150557694Y-109927364D01*
X150562407Y-109903667D01*
X150563002Y-109891562D01*
X150564086Y-109889881D01*
X150566084Y-109889979D01*
G37*
G36*
X149130836Y-110069013D02*
G01*
X149140929Y-110084118D01*
X149157976Y-110101165D01*
X149178024Y-110114560D01*
X149200298Y-110123786D01*
X149223948Y-110128490D01*
X149248054Y-110128490D01*
X149271704Y-110123785D01*
X149293978Y-110114559D01*
X149314025Y-110101164D01*
X149331072Y-110084117D01*
X149341164Y-110069013D01*
X149342958Y-110068128D01*
X149344621Y-110069239D01*
X149344591Y-110071067D01*
X149340702Y-110078343D01*
X149308038Y-110186023D01*
X149297000Y-110298094D01*
X149297000Y-110747906D01*
X149308038Y-110859976D01*
X149340702Y-110967656D01*
X149344591Y-110974932D01*
X149344525Y-110976931D01*
X149342762Y-110977874D01*
X149341164Y-110976986D01*
X149331071Y-110961881D01*
X149314024Y-110944834D01*
X149293976Y-110931439D01*
X149271702Y-110922213D01*
X149248052Y-110917509D01*
X149223946Y-110917509D01*
X149200296Y-110922214D01*
X149178022Y-110931440D01*
X149157975Y-110944835D01*
X149140928Y-110961882D01*
X149130839Y-110976982D01*
X149129045Y-110977867D01*
X149127382Y-110976756D01*
X149127412Y-110974928D01*
X149131298Y-110967657D01*
X149163962Y-110859977D01*
X149175000Y-110747906D01*
X149175000Y-110298095D01*
X149163962Y-110186023D01*
X149131298Y-110078343D01*
X149127409Y-110071067D01*
X149127475Y-110069068D01*
X149129238Y-110068125D01*
X149130836Y-110069013D01*
G37*
G36*
X131758165Y-110439394D02*
G01*
X131759000Y-110441020D01*
X131759000Y-110462380D01*
X131758990Y-110462576D01*
X131756063Y-110492299D01*
X131755987Y-110492684D01*
X131749109Y-110515357D01*
X131748959Y-110515719D01*
X131737789Y-110536616D01*
X131737571Y-110536942D01*
X131720923Y-110557229D01*
X131720791Y-110557374D01*
X131707188Y-110570977D01*
X131693794Y-110591024D01*
X131684568Y-110613298D01*
X131679864Y-110636949D01*
X131679864Y-110661055D01*
X131684569Y-110684705D01*
X131693795Y-110706978D01*
X131707190Y-110727026D01*
X131720792Y-110740628D01*
X131720924Y-110740773D01*
X131737571Y-110761058D01*
X131737789Y-110761384D01*
X131748959Y-110782281D01*
X131749109Y-110782643D01*
X131755987Y-110805316D01*
X131756063Y-110805701D01*
X131758990Y-110835424D01*
X131759000Y-110835620D01*
X131759000Y-110856980D01*
X131758000Y-110858712D01*
X131756000Y-110858712D01*
X131755010Y-110857176D01*
X131752167Y-110828310D01*
X131743803Y-110800737D01*
X131730221Y-110775327D01*
X131711944Y-110753056D01*
X131689673Y-110734779D01*
X131664263Y-110721197D01*
X131636690Y-110712833D01*
X131607926Y-110710000D01*
X130244074Y-110710000D01*
X130215310Y-110712833D01*
X130187737Y-110721197D01*
X130162327Y-110734779D01*
X130140056Y-110753056D01*
X130121779Y-110775327D01*
X130108197Y-110800737D01*
X130099833Y-110828310D01*
X130096990Y-110857176D01*
X130095825Y-110858802D01*
X130093835Y-110858606D01*
X130093000Y-110856980D01*
X130093000Y-110835620D01*
X130093010Y-110835424D01*
X130095937Y-110805701D01*
X130096013Y-110805316D01*
X130102891Y-110782643D01*
X130103041Y-110782281D01*
X130114211Y-110761384D01*
X130114429Y-110761058D01*
X130131077Y-110740771D01*
X130131209Y-110740626D01*
X130144812Y-110727023D01*
X130158206Y-110706976D01*
X130167432Y-110684702D01*
X130172136Y-110661051D01*
X130172136Y-110636945D01*
X130167431Y-110613295D01*
X130158205Y-110591022D01*
X130144810Y-110570974D01*
X130131208Y-110557372D01*
X130131076Y-110557227D01*
X130114429Y-110536942D01*
X130114211Y-110536616D01*
X130103041Y-110515719D01*
X130102891Y-110515357D01*
X130096013Y-110492684D01*
X130095937Y-110492299D01*
X130093010Y-110462576D01*
X130093000Y-110462380D01*
X130093000Y-110441020D01*
X130094000Y-110439288D01*
X130096000Y-110439288D01*
X130096990Y-110440824D01*
X130099833Y-110469690D01*
X130108197Y-110497263D01*
X130121779Y-110522673D01*
X130140056Y-110544944D01*
X130162327Y-110563221D01*
X130187737Y-110576803D01*
X130215310Y-110585167D01*
X130244074Y-110588000D01*
X131607926Y-110588000D01*
X131636690Y-110585167D01*
X131664263Y-110576803D01*
X131689673Y-110563221D01*
X131711944Y-110544944D01*
X131730221Y-110522673D01*
X131743803Y-110497263D01*
X131752167Y-110469690D01*
X131755010Y-110440824D01*
X131756175Y-110439198D01*
X131758165Y-110439394D01*
G37*
G36*
X123398165Y-110439394D02*
G01*
X123399000Y-110441020D01*
X123399000Y-110462380D01*
X123398990Y-110462576D01*
X123396063Y-110492299D01*
X123395987Y-110492684D01*
X123389109Y-110515357D01*
X123388959Y-110515719D01*
X123377789Y-110536616D01*
X123377571Y-110536942D01*
X123360923Y-110557229D01*
X123360791Y-110557374D01*
X123347188Y-110570977D01*
X123333794Y-110591024D01*
X123324568Y-110613298D01*
X123319864Y-110636949D01*
X123319864Y-110661055D01*
X123324569Y-110684705D01*
X123333795Y-110706978D01*
X123347190Y-110727026D01*
X123360792Y-110740628D01*
X123360924Y-110740773D01*
X123377571Y-110761058D01*
X123377789Y-110761384D01*
X123388959Y-110782281D01*
X123389109Y-110782643D01*
X123395987Y-110805316D01*
X123396063Y-110805701D01*
X123398990Y-110835424D01*
X123399000Y-110835620D01*
X123399000Y-110856980D01*
X123398000Y-110858712D01*
X123396000Y-110858712D01*
X123395010Y-110857176D01*
X123392167Y-110828310D01*
X123383803Y-110800737D01*
X123370221Y-110775327D01*
X123351944Y-110753056D01*
X123329673Y-110734779D01*
X123304263Y-110721197D01*
X123276690Y-110712833D01*
X123247926Y-110710000D01*
X121884074Y-110710000D01*
X121855310Y-110712833D01*
X121827737Y-110721197D01*
X121802327Y-110734779D01*
X121780056Y-110753056D01*
X121761779Y-110775327D01*
X121748197Y-110800737D01*
X121739833Y-110828310D01*
X121736990Y-110857176D01*
X121735825Y-110858802D01*
X121733835Y-110858606D01*
X121733000Y-110856980D01*
X121733000Y-110835620D01*
X121733010Y-110835424D01*
X121735937Y-110805701D01*
X121736013Y-110805316D01*
X121742891Y-110782643D01*
X121743041Y-110782281D01*
X121754211Y-110761384D01*
X121754429Y-110761058D01*
X121771077Y-110740771D01*
X121771209Y-110740626D01*
X121784812Y-110727023D01*
X121798206Y-110706976D01*
X121807432Y-110684702D01*
X121812136Y-110661051D01*
X121812136Y-110636945D01*
X121807431Y-110613295D01*
X121798205Y-110591022D01*
X121784810Y-110570974D01*
X121771208Y-110557372D01*
X121771076Y-110557227D01*
X121754429Y-110536942D01*
X121754211Y-110536616D01*
X121743041Y-110515719D01*
X121742891Y-110515357D01*
X121736013Y-110492684D01*
X121735937Y-110492299D01*
X121733010Y-110462576D01*
X121733000Y-110462380D01*
X121733000Y-110441020D01*
X121734000Y-110439288D01*
X121736000Y-110439288D01*
X121736990Y-110440824D01*
X121739833Y-110469690D01*
X121748197Y-110497263D01*
X121761779Y-110522673D01*
X121780056Y-110544944D01*
X121802327Y-110563221D01*
X121827737Y-110576803D01*
X121855310Y-110585167D01*
X121884074Y-110588000D01*
X123247926Y-110588000D01*
X123276690Y-110585167D01*
X123304263Y-110576803D01*
X123329673Y-110563221D01*
X123351944Y-110544944D01*
X123370221Y-110522673D01*
X123383803Y-110497263D01*
X123392167Y-110469690D01*
X123395010Y-110440824D01*
X123396175Y-110439198D01*
X123398165Y-110439394D01*
G37*
G36*
X123398165Y-109939394D02*
G01*
X123399000Y-109941020D01*
X123399000Y-109962380D01*
X123398990Y-109962576D01*
X123396063Y-109992299D01*
X123395987Y-109992684D01*
X123389109Y-110015357D01*
X123388959Y-110015719D01*
X123377789Y-110036616D01*
X123377571Y-110036942D01*
X123360923Y-110057229D01*
X123360791Y-110057374D01*
X123347188Y-110070977D01*
X123333794Y-110091024D01*
X123324568Y-110113298D01*
X123319864Y-110136949D01*
X123319864Y-110161055D01*
X123324569Y-110184705D01*
X123333795Y-110206978D01*
X123347190Y-110227026D01*
X123360792Y-110240628D01*
X123360924Y-110240773D01*
X123377571Y-110261058D01*
X123377789Y-110261384D01*
X123388959Y-110282281D01*
X123389109Y-110282643D01*
X123395987Y-110305316D01*
X123396063Y-110305701D01*
X123398990Y-110335424D01*
X123399000Y-110335620D01*
X123399000Y-110356980D01*
X123398000Y-110358712D01*
X123396000Y-110358712D01*
X123395010Y-110357176D01*
X123392167Y-110328310D01*
X123383803Y-110300737D01*
X123370221Y-110275327D01*
X123351944Y-110253056D01*
X123329673Y-110234779D01*
X123304263Y-110221197D01*
X123276690Y-110212833D01*
X123247926Y-110210000D01*
X121884074Y-110210000D01*
X121855310Y-110212833D01*
X121827737Y-110221197D01*
X121802327Y-110234779D01*
X121780056Y-110253056D01*
X121761779Y-110275327D01*
X121748197Y-110300737D01*
X121739833Y-110328310D01*
X121736990Y-110357176D01*
X121735825Y-110358802D01*
X121733835Y-110358606D01*
X121733000Y-110356980D01*
X121733000Y-110335620D01*
X121733010Y-110335424D01*
X121735937Y-110305701D01*
X121736013Y-110305316D01*
X121742891Y-110282643D01*
X121743041Y-110282281D01*
X121754211Y-110261384D01*
X121754429Y-110261058D01*
X121771077Y-110240771D01*
X121771209Y-110240626D01*
X121784812Y-110227023D01*
X121798206Y-110206976D01*
X121807432Y-110184702D01*
X121812136Y-110161051D01*
X121812136Y-110136945D01*
X121807431Y-110113295D01*
X121798205Y-110091022D01*
X121784810Y-110070974D01*
X121771208Y-110057372D01*
X121771076Y-110057227D01*
X121754429Y-110036942D01*
X121754211Y-110036616D01*
X121743041Y-110015719D01*
X121742891Y-110015357D01*
X121736013Y-109992684D01*
X121735937Y-109992299D01*
X121733010Y-109962576D01*
X121733000Y-109962380D01*
X121733000Y-109941020D01*
X121734000Y-109939288D01*
X121736000Y-109939288D01*
X121736990Y-109940824D01*
X121739833Y-109969690D01*
X121748197Y-109997263D01*
X121761779Y-110022673D01*
X121780056Y-110044944D01*
X121802327Y-110063221D01*
X121827737Y-110076803D01*
X121855310Y-110085167D01*
X121884074Y-110088000D01*
X123247926Y-110088000D01*
X123276690Y-110085167D01*
X123304263Y-110076803D01*
X123329673Y-110063221D01*
X123351944Y-110044944D01*
X123370221Y-110022673D01*
X123383803Y-109997263D01*
X123392167Y-109969690D01*
X123395010Y-109940824D01*
X123396175Y-109939198D01*
X123398165Y-109939394D01*
G37*
G36*
X131758165Y-109939394D02*
G01*
X131759000Y-109941020D01*
X131759000Y-109962380D01*
X131758990Y-109962576D01*
X131756063Y-109992299D01*
X131755987Y-109992684D01*
X131749109Y-110015357D01*
X131748959Y-110015719D01*
X131737789Y-110036616D01*
X131737571Y-110036942D01*
X131720923Y-110057229D01*
X131720791Y-110057374D01*
X131707188Y-110070977D01*
X131693794Y-110091024D01*
X131684568Y-110113298D01*
X131679864Y-110136949D01*
X131679864Y-110161055D01*
X131684569Y-110184705D01*
X131693795Y-110206978D01*
X131707190Y-110227026D01*
X131720792Y-110240628D01*
X131720924Y-110240773D01*
X131737571Y-110261058D01*
X131737789Y-110261384D01*
X131748959Y-110282281D01*
X131749109Y-110282643D01*
X131755987Y-110305316D01*
X131756063Y-110305701D01*
X131758990Y-110335424D01*
X131759000Y-110335620D01*
X131759000Y-110356980D01*
X131758000Y-110358712D01*
X131756000Y-110358712D01*
X131755010Y-110357176D01*
X131752167Y-110328310D01*
X131743803Y-110300737D01*
X131730221Y-110275327D01*
X131711944Y-110253056D01*
X131689673Y-110234779D01*
X131664263Y-110221197D01*
X131636690Y-110212833D01*
X131607926Y-110210000D01*
X130244074Y-110210000D01*
X130215310Y-110212833D01*
X130187737Y-110221197D01*
X130162327Y-110234779D01*
X130140056Y-110253056D01*
X130121779Y-110275327D01*
X130108197Y-110300737D01*
X130099833Y-110328310D01*
X130096990Y-110357176D01*
X130095825Y-110358802D01*
X130093835Y-110358606D01*
X130093000Y-110356980D01*
X130093000Y-110335620D01*
X130093010Y-110335424D01*
X130095937Y-110305701D01*
X130096013Y-110305316D01*
X130102891Y-110282643D01*
X130103041Y-110282281D01*
X130114211Y-110261384D01*
X130114429Y-110261058D01*
X130131077Y-110240771D01*
X130131209Y-110240626D01*
X130144812Y-110227023D01*
X130158206Y-110206976D01*
X130167432Y-110184702D01*
X130172136Y-110161051D01*
X130172136Y-110136945D01*
X130167431Y-110113295D01*
X130158205Y-110091022D01*
X130144810Y-110070974D01*
X130131208Y-110057372D01*
X130131076Y-110057227D01*
X130114429Y-110036942D01*
X130114211Y-110036616D01*
X130103041Y-110015719D01*
X130102891Y-110015357D01*
X130096013Y-109992684D01*
X130095937Y-109992299D01*
X130093010Y-109962576D01*
X130093000Y-109962380D01*
X130093000Y-109941020D01*
X130094000Y-109939288D01*
X130096000Y-109939288D01*
X130096990Y-109940824D01*
X130099833Y-109969690D01*
X130108197Y-109997263D01*
X130121779Y-110022673D01*
X130140056Y-110044944D01*
X130162327Y-110063221D01*
X130187737Y-110076803D01*
X130215310Y-110085167D01*
X130244074Y-110088000D01*
X131607926Y-110088000D01*
X131636690Y-110085167D01*
X131664263Y-110076803D01*
X131689673Y-110063221D01*
X131711944Y-110044944D01*
X131730221Y-110022673D01*
X131743803Y-109997263D01*
X131752167Y-109969690D01*
X131755010Y-109940824D01*
X131756175Y-109939198D01*
X131758165Y-109939394D01*
G37*
G36*
X131758165Y-109439394D02*
G01*
X131759000Y-109441020D01*
X131759000Y-109462380D01*
X131758990Y-109462576D01*
X131756063Y-109492299D01*
X131755987Y-109492684D01*
X131749109Y-109515357D01*
X131748959Y-109515719D01*
X131737789Y-109536616D01*
X131737571Y-109536942D01*
X131720923Y-109557229D01*
X131720791Y-109557374D01*
X131707188Y-109570977D01*
X131693794Y-109591024D01*
X131684568Y-109613298D01*
X131679864Y-109636949D01*
X131679864Y-109661055D01*
X131684569Y-109684705D01*
X131693795Y-109706978D01*
X131707190Y-109727026D01*
X131720792Y-109740628D01*
X131720924Y-109740773D01*
X131737571Y-109761058D01*
X131737789Y-109761384D01*
X131748959Y-109782281D01*
X131749109Y-109782643D01*
X131755987Y-109805316D01*
X131756063Y-109805701D01*
X131758990Y-109835424D01*
X131759000Y-109835620D01*
X131759000Y-109856980D01*
X131758000Y-109858712D01*
X131756000Y-109858712D01*
X131755010Y-109857176D01*
X131752167Y-109828310D01*
X131743803Y-109800737D01*
X131730221Y-109775327D01*
X131711944Y-109753056D01*
X131689673Y-109734779D01*
X131664263Y-109721197D01*
X131636690Y-109712833D01*
X131607926Y-109710000D01*
X130244074Y-109710000D01*
X130215310Y-109712833D01*
X130187737Y-109721197D01*
X130162327Y-109734779D01*
X130140056Y-109753056D01*
X130121779Y-109775327D01*
X130108197Y-109800737D01*
X130099833Y-109828310D01*
X130096990Y-109857176D01*
X130095825Y-109858802D01*
X130093835Y-109858606D01*
X130093000Y-109856980D01*
X130093000Y-109835620D01*
X130093010Y-109835424D01*
X130095937Y-109805701D01*
X130096013Y-109805316D01*
X130102891Y-109782643D01*
X130103041Y-109782281D01*
X130114211Y-109761384D01*
X130114429Y-109761058D01*
X130131077Y-109740771D01*
X130131209Y-109740626D01*
X130144812Y-109727023D01*
X130158206Y-109706976D01*
X130167432Y-109684702D01*
X130172136Y-109661051D01*
X130172136Y-109636945D01*
X130167431Y-109613295D01*
X130158205Y-109591022D01*
X130144810Y-109570974D01*
X130131208Y-109557372D01*
X130131076Y-109557227D01*
X130114429Y-109536942D01*
X130114211Y-109536616D01*
X130103041Y-109515719D01*
X130102891Y-109515357D01*
X130096013Y-109492684D01*
X130095937Y-109492299D01*
X130093010Y-109462576D01*
X130093000Y-109462380D01*
X130093000Y-109441020D01*
X130094000Y-109439288D01*
X130096000Y-109439288D01*
X130096990Y-109440824D01*
X130099833Y-109469690D01*
X130108197Y-109497263D01*
X130121779Y-109522673D01*
X130140056Y-109544944D01*
X130162327Y-109563221D01*
X130187737Y-109576803D01*
X130215310Y-109585167D01*
X130244074Y-109588000D01*
X131607926Y-109588000D01*
X131636690Y-109585167D01*
X131664263Y-109576803D01*
X131689673Y-109563221D01*
X131711944Y-109544944D01*
X131730221Y-109522673D01*
X131743803Y-109497263D01*
X131752167Y-109469690D01*
X131755010Y-109440824D01*
X131756175Y-109439198D01*
X131758165Y-109439394D01*
G37*
G36*
X123398165Y-109439394D02*
G01*
X123399000Y-109441020D01*
X123399000Y-109462380D01*
X123398990Y-109462576D01*
X123396063Y-109492299D01*
X123395987Y-109492684D01*
X123389109Y-109515357D01*
X123388959Y-109515719D01*
X123377789Y-109536616D01*
X123377571Y-109536942D01*
X123360923Y-109557229D01*
X123360791Y-109557374D01*
X123347188Y-109570977D01*
X123333794Y-109591024D01*
X123324568Y-109613298D01*
X123319864Y-109636949D01*
X123319864Y-109661055D01*
X123324569Y-109684705D01*
X123333795Y-109706978D01*
X123347190Y-109727026D01*
X123360792Y-109740628D01*
X123360924Y-109740773D01*
X123377571Y-109761058D01*
X123377789Y-109761384D01*
X123388959Y-109782281D01*
X123389109Y-109782643D01*
X123395987Y-109805316D01*
X123396063Y-109805701D01*
X123398990Y-109835424D01*
X123399000Y-109835620D01*
X123399000Y-109856980D01*
X123398000Y-109858712D01*
X123396000Y-109858712D01*
X123395010Y-109857176D01*
X123392167Y-109828310D01*
X123383803Y-109800737D01*
X123370221Y-109775327D01*
X123351944Y-109753056D01*
X123329673Y-109734779D01*
X123304263Y-109721197D01*
X123276690Y-109712833D01*
X123247926Y-109710000D01*
X121884074Y-109710000D01*
X121855310Y-109712833D01*
X121827737Y-109721197D01*
X121802327Y-109734779D01*
X121780056Y-109753056D01*
X121761779Y-109775327D01*
X121748197Y-109800737D01*
X121739833Y-109828310D01*
X121736990Y-109857176D01*
X121735825Y-109858802D01*
X121733835Y-109858606D01*
X121733000Y-109856980D01*
X121733000Y-109835620D01*
X121733010Y-109835424D01*
X121735937Y-109805701D01*
X121736013Y-109805316D01*
X121742891Y-109782643D01*
X121743041Y-109782281D01*
X121754211Y-109761384D01*
X121754429Y-109761058D01*
X121771077Y-109740771D01*
X121771209Y-109740626D01*
X121784812Y-109727023D01*
X121798206Y-109706976D01*
X121807432Y-109684702D01*
X121812136Y-109661051D01*
X121812136Y-109636945D01*
X121807431Y-109613295D01*
X121798205Y-109591022D01*
X121784810Y-109570974D01*
X121771208Y-109557372D01*
X121771076Y-109557227D01*
X121754429Y-109536942D01*
X121754211Y-109536616D01*
X121743041Y-109515719D01*
X121742891Y-109515357D01*
X121736013Y-109492684D01*
X121735937Y-109492299D01*
X121733010Y-109462576D01*
X121733000Y-109462380D01*
X121733000Y-109441020D01*
X121734000Y-109439288D01*
X121736000Y-109439288D01*
X121736990Y-109440824D01*
X121739833Y-109469690D01*
X121748197Y-109497263D01*
X121761779Y-109522673D01*
X121780056Y-109544944D01*
X121802327Y-109563221D01*
X121827737Y-109576803D01*
X121855310Y-109585167D01*
X121884074Y-109588000D01*
X123247926Y-109588000D01*
X123276690Y-109585167D01*
X123304263Y-109576803D01*
X123329673Y-109563221D01*
X123351944Y-109544944D01*
X123370221Y-109522673D01*
X123383803Y-109497263D01*
X123392167Y-109469690D01*
X123395010Y-109440824D01*
X123396175Y-109439198D01*
X123398165Y-109439394D01*
G37*
G36*
X131758165Y-108939394D02*
G01*
X131759000Y-108941020D01*
X131759000Y-108962380D01*
X131758990Y-108962576D01*
X131756063Y-108992299D01*
X131755987Y-108992684D01*
X131749109Y-109015357D01*
X131748959Y-109015719D01*
X131737789Y-109036616D01*
X131737571Y-109036942D01*
X131720923Y-109057229D01*
X131720791Y-109057374D01*
X131707188Y-109070977D01*
X131693794Y-109091024D01*
X131684568Y-109113298D01*
X131679864Y-109136949D01*
X131679864Y-109161055D01*
X131684569Y-109184705D01*
X131693795Y-109206978D01*
X131707190Y-109227026D01*
X131720792Y-109240628D01*
X131720924Y-109240773D01*
X131737571Y-109261058D01*
X131737789Y-109261384D01*
X131748959Y-109282281D01*
X131749109Y-109282643D01*
X131755987Y-109305316D01*
X131756063Y-109305701D01*
X131758990Y-109335424D01*
X131759000Y-109335620D01*
X131759000Y-109356980D01*
X131758000Y-109358712D01*
X131756000Y-109358712D01*
X131755010Y-109357176D01*
X131752167Y-109328310D01*
X131743803Y-109300737D01*
X131730221Y-109275327D01*
X131711944Y-109253056D01*
X131689673Y-109234779D01*
X131664263Y-109221197D01*
X131636690Y-109212833D01*
X131607926Y-109210000D01*
X130244074Y-109210000D01*
X130215310Y-109212833D01*
X130187737Y-109221197D01*
X130162327Y-109234779D01*
X130140056Y-109253056D01*
X130121779Y-109275327D01*
X130108197Y-109300737D01*
X130099833Y-109328310D01*
X130096990Y-109357176D01*
X130095825Y-109358802D01*
X130093835Y-109358606D01*
X130093000Y-109356980D01*
X130093000Y-109335620D01*
X130093010Y-109335424D01*
X130095937Y-109305701D01*
X130096013Y-109305316D01*
X130102891Y-109282643D01*
X130103041Y-109282281D01*
X130114211Y-109261384D01*
X130114429Y-109261058D01*
X130131077Y-109240771D01*
X130131209Y-109240626D01*
X130144812Y-109227023D01*
X130158206Y-109206976D01*
X130167432Y-109184702D01*
X130172136Y-109161051D01*
X130172136Y-109136945D01*
X130167431Y-109113295D01*
X130158205Y-109091022D01*
X130144810Y-109070974D01*
X130131208Y-109057372D01*
X130131076Y-109057227D01*
X130114429Y-109036942D01*
X130114211Y-109036616D01*
X130103041Y-109015719D01*
X130102891Y-109015357D01*
X130096013Y-108992684D01*
X130095937Y-108992299D01*
X130093010Y-108962576D01*
X130093000Y-108962380D01*
X130093000Y-108941020D01*
X130094000Y-108939288D01*
X130096000Y-108939288D01*
X130096990Y-108940824D01*
X130099833Y-108969690D01*
X130108197Y-108997263D01*
X130121779Y-109022673D01*
X130140056Y-109044944D01*
X130162327Y-109063221D01*
X130187737Y-109076803D01*
X130215310Y-109085167D01*
X130244074Y-109088000D01*
X131607926Y-109088000D01*
X131636690Y-109085167D01*
X131664263Y-109076803D01*
X131689673Y-109063221D01*
X131711944Y-109044944D01*
X131730221Y-109022673D01*
X131743803Y-108997263D01*
X131752167Y-108969690D01*
X131755010Y-108940824D01*
X131756175Y-108939198D01*
X131758165Y-108939394D01*
G37*
G36*
X123398165Y-108939394D02*
G01*
X123399000Y-108941020D01*
X123399000Y-108962380D01*
X123398990Y-108962576D01*
X123396063Y-108992299D01*
X123395987Y-108992684D01*
X123389109Y-109015357D01*
X123388959Y-109015719D01*
X123377789Y-109036616D01*
X123377571Y-109036942D01*
X123360923Y-109057229D01*
X123360791Y-109057374D01*
X123347188Y-109070977D01*
X123333794Y-109091024D01*
X123324568Y-109113298D01*
X123319864Y-109136949D01*
X123319864Y-109161055D01*
X123324569Y-109184705D01*
X123333795Y-109206978D01*
X123347190Y-109227026D01*
X123360792Y-109240628D01*
X123360924Y-109240773D01*
X123377571Y-109261058D01*
X123377789Y-109261384D01*
X123388959Y-109282281D01*
X123389109Y-109282643D01*
X123395987Y-109305316D01*
X123396063Y-109305701D01*
X123398990Y-109335424D01*
X123399000Y-109335620D01*
X123399000Y-109356980D01*
X123398000Y-109358712D01*
X123396000Y-109358712D01*
X123395010Y-109357176D01*
X123392167Y-109328310D01*
X123383803Y-109300737D01*
X123370221Y-109275327D01*
X123351944Y-109253056D01*
X123329673Y-109234779D01*
X123304263Y-109221197D01*
X123276690Y-109212833D01*
X123247926Y-109210000D01*
X121884074Y-109210000D01*
X121855310Y-109212833D01*
X121827737Y-109221197D01*
X121802327Y-109234779D01*
X121780056Y-109253056D01*
X121761779Y-109275327D01*
X121748197Y-109300737D01*
X121739833Y-109328310D01*
X121736990Y-109357176D01*
X121735825Y-109358802D01*
X121733835Y-109358606D01*
X121733000Y-109356980D01*
X121733000Y-109335620D01*
X121733010Y-109335424D01*
X121735937Y-109305701D01*
X121736013Y-109305316D01*
X121742891Y-109282643D01*
X121743041Y-109282281D01*
X121754211Y-109261384D01*
X121754429Y-109261058D01*
X121771077Y-109240771D01*
X121771209Y-109240626D01*
X121784812Y-109227023D01*
X121798206Y-109206976D01*
X121807432Y-109184702D01*
X121812136Y-109161051D01*
X121812136Y-109136945D01*
X121807431Y-109113295D01*
X121798205Y-109091022D01*
X121784810Y-109070974D01*
X121771208Y-109057372D01*
X121771076Y-109057227D01*
X121754429Y-109036942D01*
X121754211Y-109036616D01*
X121743041Y-109015719D01*
X121742891Y-109015357D01*
X121736013Y-108992684D01*
X121735937Y-108992299D01*
X121733010Y-108962576D01*
X121733000Y-108962380D01*
X121733000Y-108941020D01*
X121734000Y-108939288D01*
X121736000Y-108939288D01*
X121736990Y-108940824D01*
X121739833Y-108969690D01*
X121748197Y-108997263D01*
X121761779Y-109022673D01*
X121780056Y-109044944D01*
X121802327Y-109063221D01*
X121827737Y-109076803D01*
X121855310Y-109085167D01*
X121884074Y-109088000D01*
X123247926Y-109088000D01*
X123276690Y-109085167D01*
X123304263Y-109076803D01*
X123329673Y-109063221D01*
X123351944Y-109044944D01*
X123370221Y-109022673D01*
X123383803Y-108997263D01*
X123392167Y-108969690D01*
X123395010Y-108940824D01*
X123396175Y-108939198D01*
X123398165Y-108939394D01*
G37*
G36*
X131758165Y-108439394D02*
G01*
X131759000Y-108441020D01*
X131759000Y-108462380D01*
X131758990Y-108462576D01*
X131756063Y-108492299D01*
X131755987Y-108492684D01*
X131749109Y-108515357D01*
X131748959Y-108515719D01*
X131737789Y-108536616D01*
X131737571Y-108536942D01*
X131720923Y-108557229D01*
X131720791Y-108557374D01*
X131707188Y-108570977D01*
X131693794Y-108591024D01*
X131684568Y-108613298D01*
X131679864Y-108636949D01*
X131679864Y-108661055D01*
X131684569Y-108684705D01*
X131693795Y-108706978D01*
X131707190Y-108727026D01*
X131720792Y-108740628D01*
X131720924Y-108740773D01*
X131737571Y-108761058D01*
X131737789Y-108761384D01*
X131748959Y-108782281D01*
X131749109Y-108782643D01*
X131755987Y-108805316D01*
X131756063Y-108805701D01*
X131758990Y-108835424D01*
X131759000Y-108835620D01*
X131759000Y-108856980D01*
X131758000Y-108858712D01*
X131756000Y-108858712D01*
X131755010Y-108857176D01*
X131752167Y-108828310D01*
X131743803Y-108800737D01*
X131730221Y-108775327D01*
X131711944Y-108753056D01*
X131689673Y-108734779D01*
X131664263Y-108721197D01*
X131636690Y-108712833D01*
X131607926Y-108710000D01*
X130244074Y-108710000D01*
X130215310Y-108712833D01*
X130187737Y-108721197D01*
X130162327Y-108734779D01*
X130140056Y-108753056D01*
X130121779Y-108775327D01*
X130108197Y-108800737D01*
X130099833Y-108828310D01*
X130096990Y-108857176D01*
X130095825Y-108858802D01*
X130093835Y-108858606D01*
X130093000Y-108856980D01*
X130093000Y-108835620D01*
X130093010Y-108835424D01*
X130095937Y-108805701D01*
X130096013Y-108805316D01*
X130102891Y-108782643D01*
X130103041Y-108782281D01*
X130114211Y-108761384D01*
X130114429Y-108761058D01*
X130131077Y-108740771D01*
X130131209Y-108740626D01*
X130144812Y-108727023D01*
X130158206Y-108706976D01*
X130167432Y-108684702D01*
X130172136Y-108661051D01*
X130172136Y-108636945D01*
X130167431Y-108613295D01*
X130158205Y-108591022D01*
X130144810Y-108570974D01*
X130131208Y-108557372D01*
X130131076Y-108557227D01*
X130114429Y-108536942D01*
X130114211Y-108536616D01*
X130103041Y-108515719D01*
X130102891Y-108515357D01*
X130096013Y-108492684D01*
X130095937Y-108492299D01*
X130093010Y-108462576D01*
X130093000Y-108462380D01*
X130093000Y-108441020D01*
X130094000Y-108439288D01*
X130096000Y-108439288D01*
X130096990Y-108440824D01*
X130099833Y-108469690D01*
X130108197Y-108497263D01*
X130121779Y-108522673D01*
X130140056Y-108544944D01*
X130162327Y-108563221D01*
X130187737Y-108576803D01*
X130215310Y-108585167D01*
X130244074Y-108588000D01*
X131607926Y-108588000D01*
X131636690Y-108585167D01*
X131664263Y-108576803D01*
X131689673Y-108563221D01*
X131711944Y-108544944D01*
X131730221Y-108522673D01*
X131743803Y-108497263D01*
X131752167Y-108469690D01*
X131755010Y-108440824D01*
X131756175Y-108439198D01*
X131758165Y-108439394D01*
G37*
G36*
X123398165Y-108439394D02*
G01*
X123399000Y-108441020D01*
X123399000Y-108462380D01*
X123398990Y-108462576D01*
X123396063Y-108492299D01*
X123395987Y-108492684D01*
X123389109Y-108515357D01*
X123388959Y-108515719D01*
X123377789Y-108536616D01*
X123377571Y-108536942D01*
X123360923Y-108557229D01*
X123360791Y-108557374D01*
X123347188Y-108570977D01*
X123333794Y-108591024D01*
X123324568Y-108613298D01*
X123319864Y-108636949D01*
X123319864Y-108661055D01*
X123324569Y-108684705D01*
X123333795Y-108706978D01*
X123347190Y-108727026D01*
X123360792Y-108740628D01*
X123360924Y-108740773D01*
X123377571Y-108761058D01*
X123377789Y-108761384D01*
X123388959Y-108782281D01*
X123389109Y-108782643D01*
X123395987Y-108805316D01*
X123396063Y-108805701D01*
X123398990Y-108835424D01*
X123399000Y-108835620D01*
X123399000Y-108856980D01*
X123398000Y-108858712D01*
X123396000Y-108858712D01*
X123395010Y-108857176D01*
X123392167Y-108828310D01*
X123383803Y-108800737D01*
X123370221Y-108775327D01*
X123351944Y-108753056D01*
X123329673Y-108734779D01*
X123304263Y-108721197D01*
X123276690Y-108712833D01*
X123247926Y-108710000D01*
X121884074Y-108710000D01*
X121855310Y-108712833D01*
X121827737Y-108721197D01*
X121802327Y-108734779D01*
X121780056Y-108753056D01*
X121761779Y-108775327D01*
X121748197Y-108800737D01*
X121739833Y-108828310D01*
X121736990Y-108857176D01*
X121735825Y-108858802D01*
X121733835Y-108858606D01*
X121733000Y-108856980D01*
X121733000Y-108835620D01*
X121733010Y-108835424D01*
X121735937Y-108805701D01*
X121736013Y-108805316D01*
X121742891Y-108782643D01*
X121743041Y-108782281D01*
X121754211Y-108761384D01*
X121754429Y-108761058D01*
X121771077Y-108740771D01*
X121771209Y-108740626D01*
X121784812Y-108727023D01*
X121798206Y-108706976D01*
X121807432Y-108684702D01*
X121812136Y-108661051D01*
X121812136Y-108636945D01*
X121807431Y-108613295D01*
X121798205Y-108591022D01*
X121784810Y-108570974D01*
X121771208Y-108557372D01*
X121771076Y-108557227D01*
X121754429Y-108536942D01*
X121754211Y-108536616D01*
X121743041Y-108515719D01*
X121742891Y-108515357D01*
X121736013Y-108492684D01*
X121735937Y-108492299D01*
X121733010Y-108462576D01*
X121733000Y-108462380D01*
X121733000Y-108441020D01*
X121734000Y-108439288D01*
X121736000Y-108439288D01*
X121736990Y-108440824D01*
X121739833Y-108469690D01*
X121748197Y-108497263D01*
X121761779Y-108522673D01*
X121780056Y-108544944D01*
X121802327Y-108563221D01*
X121827737Y-108576803D01*
X121855310Y-108585167D01*
X121884074Y-108588000D01*
X123247926Y-108588000D01*
X123276690Y-108585167D01*
X123304263Y-108576803D01*
X123329673Y-108563221D01*
X123351944Y-108544944D01*
X123370221Y-108522673D01*
X123383803Y-108497263D01*
X123392167Y-108469690D01*
X123395010Y-108440824D01*
X123396175Y-108439198D01*
X123398165Y-108439394D01*
G37*
G36*
X131758165Y-107939394D02*
G01*
X131759000Y-107941020D01*
X131759000Y-107962380D01*
X131758990Y-107962576D01*
X131756063Y-107992299D01*
X131755987Y-107992684D01*
X131749109Y-108015357D01*
X131748959Y-108015719D01*
X131737789Y-108036616D01*
X131737571Y-108036942D01*
X131720923Y-108057229D01*
X131720791Y-108057374D01*
X131707188Y-108070977D01*
X131693794Y-108091024D01*
X131684568Y-108113298D01*
X131679864Y-108136949D01*
X131679864Y-108161055D01*
X131684569Y-108184705D01*
X131693795Y-108206978D01*
X131707190Y-108227026D01*
X131720792Y-108240628D01*
X131720924Y-108240773D01*
X131737571Y-108261058D01*
X131737789Y-108261384D01*
X131748959Y-108282281D01*
X131749109Y-108282643D01*
X131755987Y-108305316D01*
X131756063Y-108305701D01*
X131758990Y-108335424D01*
X131759000Y-108335620D01*
X131759000Y-108356980D01*
X131758000Y-108358712D01*
X131756000Y-108358712D01*
X131755010Y-108357176D01*
X131752167Y-108328310D01*
X131743803Y-108300737D01*
X131730221Y-108275327D01*
X131711944Y-108253056D01*
X131689673Y-108234779D01*
X131664263Y-108221197D01*
X131636690Y-108212833D01*
X131607926Y-108210000D01*
X130244074Y-108210000D01*
X130215310Y-108212833D01*
X130187737Y-108221197D01*
X130162327Y-108234779D01*
X130140056Y-108253056D01*
X130121779Y-108275327D01*
X130108197Y-108300737D01*
X130099833Y-108328310D01*
X130096990Y-108357176D01*
X130095825Y-108358802D01*
X130093835Y-108358606D01*
X130093000Y-108356980D01*
X130093000Y-108335620D01*
X130093010Y-108335424D01*
X130095937Y-108305701D01*
X130096013Y-108305316D01*
X130102891Y-108282643D01*
X130103041Y-108282281D01*
X130114211Y-108261384D01*
X130114429Y-108261058D01*
X130131077Y-108240771D01*
X130131209Y-108240626D01*
X130144812Y-108227023D01*
X130158206Y-108206976D01*
X130167432Y-108184702D01*
X130172136Y-108161051D01*
X130172136Y-108136945D01*
X130167431Y-108113295D01*
X130158205Y-108091022D01*
X130144810Y-108070974D01*
X130131208Y-108057372D01*
X130131076Y-108057227D01*
X130114429Y-108036942D01*
X130114211Y-108036616D01*
X130103041Y-108015719D01*
X130102891Y-108015357D01*
X130096013Y-107992684D01*
X130095937Y-107992299D01*
X130093010Y-107962576D01*
X130093000Y-107962380D01*
X130093000Y-107941020D01*
X130094000Y-107939288D01*
X130096000Y-107939288D01*
X130096990Y-107940824D01*
X130099833Y-107969690D01*
X130108197Y-107997263D01*
X130121779Y-108022673D01*
X130140056Y-108044944D01*
X130162327Y-108063221D01*
X130187737Y-108076803D01*
X130215310Y-108085167D01*
X130244074Y-108088000D01*
X131607926Y-108088000D01*
X131636690Y-108085167D01*
X131664263Y-108076803D01*
X131689673Y-108063221D01*
X131711944Y-108044944D01*
X131730221Y-108022673D01*
X131743803Y-107997263D01*
X131752167Y-107969690D01*
X131755010Y-107940824D01*
X131756175Y-107939198D01*
X131758165Y-107939394D01*
G37*
G36*
X123398165Y-107939394D02*
G01*
X123399000Y-107941020D01*
X123399000Y-107962380D01*
X123398990Y-107962576D01*
X123396063Y-107992299D01*
X123395987Y-107992684D01*
X123389109Y-108015357D01*
X123388959Y-108015719D01*
X123377789Y-108036616D01*
X123377571Y-108036942D01*
X123360923Y-108057229D01*
X123360791Y-108057374D01*
X123347188Y-108070977D01*
X123333794Y-108091024D01*
X123324568Y-108113298D01*
X123319864Y-108136949D01*
X123319864Y-108161055D01*
X123324569Y-108184705D01*
X123333795Y-108206978D01*
X123347190Y-108227026D01*
X123360792Y-108240628D01*
X123360924Y-108240773D01*
X123377571Y-108261058D01*
X123377789Y-108261384D01*
X123388959Y-108282281D01*
X123389109Y-108282643D01*
X123395987Y-108305316D01*
X123396063Y-108305701D01*
X123398990Y-108335424D01*
X123399000Y-108335620D01*
X123399000Y-108356980D01*
X123398000Y-108358712D01*
X123396000Y-108358712D01*
X123395010Y-108357176D01*
X123392167Y-108328310D01*
X123383803Y-108300737D01*
X123370221Y-108275327D01*
X123351944Y-108253056D01*
X123329673Y-108234779D01*
X123304263Y-108221197D01*
X123276690Y-108212833D01*
X123247926Y-108210000D01*
X121884074Y-108210000D01*
X121855310Y-108212833D01*
X121827737Y-108221197D01*
X121802327Y-108234779D01*
X121780056Y-108253056D01*
X121761779Y-108275327D01*
X121748197Y-108300737D01*
X121739833Y-108328310D01*
X121736990Y-108357176D01*
X121735825Y-108358802D01*
X121733835Y-108358606D01*
X121733000Y-108356980D01*
X121733000Y-108335620D01*
X121733010Y-108335424D01*
X121735937Y-108305701D01*
X121736013Y-108305316D01*
X121742891Y-108282643D01*
X121743041Y-108282281D01*
X121754211Y-108261384D01*
X121754429Y-108261058D01*
X121771077Y-108240771D01*
X121771209Y-108240626D01*
X121784812Y-108227023D01*
X121798206Y-108206976D01*
X121807432Y-108184702D01*
X121812136Y-108161051D01*
X121812136Y-108136945D01*
X121807431Y-108113295D01*
X121798205Y-108091022D01*
X121784810Y-108070974D01*
X121771208Y-108057372D01*
X121771076Y-108057227D01*
X121754429Y-108036942D01*
X121754211Y-108036616D01*
X121743041Y-108015719D01*
X121742891Y-108015357D01*
X121736013Y-107992684D01*
X121735937Y-107992299D01*
X121733010Y-107962576D01*
X121733000Y-107962380D01*
X121733000Y-107941020D01*
X121734000Y-107939288D01*
X121736000Y-107939288D01*
X121736990Y-107940824D01*
X121739833Y-107969690D01*
X121748197Y-107997263D01*
X121761779Y-108022673D01*
X121780056Y-108044944D01*
X121802327Y-108063221D01*
X121827737Y-108076803D01*
X121855310Y-108085167D01*
X121884074Y-108088000D01*
X123247926Y-108088000D01*
X123276690Y-108085167D01*
X123304263Y-108076803D01*
X123329673Y-108063221D01*
X123351944Y-108044944D01*
X123370221Y-108022673D01*
X123383803Y-107997263D01*
X123392167Y-107969690D01*
X123395010Y-107940824D01*
X123396175Y-107939198D01*
X123398165Y-107939394D01*
G37*
G36*
X131758165Y-107439394D02*
G01*
X131759000Y-107441020D01*
X131759000Y-107462380D01*
X131758990Y-107462576D01*
X131756063Y-107492299D01*
X131755987Y-107492684D01*
X131749109Y-107515357D01*
X131748959Y-107515719D01*
X131737789Y-107536616D01*
X131737571Y-107536942D01*
X131720923Y-107557229D01*
X131720791Y-107557374D01*
X131707188Y-107570977D01*
X131693794Y-107591024D01*
X131684568Y-107613298D01*
X131679864Y-107636949D01*
X131679864Y-107661055D01*
X131684569Y-107684705D01*
X131693795Y-107706978D01*
X131707190Y-107727026D01*
X131720792Y-107740628D01*
X131720924Y-107740773D01*
X131737571Y-107761058D01*
X131737789Y-107761384D01*
X131748959Y-107782281D01*
X131749109Y-107782643D01*
X131755987Y-107805316D01*
X131756063Y-107805701D01*
X131758990Y-107835424D01*
X131759000Y-107835620D01*
X131759000Y-107856980D01*
X131758000Y-107858712D01*
X131756000Y-107858712D01*
X131755010Y-107857176D01*
X131752167Y-107828310D01*
X131743803Y-107800737D01*
X131730221Y-107775327D01*
X131711944Y-107753056D01*
X131689673Y-107734779D01*
X131664263Y-107721197D01*
X131636690Y-107712833D01*
X131607926Y-107710000D01*
X130244074Y-107710000D01*
X130215310Y-107712833D01*
X130187737Y-107721197D01*
X130162327Y-107734779D01*
X130140056Y-107753056D01*
X130121779Y-107775327D01*
X130108197Y-107800737D01*
X130099833Y-107828310D01*
X130096990Y-107857176D01*
X130095825Y-107858802D01*
X130093835Y-107858606D01*
X130093000Y-107856980D01*
X130093000Y-107835620D01*
X130093010Y-107835424D01*
X130095937Y-107805701D01*
X130096013Y-107805316D01*
X130102891Y-107782643D01*
X130103041Y-107782281D01*
X130114211Y-107761384D01*
X130114429Y-107761058D01*
X130131077Y-107740771D01*
X130131209Y-107740626D01*
X130144812Y-107727023D01*
X130158206Y-107706976D01*
X130167432Y-107684702D01*
X130172136Y-107661051D01*
X130172136Y-107636945D01*
X130167431Y-107613295D01*
X130158205Y-107591022D01*
X130144810Y-107570974D01*
X130131208Y-107557372D01*
X130131076Y-107557227D01*
X130114429Y-107536942D01*
X130114211Y-107536616D01*
X130103041Y-107515719D01*
X130102891Y-107515357D01*
X130096013Y-107492684D01*
X130095937Y-107492299D01*
X130093010Y-107462576D01*
X130093000Y-107462380D01*
X130093000Y-107441020D01*
X130094000Y-107439288D01*
X130096000Y-107439288D01*
X130096990Y-107440824D01*
X130099833Y-107469690D01*
X130108197Y-107497263D01*
X130121779Y-107522673D01*
X130140056Y-107544944D01*
X130162327Y-107563221D01*
X130187737Y-107576803D01*
X130215310Y-107585167D01*
X130244074Y-107588000D01*
X131607926Y-107588000D01*
X131636690Y-107585167D01*
X131664263Y-107576803D01*
X131689673Y-107563221D01*
X131711944Y-107544944D01*
X131730221Y-107522673D01*
X131743803Y-107497263D01*
X131752167Y-107469690D01*
X131755010Y-107440824D01*
X131756175Y-107439198D01*
X131758165Y-107439394D01*
G37*
G36*
X123398165Y-107439394D02*
G01*
X123399000Y-107441020D01*
X123399000Y-107462380D01*
X123398990Y-107462576D01*
X123396063Y-107492299D01*
X123395987Y-107492684D01*
X123389109Y-107515357D01*
X123388959Y-107515719D01*
X123377789Y-107536616D01*
X123377571Y-107536942D01*
X123360923Y-107557229D01*
X123360791Y-107557374D01*
X123347188Y-107570977D01*
X123333794Y-107591024D01*
X123324568Y-107613298D01*
X123319864Y-107636949D01*
X123319864Y-107661055D01*
X123324569Y-107684705D01*
X123333795Y-107706978D01*
X123347190Y-107727026D01*
X123360792Y-107740628D01*
X123360924Y-107740773D01*
X123377571Y-107761058D01*
X123377789Y-107761384D01*
X123388959Y-107782281D01*
X123389109Y-107782643D01*
X123395987Y-107805316D01*
X123396063Y-107805701D01*
X123398990Y-107835424D01*
X123399000Y-107835620D01*
X123399000Y-107856980D01*
X123398000Y-107858712D01*
X123396000Y-107858712D01*
X123395010Y-107857176D01*
X123392167Y-107828310D01*
X123383803Y-107800737D01*
X123370221Y-107775327D01*
X123351944Y-107753056D01*
X123329673Y-107734779D01*
X123304263Y-107721197D01*
X123276690Y-107712833D01*
X123247926Y-107710000D01*
X121884074Y-107710000D01*
X121855310Y-107712833D01*
X121827737Y-107721197D01*
X121802327Y-107734779D01*
X121780056Y-107753056D01*
X121761779Y-107775327D01*
X121748197Y-107800737D01*
X121739833Y-107828310D01*
X121736990Y-107857176D01*
X121735825Y-107858802D01*
X121733835Y-107858606D01*
X121733000Y-107856980D01*
X121733000Y-107835620D01*
X121733010Y-107835424D01*
X121735937Y-107805701D01*
X121736013Y-107805316D01*
X121742891Y-107782643D01*
X121743041Y-107782281D01*
X121754211Y-107761384D01*
X121754429Y-107761058D01*
X121771077Y-107740771D01*
X121771209Y-107740626D01*
X121784812Y-107727023D01*
X121798206Y-107706976D01*
X121807432Y-107684702D01*
X121812136Y-107661051D01*
X121812136Y-107636945D01*
X121807431Y-107613295D01*
X121798205Y-107591022D01*
X121784810Y-107570974D01*
X121771208Y-107557372D01*
X121771076Y-107557227D01*
X121754429Y-107536942D01*
X121754211Y-107536616D01*
X121743041Y-107515719D01*
X121742891Y-107515357D01*
X121736013Y-107492684D01*
X121735937Y-107492299D01*
X121733010Y-107462576D01*
X121733000Y-107462380D01*
X121733000Y-107441020D01*
X121734000Y-107439288D01*
X121736000Y-107439288D01*
X121736990Y-107440824D01*
X121739833Y-107469690D01*
X121748197Y-107497263D01*
X121761779Y-107522673D01*
X121780056Y-107544944D01*
X121802327Y-107563221D01*
X121827737Y-107576803D01*
X121855310Y-107585167D01*
X121884074Y-107588000D01*
X123247926Y-107588000D01*
X123276690Y-107585167D01*
X123304263Y-107576803D01*
X123329673Y-107563221D01*
X123351944Y-107544944D01*
X123370221Y-107522673D01*
X123383803Y-107497263D01*
X123392167Y-107469690D01*
X123395010Y-107440824D01*
X123396175Y-107439198D01*
X123398165Y-107439394D01*
G37*
G36*
X123398165Y-106939394D02*
G01*
X123399000Y-106941020D01*
X123399000Y-106962380D01*
X123398990Y-106962576D01*
X123396063Y-106992299D01*
X123395987Y-106992684D01*
X123389109Y-107015357D01*
X123388959Y-107015719D01*
X123377789Y-107036616D01*
X123377571Y-107036942D01*
X123360923Y-107057229D01*
X123360791Y-107057374D01*
X123347188Y-107070977D01*
X123333794Y-107091024D01*
X123324568Y-107113298D01*
X123319864Y-107136949D01*
X123319864Y-107161055D01*
X123324569Y-107184705D01*
X123333795Y-107206978D01*
X123347190Y-107227026D01*
X123360792Y-107240628D01*
X123360924Y-107240773D01*
X123377571Y-107261058D01*
X123377789Y-107261384D01*
X123388959Y-107282281D01*
X123389109Y-107282643D01*
X123395987Y-107305316D01*
X123396063Y-107305701D01*
X123398990Y-107335424D01*
X123399000Y-107335620D01*
X123399000Y-107356980D01*
X123398000Y-107358712D01*
X123396000Y-107358712D01*
X123395010Y-107357176D01*
X123392167Y-107328310D01*
X123383803Y-107300737D01*
X123370221Y-107275327D01*
X123351944Y-107253056D01*
X123329673Y-107234779D01*
X123304263Y-107221197D01*
X123276690Y-107212833D01*
X123247926Y-107210000D01*
X121884074Y-107210000D01*
X121855310Y-107212833D01*
X121827737Y-107221197D01*
X121802327Y-107234779D01*
X121780056Y-107253056D01*
X121761779Y-107275327D01*
X121748197Y-107300737D01*
X121739833Y-107328310D01*
X121736990Y-107357176D01*
X121735825Y-107358802D01*
X121733835Y-107358606D01*
X121733000Y-107356980D01*
X121733000Y-107335620D01*
X121733010Y-107335424D01*
X121735937Y-107305701D01*
X121736013Y-107305316D01*
X121742891Y-107282643D01*
X121743041Y-107282281D01*
X121754211Y-107261384D01*
X121754429Y-107261058D01*
X121771077Y-107240771D01*
X121771209Y-107240626D01*
X121784812Y-107227023D01*
X121798206Y-107206976D01*
X121807432Y-107184702D01*
X121812136Y-107161051D01*
X121812136Y-107136945D01*
X121807431Y-107113295D01*
X121798205Y-107091022D01*
X121784810Y-107070974D01*
X121771208Y-107057372D01*
X121771076Y-107057227D01*
X121754429Y-107036942D01*
X121754211Y-107036616D01*
X121743041Y-107015719D01*
X121742891Y-107015357D01*
X121736013Y-106992684D01*
X121735937Y-106992299D01*
X121733010Y-106962576D01*
X121733000Y-106962380D01*
X121733000Y-106941020D01*
X121734000Y-106939288D01*
X121736000Y-106939288D01*
X121736990Y-106940824D01*
X121739833Y-106969690D01*
X121748197Y-106997263D01*
X121761779Y-107022673D01*
X121780056Y-107044944D01*
X121802327Y-107063221D01*
X121827737Y-107076803D01*
X121855310Y-107085167D01*
X121884074Y-107088000D01*
X123247926Y-107088000D01*
X123276690Y-107085167D01*
X123304263Y-107076803D01*
X123329673Y-107063221D01*
X123351944Y-107044944D01*
X123370221Y-107022673D01*
X123383803Y-106997263D01*
X123392167Y-106969690D01*
X123395010Y-106940824D01*
X123396175Y-106939198D01*
X123398165Y-106939394D01*
G37*
G36*
X131758165Y-106939394D02*
G01*
X131759000Y-106941020D01*
X131759000Y-106962380D01*
X131758990Y-106962576D01*
X131756063Y-106992299D01*
X131755987Y-106992684D01*
X131749109Y-107015357D01*
X131748959Y-107015719D01*
X131737789Y-107036616D01*
X131737571Y-107036942D01*
X131720923Y-107057229D01*
X131720791Y-107057374D01*
X131707188Y-107070977D01*
X131693794Y-107091024D01*
X131684568Y-107113298D01*
X131679864Y-107136949D01*
X131679864Y-107161055D01*
X131684569Y-107184705D01*
X131693795Y-107206978D01*
X131707190Y-107227026D01*
X131720792Y-107240628D01*
X131720924Y-107240773D01*
X131737571Y-107261058D01*
X131737789Y-107261384D01*
X131748959Y-107282281D01*
X131749109Y-107282643D01*
X131755987Y-107305316D01*
X131756063Y-107305701D01*
X131758990Y-107335424D01*
X131759000Y-107335620D01*
X131759000Y-107356980D01*
X131758000Y-107358712D01*
X131756000Y-107358712D01*
X131755010Y-107357176D01*
X131752167Y-107328310D01*
X131743803Y-107300737D01*
X131730221Y-107275327D01*
X131711944Y-107253056D01*
X131689673Y-107234779D01*
X131664263Y-107221197D01*
X131636690Y-107212833D01*
X131607926Y-107210000D01*
X130244074Y-107210000D01*
X130215310Y-107212833D01*
X130187737Y-107221197D01*
X130162327Y-107234779D01*
X130140056Y-107253056D01*
X130121779Y-107275327D01*
X130108197Y-107300737D01*
X130099833Y-107328310D01*
X130096990Y-107357176D01*
X130095825Y-107358802D01*
X130093835Y-107358606D01*
X130093000Y-107356980D01*
X130093000Y-107335620D01*
X130093010Y-107335424D01*
X130095937Y-107305701D01*
X130096013Y-107305316D01*
X130102891Y-107282643D01*
X130103041Y-107282281D01*
X130114211Y-107261384D01*
X130114429Y-107261058D01*
X130131077Y-107240771D01*
X130131209Y-107240626D01*
X130144812Y-107227023D01*
X130158206Y-107206976D01*
X130167432Y-107184702D01*
X130172136Y-107161051D01*
X130172136Y-107136945D01*
X130167431Y-107113295D01*
X130158205Y-107091022D01*
X130144810Y-107070974D01*
X130131208Y-107057372D01*
X130131076Y-107057227D01*
X130114429Y-107036942D01*
X130114211Y-107036616D01*
X130103041Y-107015719D01*
X130102891Y-107015357D01*
X130096013Y-106992684D01*
X130095937Y-106992299D01*
X130093010Y-106962576D01*
X130093000Y-106962380D01*
X130093000Y-106941020D01*
X130094000Y-106939288D01*
X130096000Y-106939288D01*
X130096990Y-106940824D01*
X130099833Y-106969690D01*
X130108197Y-106997263D01*
X130121779Y-107022673D01*
X130140056Y-107044944D01*
X130162327Y-107063221D01*
X130187737Y-107076803D01*
X130215310Y-107085167D01*
X130244074Y-107088000D01*
X131607926Y-107088000D01*
X131636690Y-107085167D01*
X131664263Y-107076803D01*
X131689673Y-107063221D01*
X131711944Y-107044944D01*
X131730221Y-107022673D01*
X131743803Y-106997263D01*
X131752167Y-106969690D01*
X131755010Y-106940824D01*
X131756175Y-106939198D01*
X131758165Y-106939394D01*
G37*
G36*
X125559576Y-104636010D02*
G01*
X125589299Y-104638937D01*
X125589684Y-104639013D01*
X125612357Y-104645891D01*
X125612719Y-104646041D01*
X125633616Y-104657211D01*
X125633942Y-104657429D01*
X125654229Y-104674077D01*
X125654374Y-104674209D01*
X125667977Y-104687812D01*
X125688024Y-104701206D01*
X125710298Y-104710432D01*
X125733949Y-104715136D01*
X125758055Y-104715136D01*
X125781705Y-104710431D01*
X125803978Y-104701205D01*
X125824026Y-104687810D01*
X125837628Y-104674208D01*
X125837773Y-104674076D01*
X125858058Y-104657429D01*
X125858384Y-104657211D01*
X125879281Y-104646041D01*
X125879643Y-104645891D01*
X125902316Y-104639013D01*
X125902701Y-104638937D01*
X125932424Y-104636010D01*
X125932620Y-104636000D01*
X125953980Y-104636000D01*
X125955712Y-104637000D01*
X125955712Y-104639000D01*
X125954176Y-104639990D01*
X125925310Y-104642833D01*
X125897737Y-104651197D01*
X125872327Y-104664779D01*
X125850056Y-104683056D01*
X125831779Y-104705327D01*
X125818197Y-104730737D01*
X125809833Y-104758310D01*
X125807000Y-104787074D01*
X125807000Y-106150926D01*
X125809833Y-106179690D01*
X125818197Y-106207263D01*
X125831779Y-106232673D01*
X125850056Y-106254944D01*
X125872327Y-106273221D01*
X125897737Y-106286803D01*
X125925310Y-106295167D01*
X125954176Y-106298010D01*
X125955802Y-106299175D01*
X125955606Y-106301165D01*
X125953980Y-106302000D01*
X125932620Y-106302000D01*
X125932424Y-106301990D01*
X125902701Y-106299063D01*
X125902316Y-106298987D01*
X125879643Y-106292109D01*
X125879281Y-106291959D01*
X125858384Y-106280789D01*
X125858058Y-106280571D01*
X125837771Y-106263923D01*
X125837626Y-106263791D01*
X125824023Y-106250188D01*
X125803976Y-106236794D01*
X125781702Y-106227568D01*
X125758051Y-106222864D01*
X125733945Y-106222864D01*
X125710295Y-106227569D01*
X125688022Y-106236795D01*
X125667974Y-106250190D01*
X125654372Y-106263792D01*
X125654227Y-106263924D01*
X125633942Y-106280571D01*
X125633616Y-106280789D01*
X125612719Y-106291959D01*
X125612357Y-106292109D01*
X125589684Y-106298987D01*
X125589299Y-106299063D01*
X125559576Y-106301990D01*
X125559380Y-106302000D01*
X125538020Y-106302000D01*
X125536288Y-106301000D01*
X125536288Y-106299000D01*
X125537824Y-106298010D01*
X125566690Y-106295167D01*
X125594263Y-106286803D01*
X125619673Y-106273221D01*
X125641944Y-106254944D01*
X125660221Y-106232673D01*
X125673803Y-106207263D01*
X125682167Y-106179690D01*
X125685000Y-106150926D01*
X125685000Y-104787074D01*
X125682167Y-104758310D01*
X125673803Y-104730737D01*
X125660221Y-104705327D01*
X125641944Y-104683056D01*
X125619673Y-104664779D01*
X125594263Y-104651197D01*
X125566690Y-104642833D01*
X125537824Y-104639990D01*
X125536198Y-104638825D01*
X125536394Y-104636835D01*
X125538020Y-104636000D01*
X125559380Y-104636000D01*
X125559576Y-104636010D01*
G37*
G36*
X128059576Y-104636010D02*
G01*
X128089299Y-104638937D01*
X128089684Y-104639013D01*
X128112357Y-104645891D01*
X128112719Y-104646041D01*
X128133616Y-104657211D01*
X128133942Y-104657429D01*
X128154229Y-104674077D01*
X128154374Y-104674209D01*
X128167977Y-104687812D01*
X128188024Y-104701206D01*
X128210298Y-104710432D01*
X128233949Y-104715136D01*
X128258055Y-104715136D01*
X128281705Y-104710431D01*
X128303978Y-104701205D01*
X128324026Y-104687810D01*
X128337628Y-104674208D01*
X128337773Y-104674076D01*
X128358058Y-104657429D01*
X128358384Y-104657211D01*
X128379281Y-104646041D01*
X128379643Y-104645891D01*
X128402316Y-104639013D01*
X128402701Y-104638937D01*
X128432424Y-104636010D01*
X128432620Y-104636000D01*
X128453980Y-104636000D01*
X128455712Y-104637000D01*
X128455712Y-104639000D01*
X128454176Y-104639990D01*
X128425310Y-104642833D01*
X128397737Y-104651197D01*
X128372327Y-104664779D01*
X128350056Y-104683056D01*
X128331779Y-104705327D01*
X128318197Y-104730737D01*
X128309833Y-104758310D01*
X128307000Y-104787074D01*
X128307000Y-106150926D01*
X128309833Y-106179690D01*
X128318197Y-106207263D01*
X128331779Y-106232673D01*
X128350056Y-106254944D01*
X128372327Y-106273221D01*
X128397737Y-106286803D01*
X128425310Y-106295167D01*
X128454176Y-106298010D01*
X128455802Y-106299175D01*
X128455606Y-106301165D01*
X128453980Y-106302000D01*
X128432620Y-106302000D01*
X128432424Y-106301990D01*
X128402701Y-106299063D01*
X128402316Y-106298987D01*
X128379643Y-106292109D01*
X128379281Y-106291959D01*
X128358384Y-106280789D01*
X128358058Y-106280571D01*
X128337771Y-106263923D01*
X128337626Y-106263791D01*
X128324023Y-106250188D01*
X128303976Y-106236794D01*
X128281702Y-106227568D01*
X128258051Y-106222864D01*
X128233945Y-106222864D01*
X128210295Y-106227569D01*
X128188022Y-106236795D01*
X128167974Y-106250190D01*
X128154372Y-106263792D01*
X128154227Y-106263924D01*
X128133942Y-106280571D01*
X128133616Y-106280789D01*
X128112719Y-106291959D01*
X128112357Y-106292109D01*
X128089684Y-106298987D01*
X128089299Y-106299063D01*
X128059576Y-106301990D01*
X128059380Y-106302000D01*
X128038020Y-106302000D01*
X128036288Y-106301000D01*
X128036288Y-106299000D01*
X128037824Y-106298010D01*
X128066690Y-106295167D01*
X128094263Y-106286803D01*
X128119673Y-106273221D01*
X128141944Y-106254944D01*
X128160221Y-106232673D01*
X128173803Y-106207263D01*
X128182167Y-106179690D01*
X128185000Y-106150926D01*
X128185000Y-104787074D01*
X128182167Y-104758310D01*
X128173803Y-104730737D01*
X128160221Y-104705327D01*
X128141944Y-104683056D01*
X128119673Y-104664779D01*
X128094263Y-104651197D01*
X128066690Y-104642833D01*
X128037824Y-104639990D01*
X128036198Y-104638825D01*
X128036394Y-104636835D01*
X128038020Y-104636000D01*
X128059380Y-104636000D01*
X128059576Y-104636010D01*
G37*
G36*
X125059576Y-104636010D02*
G01*
X125089299Y-104638937D01*
X125089684Y-104639013D01*
X125112357Y-104645891D01*
X125112719Y-104646041D01*
X125133616Y-104657211D01*
X125133942Y-104657429D01*
X125154229Y-104674077D01*
X125154374Y-104674209D01*
X125167977Y-104687812D01*
X125188024Y-104701206D01*
X125210298Y-104710432D01*
X125233949Y-104715136D01*
X125258055Y-104715136D01*
X125281705Y-104710431D01*
X125303978Y-104701205D01*
X125324026Y-104687810D01*
X125337628Y-104674208D01*
X125337773Y-104674076D01*
X125358058Y-104657429D01*
X125358384Y-104657211D01*
X125379281Y-104646041D01*
X125379643Y-104645891D01*
X125402316Y-104639013D01*
X125402701Y-104638937D01*
X125432424Y-104636010D01*
X125432620Y-104636000D01*
X125453980Y-104636000D01*
X125455712Y-104637000D01*
X125455712Y-104639000D01*
X125454176Y-104639990D01*
X125425310Y-104642833D01*
X125397737Y-104651197D01*
X125372327Y-104664779D01*
X125350056Y-104683056D01*
X125331779Y-104705327D01*
X125318197Y-104730737D01*
X125309833Y-104758310D01*
X125307000Y-104787074D01*
X125307000Y-106150926D01*
X125309833Y-106179690D01*
X125318197Y-106207263D01*
X125331779Y-106232673D01*
X125350056Y-106254944D01*
X125372327Y-106273221D01*
X125397737Y-106286803D01*
X125425310Y-106295167D01*
X125454176Y-106298010D01*
X125455802Y-106299175D01*
X125455606Y-106301165D01*
X125453980Y-106302000D01*
X125432620Y-106302000D01*
X125432424Y-106301990D01*
X125402701Y-106299063D01*
X125402316Y-106298987D01*
X125379643Y-106292109D01*
X125379281Y-106291959D01*
X125358384Y-106280789D01*
X125358058Y-106280571D01*
X125337771Y-106263923D01*
X125337626Y-106263791D01*
X125324023Y-106250188D01*
X125303976Y-106236794D01*
X125281702Y-106227568D01*
X125258051Y-106222864D01*
X125233945Y-106222864D01*
X125210295Y-106227569D01*
X125188022Y-106236795D01*
X125167974Y-106250190D01*
X125154372Y-106263792D01*
X125154227Y-106263924D01*
X125133942Y-106280571D01*
X125133616Y-106280789D01*
X125112719Y-106291959D01*
X125112357Y-106292109D01*
X125089684Y-106298987D01*
X125089299Y-106299063D01*
X125059576Y-106301990D01*
X125059380Y-106302000D01*
X125038020Y-106302000D01*
X125036288Y-106301000D01*
X125036288Y-106299000D01*
X125037824Y-106298010D01*
X125066690Y-106295167D01*
X125094263Y-106286803D01*
X125119673Y-106273221D01*
X125141944Y-106254944D01*
X125160221Y-106232673D01*
X125173803Y-106207263D01*
X125182167Y-106179690D01*
X125185000Y-106150926D01*
X125185000Y-104787074D01*
X125182167Y-104758310D01*
X125173803Y-104730737D01*
X125160221Y-104705327D01*
X125141944Y-104683056D01*
X125119673Y-104664779D01*
X125094263Y-104651197D01*
X125066690Y-104642833D01*
X125037824Y-104639990D01*
X125036198Y-104638825D01*
X125036394Y-104636835D01*
X125038020Y-104636000D01*
X125059380Y-104636000D01*
X125059576Y-104636010D01*
G37*
G36*
X126059576Y-104636010D02*
G01*
X126089299Y-104638937D01*
X126089684Y-104639013D01*
X126112357Y-104645891D01*
X126112719Y-104646041D01*
X126133616Y-104657211D01*
X126133942Y-104657429D01*
X126154229Y-104674077D01*
X126154374Y-104674209D01*
X126167977Y-104687812D01*
X126188024Y-104701206D01*
X126210298Y-104710432D01*
X126233949Y-104715136D01*
X126258055Y-104715136D01*
X126281705Y-104710431D01*
X126303978Y-104701205D01*
X126324026Y-104687810D01*
X126337628Y-104674208D01*
X126337773Y-104674076D01*
X126358058Y-104657429D01*
X126358384Y-104657211D01*
X126379281Y-104646041D01*
X126379643Y-104645891D01*
X126402316Y-104639013D01*
X126402701Y-104638937D01*
X126432424Y-104636010D01*
X126432620Y-104636000D01*
X126453980Y-104636000D01*
X126455712Y-104637000D01*
X126455712Y-104639000D01*
X126454176Y-104639990D01*
X126425310Y-104642833D01*
X126397737Y-104651197D01*
X126372327Y-104664779D01*
X126350056Y-104683056D01*
X126331779Y-104705327D01*
X126318197Y-104730737D01*
X126309833Y-104758310D01*
X126307000Y-104787074D01*
X126307000Y-106150926D01*
X126309833Y-106179690D01*
X126318197Y-106207263D01*
X126331779Y-106232673D01*
X126350056Y-106254944D01*
X126372327Y-106273221D01*
X126397737Y-106286803D01*
X126425310Y-106295167D01*
X126454176Y-106298010D01*
X126455802Y-106299175D01*
X126455606Y-106301165D01*
X126453980Y-106302000D01*
X126432620Y-106302000D01*
X126432424Y-106301990D01*
X126402701Y-106299063D01*
X126402316Y-106298987D01*
X126379643Y-106292109D01*
X126379281Y-106291959D01*
X126358384Y-106280789D01*
X126358058Y-106280571D01*
X126337771Y-106263923D01*
X126337626Y-106263791D01*
X126324023Y-106250188D01*
X126303976Y-106236794D01*
X126281702Y-106227568D01*
X126258051Y-106222864D01*
X126233945Y-106222864D01*
X126210295Y-106227569D01*
X126188022Y-106236795D01*
X126167974Y-106250190D01*
X126154372Y-106263792D01*
X126154227Y-106263924D01*
X126133942Y-106280571D01*
X126133616Y-106280789D01*
X126112719Y-106291959D01*
X126112357Y-106292109D01*
X126089684Y-106298987D01*
X126089299Y-106299063D01*
X126059576Y-106301990D01*
X126059380Y-106302000D01*
X126038020Y-106302000D01*
X126036288Y-106301000D01*
X126036288Y-106299000D01*
X126037824Y-106298010D01*
X126066690Y-106295167D01*
X126094263Y-106286803D01*
X126119673Y-106273221D01*
X126141944Y-106254944D01*
X126160221Y-106232673D01*
X126173803Y-106207263D01*
X126182167Y-106179690D01*
X126185000Y-106150926D01*
X126185000Y-104787074D01*
X126182167Y-104758310D01*
X126173803Y-104730737D01*
X126160221Y-104705327D01*
X126141944Y-104683056D01*
X126119673Y-104664779D01*
X126094263Y-104651197D01*
X126066690Y-104642833D01*
X126037824Y-104639990D01*
X126036198Y-104638825D01*
X126036394Y-104636835D01*
X126038020Y-104636000D01*
X126059380Y-104636000D01*
X126059576Y-104636010D01*
G37*
G36*
X126559576Y-104636010D02*
G01*
X126589299Y-104638937D01*
X126589684Y-104639013D01*
X126612357Y-104645891D01*
X126612719Y-104646041D01*
X126633616Y-104657211D01*
X126633942Y-104657429D01*
X126654229Y-104674077D01*
X126654374Y-104674209D01*
X126667977Y-104687812D01*
X126688024Y-104701206D01*
X126710298Y-104710432D01*
X126733949Y-104715136D01*
X126758055Y-104715136D01*
X126781705Y-104710431D01*
X126803978Y-104701205D01*
X126824026Y-104687810D01*
X126837628Y-104674208D01*
X126837773Y-104674076D01*
X126858058Y-104657429D01*
X126858384Y-104657211D01*
X126879281Y-104646041D01*
X126879643Y-104645891D01*
X126902316Y-104639013D01*
X126902701Y-104638937D01*
X126932424Y-104636010D01*
X126932620Y-104636000D01*
X126953980Y-104636000D01*
X126955712Y-104637000D01*
X126955712Y-104639000D01*
X126954176Y-104639990D01*
X126925310Y-104642833D01*
X126897737Y-104651197D01*
X126872327Y-104664779D01*
X126850056Y-104683056D01*
X126831779Y-104705327D01*
X126818197Y-104730737D01*
X126809833Y-104758310D01*
X126807000Y-104787074D01*
X126807000Y-106150926D01*
X126809833Y-106179690D01*
X126818197Y-106207263D01*
X126831779Y-106232673D01*
X126850056Y-106254944D01*
X126872327Y-106273221D01*
X126897737Y-106286803D01*
X126925310Y-106295167D01*
X126954176Y-106298010D01*
X126955802Y-106299175D01*
X126955606Y-106301165D01*
X126953980Y-106302000D01*
X126932620Y-106302000D01*
X126932424Y-106301990D01*
X126902701Y-106299063D01*
X126902316Y-106298987D01*
X126879643Y-106292109D01*
X126879281Y-106291959D01*
X126858384Y-106280789D01*
X126858058Y-106280571D01*
X126837771Y-106263923D01*
X126837626Y-106263791D01*
X126824023Y-106250188D01*
X126803976Y-106236794D01*
X126781702Y-106227568D01*
X126758051Y-106222864D01*
X126733945Y-106222864D01*
X126710295Y-106227569D01*
X126688022Y-106236795D01*
X126667974Y-106250190D01*
X126654372Y-106263792D01*
X126654227Y-106263924D01*
X126633942Y-106280571D01*
X126633616Y-106280789D01*
X126612719Y-106291959D01*
X126612357Y-106292109D01*
X126589684Y-106298987D01*
X126589299Y-106299063D01*
X126559576Y-106301990D01*
X126559380Y-106302000D01*
X126538020Y-106302000D01*
X126536288Y-106301000D01*
X126536288Y-106299000D01*
X126537824Y-106298010D01*
X126566690Y-106295167D01*
X126594263Y-106286803D01*
X126619673Y-106273221D01*
X126641944Y-106254944D01*
X126660221Y-106232673D01*
X126673803Y-106207263D01*
X126682167Y-106179690D01*
X126685000Y-106150926D01*
X126685000Y-104787074D01*
X126682167Y-104758310D01*
X126673803Y-104730737D01*
X126660221Y-104705327D01*
X126641944Y-104683056D01*
X126619673Y-104664779D01*
X126594263Y-104651197D01*
X126566690Y-104642833D01*
X126537824Y-104639990D01*
X126536198Y-104638825D01*
X126536394Y-104636835D01*
X126538020Y-104636000D01*
X126559380Y-104636000D01*
X126559576Y-104636010D01*
G37*
G36*
X124559576Y-104636010D02*
G01*
X124589299Y-104638937D01*
X124589684Y-104639013D01*
X124612357Y-104645891D01*
X124612719Y-104646041D01*
X124633616Y-104657211D01*
X124633942Y-104657429D01*
X124654229Y-104674077D01*
X124654374Y-104674209D01*
X124667977Y-104687812D01*
X124688024Y-104701206D01*
X124710298Y-104710432D01*
X124733949Y-104715136D01*
X124758055Y-104715136D01*
X124781705Y-104710431D01*
X124803978Y-104701205D01*
X124824026Y-104687810D01*
X124837628Y-104674208D01*
X124837773Y-104674076D01*
X124858058Y-104657429D01*
X124858384Y-104657211D01*
X124879281Y-104646041D01*
X124879643Y-104645891D01*
X124902316Y-104639013D01*
X124902701Y-104638937D01*
X124932424Y-104636010D01*
X124932620Y-104636000D01*
X124953980Y-104636000D01*
X124955712Y-104637000D01*
X124955712Y-104639000D01*
X124954176Y-104639990D01*
X124925310Y-104642833D01*
X124897737Y-104651197D01*
X124872327Y-104664779D01*
X124850056Y-104683056D01*
X124831779Y-104705327D01*
X124818197Y-104730737D01*
X124809833Y-104758310D01*
X124807000Y-104787074D01*
X124807000Y-106150926D01*
X124809833Y-106179690D01*
X124818197Y-106207263D01*
X124831779Y-106232673D01*
X124850056Y-106254944D01*
X124872327Y-106273221D01*
X124897737Y-106286803D01*
X124925310Y-106295167D01*
X124954176Y-106298010D01*
X124955802Y-106299175D01*
X124955606Y-106301165D01*
X124953980Y-106302000D01*
X124932620Y-106302000D01*
X124932424Y-106301990D01*
X124902701Y-106299063D01*
X124902316Y-106298987D01*
X124879643Y-106292109D01*
X124879281Y-106291959D01*
X124858384Y-106280789D01*
X124858058Y-106280571D01*
X124837771Y-106263923D01*
X124837626Y-106263791D01*
X124824023Y-106250188D01*
X124803976Y-106236794D01*
X124781702Y-106227568D01*
X124758051Y-106222864D01*
X124733945Y-106222864D01*
X124710295Y-106227569D01*
X124688022Y-106236795D01*
X124667974Y-106250190D01*
X124654372Y-106263792D01*
X124654227Y-106263924D01*
X124633942Y-106280571D01*
X124633616Y-106280789D01*
X124612719Y-106291959D01*
X124612357Y-106292109D01*
X124589684Y-106298987D01*
X124589299Y-106299063D01*
X124559576Y-106301990D01*
X124559380Y-106302000D01*
X124538020Y-106302000D01*
X124536288Y-106301000D01*
X124536288Y-106299000D01*
X124537824Y-106298010D01*
X124566690Y-106295167D01*
X124594263Y-106286803D01*
X124619673Y-106273221D01*
X124641944Y-106254944D01*
X124660221Y-106232673D01*
X124673803Y-106207263D01*
X124682167Y-106179690D01*
X124685000Y-106150926D01*
X124685000Y-104787074D01*
X124682167Y-104758310D01*
X124673803Y-104730737D01*
X124660221Y-104705327D01*
X124641944Y-104683056D01*
X124619673Y-104664779D01*
X124594263Y-104651197D01*
X124566690Y-104642833D01*
X124537824Y-104639990D01*
X124536198Y-104638825D01*
X124536394Y-104636835D01*
X124538020Y-104636000D01*
X124559380Y-104636000D01*
X124559576Y-104636010D01*
G37*
G36*
X127559576Y-104636010D02*
G01*
X127589299Y-104638937D01*
X127589684Y-104639013D01*
X127612357Y-104645891D01*
X127612719Y-104646041D01*
X127633616Y-104657211D01*
X127633942Y-104657429D01*
X127654229Y-104674077D01*
X127654374Y-104674209D01*
X127667977Y-104687812D01*
X127688024Y-104701206D01*
X127710298Y-104710432D01*
X127733949Y-104715136D01*
X127758055Y-104715136D01*
X127781705Y-104710431D01*
X127803978Y-104701205D01*
X127824026Y-104687810D01*
X127837628Y-104674208D01*
X127837773Y-104674076D01*
X127858058Y-104657429D01*
X127858384Y-104657211D01*
X127879281Y-104646041D01*
X127879643Y-104645891D01*
X127902316Y-104639013D01*
X127902701Y-104638937D01*
X127932424Y-104636010D01*
X127932620Y-104636000D01*
X127953980Y-104636000D01*
X127955712Y-104637000D01*
X127955712Y-104639000D01*
X127954176Y-104639990D01*
X127925310Y-104642833D01*
X127897737Y-104651197D01*
X127872327Y-104664779D01*
X127850056Y-104683056D01*
X127831779Y-104705327D01*
X127818197Y-104730737D01*
X127809833Y-104758310D01*
X127807000Y-104787074D01*
X127807000Y-106150926D01*
X127809833Y-106179690D01*
X127818197Y-106207263D01*
X127831779Y-106232673D01*
X127850056Y-106254944D01*
X127872327Y-106273221D01*
X127897737Y-106286803D01*
X127925310Y-106295167D01*
X127954176Y-106298010D01*
X127955802Y-106299175D01*
X127955606Y-106301165D01*
X127953980Y-106302000D01*
X127932620Y-106302000D01*
X127932424Y-106301990D01*
X127902701Y-106299063D01*
X127902316Y-106298987D01*
X127879643Y-106292109D01*
X127879281Y-106291959D01*
X127858384Y-106280789D01*
X127858058Y-106280571D01*
X127837771Y-106263923D01*
X127837626Y-106263791D01*
X127824023Y-106250188D01*
X127803976Y-106236794D01*
X127781702Y-106227568D01*
X127758051Y-106222864D01*
X127733945Y-106222864D01*
X127710295Y-106227569D01*
X127688022Y-106236795D01*
X127667974Y-106250190D01*
X127654372Y-106263792D01*
X127654227Y-106263924D01*
X127633942Y-106280571D01*
X127633616Y-106280789D01*
X127612719Y-106291959D01*
X127612357Y-106292109D01*
X127589684Y-106298987D01*
X127589299Y-106299063D01*
X127559576Y-106301990D01*
X127559380Y-106302000D01*
X127538020Y-106302000D01*
X127536288Y-106301000D01*
X127536288Y-106299000D01*
X127537824Y-106298010D01*
X127566690Y-106295167D01*
X127594263Y-106286803D01*
X127619673Y-106273221D01*
X127641944Y-106254944D01*
X127660221Y-106232673D01*
X127673803Y-106207263D01*
X127682167Y-106179690D01*
X127685000Y-106150926D01*
X127685000Y-104787074D01*
X127682167Y-104758310D01*
X127673803Y-104730737D01*
X127660221Y-104705327D01*
X127641944Y-104683056D01*
X127619673Y-104664779D01*
X127594263Y-104651197D01*
X127566690Y-104642833D01*
X127537824Y-104639990D01*
X127536198Y-104638825D01*
X127536394Y-104636835D01*
X127538020Y-104636000D01*
X127559380Y-104636000D01*
X127559576Y-104636010D01*
G37*
G36*
X127059576Y-104636010D02*
G01*
X127089299Y-104638937D01*
X127089684Y-104639013D01*
X127112357Y-104645891D01*
X127112719Y-104646041D01*
X127133616Y-104657211D01*
X127133942Y-104657429D01*
X127154229Y-104674077D01*
X127154374Y-104674209D01*
X127167977Y-104687812D01*
X127188024Y-104701206D01*
X127210298Y-104710432D01*
X127233949Y-104715136D01*
X127258055Y-104715136D01*
X127281705Y-104710431D01*
X127303978Y-104701205D01*
X127324026Y-104687810D01*
X127337628Y-104674208D01*
X127337773Y-104674076D01*
X127358058Y-104657429D01*
X127358384Y-104657211D01*
X127379281Y-104646041D01*
X127379643Y-104645891D01*
X127402316Y-104639013D01*
X127402701Y-104638937D01*
X127432424Y-104636010D01*
X127432620Y-104636000D01*
X127453980Y-104636000D01*
X127455712Y-104637000D01*
X127455712Y-104639000D01*
X127454176Y-104639990D01*
X127425310Y-104642833D01*
X127397737Y-104651197D01*
X127372327Y-104664779D01*
X127350056Y-104683056D01*
X127331779Y-104705327D01*
X127318197Y-104730737D01*
X127309833Y-104758310D01*
X127307000Y-104787074D01*
X127307000Y-106150926D01*
X127309833Y-106179690D01*
X127318197Y-106207263D01*
X127331779Y-106232673D01*
X127350056Y-106254944D01*
X127372327Y-106273221D01*
X127397737Y-106286803D01*
X127425310Y-106295167D01*
X127454176Y-106298010D01*
X127455802Y-106299175D01*
X127455606Y-106301165D01*
X127453980Y-106302000D01*
X127432620Y-106302000D01*
X127432424Y-106301990D01*
X127402701Y-106299063D01*
X127402316Y-106298987D01*
X127379643Y-106292109D01*
X127379281Y-106291959D01*
X127358384Y-106280789D01*
X127358058Y-106280571D01*
X127337771Y-106263923D01*
X127337626Y-106263791D01*
X127324023Y-106250188D01*
X127303976Y-106236794D01*
X127281702Y-106227568D01*
X127258051Y-106222864D01*
X127233945Y-106222864D01*
X127210295Y-106227569D01*
X127188022Y-106236795D01*
X127167974Y-106250190D01*
X127154372Y-106263792D01*
X127154227Y-106263924D01*
X127133942Y-106280571D01*
X127133616Y-106280789D01*
X127112719Y-106291959D01*
X127112357Y-106292109D01*
X127089684Y-106298987D01*
X127089299Y-106299063D01*
X127059576Y-106301990D01*
X127059380Y-106302000D01*
X127038020Y-106302000D01*
X127036288Y-106301000D01*
X127036288Y-106299000D01*
X127037824Y-106298010D01*
X127066690Y-106295167D01*
X127094263Y-106286803D01*
X127119673Y-106273221D01*
X127141944Y-106254944D01*
X127160221Y-106232673D01*
X127173803Y-106207263D01*
X127182167Y-106179690D01*
X127185000Y-106150926D01*
X127185000Y-104787074D01*
X127182167Y-104758310D01*
X127173803Y-104730737D01*
X127160221Y-104705327D01*
X127141944Y-104683056D01*
X127119673Y-104664779D01*
X127094263Y-104651197D01*
X127066690Y-104642833D01*
X127037824Y-104639990D01*
X127036198Y-104638825D01*
X127036394Y-104636835D01*
X127038020Y-104636000D01*
X127059380Y-104636000D01*
X127059576Y-104636010D01*
G37*
G36*
X129059576Y-104636010D02*
G01*
X129089299Y-104638937D01*
X129089684Y-104639013D01*
X129112357Y-104645891D01*
X129112719Y-104646041D01*
X129133616Y-104657211D01*
X129133942Y-104657429D01*
X129154229Y-104674077D01*
X129154374Y-104674209D01*
X129167977Y-104687812D01*
X129188024Y-104701206D01*
X129210298Y-104710432D01*
X129233949Y-104715136D01*
X129258055Y-104715136D01*
X129281705Y-104710431D01*
X129303978Y-104701205D01*
X129324026Y-104687810D01*
X129337628Y-104674208D01*
X129337773Y-104674076D01*
X129358058Y-104657429D01*
X129358384Y-104657211D01*
X129379281Y-104646041D01*
X129379643Y-104645891D01*
X129402316Y-104639013D01*
X129402701Y-104638937D01*
X129432424Y-104636010D01*
X129432620Y-104636000D01*
X129453980Y-104636000D01*
X129455712Y-104637000D01*
X129455712Y-104639000D01*
X129454176Y-104639990D01*
X129425310Y-104642833D01*
X129397737Y-104651197D01*
X129372327Y-104664779D01*
X129350056Y-104683056D01*
X129331779Y-104705327D01*
X129318197Y-104730737D01*
X129309833Y-104758310D01*
X129307000Y-104787074D01*
X129307000Y-106150926D01*
X129309833Y-106179690D01*
X129318197Y-106207263D01*
X129331779Y-106232673D01*
X129350056Y-106254944D01*
X129372327Y-106273221D01*
X129397737Y-106286803D01*
X129425310Y-106295167D01*
X129454176Y-106298010D01*
X129455802Y-106299175D01*
X129455606Y-106301165D01*
X129453980Y-106302000D01*
X129432620Y-106302000D01*
X129432424Y-106301990D01*
X129402701Y-106299063D01*
X129402316Y-106298987D01*
X129379643Y-106292109D01*
X129379281Y-106291959D01*
X129358384Y-106280789D01*
X129358058Y-106280571D01*
X129337771Y-106263923D01*
X129337626Y-106263791D01*
X129324023Y-106250188D01*
X129303976Y-106236794D01*
X129281702Y-106227568D01*
X129258051Y-106222864D01*
X129233945Y-106222864D01*
X129210295Y-106227569D01*
X129188022Y-106236795D01*
X129167974Y-106250190D01*
X129154372Y-106263792D01*
X129154227Y-106263924D01*
X129133942Y-106280571D01*
X129133616Y-106280789D01*
X129112719Y-106291959D01*
X129112357Y-106292109D01*
X129089684Y-106298987D01*
X129089299Y-106299063D01*
X129059576Y-106301990D01*
X129059380Y-106302000D01*
X129038020Y-106302000D01*
X129036288Y-106301000D01*
X129036288Y-106299000D01*
X129037824Y-106298010D01*
X129066690Y-106295167D01*
X129094263Y-106286803D01*
X129119673Y-106273221D01*
X129141944Y-106254944D01*
X129160221Y-106232673D01*
X129173803Y-106207263D01*
X129182167Y-106179690D01*
X129185000Y-106150926D01*
X129185000Y-104787074D01*
X129182167Y-104758310D01*
X129173803Y-104730737D01*
X129160221Y-104705327D01*
X129141944Y-104683056D01*
X129119673Y-104664779D01*
X129094263Y-104651197D01*
X129066690Y-104642833D01*
X129037824Y-104639990D01*
X129036198Y-104638825D01*
X129036394Y-104636835D01*
X129038020Y-104636000D01*
X129059380Y-104636000D01*
X129059576Y-104636010D01*
G37*
G36*
X128559576Y-104636010D02*
G01*
X128589299Y-104638937D01*
X128589684Y-104639013D01*
X128612357Y-104645891D01*
X128612719Y-104646041D01*
X128633616Y-104657211D01*
X128633942Y-104657429D01*
X128654229Y-104674077D01*
X128654374Y-104674209D01*
X128667977Y-104687812D01*
X128688024Y-104701206D01*
X128710298Y-104710432D01*
X128733949Y-104715136D01*
X128758055Y-104715136D01*
X128781705Y-104710431D01*
X128803978Y-104701205D01*
X128824026Y-104687810D01*
X128837628Y-104674208D01*
X128837773Y-104674076D01*
X128858058Y-104657429D01*
X128858384Y-104657211D01*
X128879281Y-104646041D01*
X128879643Y-104645891D01*
X128902316Y-104639013D01*
X128902701Y-104638937D01*
X128932424Y-104636010D01*
X128932620Y-104636000D01*
X128953980Y-104636000D01*
X128955712Y-104637000D01*
X128955712Y-104639000D01*
X128954176Y-104639990D01*
X128925310Y-104642833D01*
X128897737Y-104651197D01*
X128872327Y-104664779D01*
X128850056Y-104683056D01*
X128831779Y-104705327D01*
X128818197Y-104730737D01*
X128809833Y-104758310D01*
X128807000Y-104787074D01*
X128807000Y-106150926D01*
X128809833Y-106179690D01*
X128818197Y-106207263D01*
X128831779Y-106232673D01*
X128850056Y-106254944D01*
X128872327Y-106273221D01*
X128897737Y-106286803D01*
X128925310Y-106295167D01*
X128954176Y-106298010D01*
X128955802Y-106299175D01*
X128955606Y-106301165D01*
X128953980Y-106302000D01*
X128932620Y-106302000D01*
X128932424Y-106301990D01*
X128902701Y-106299063D01*
X128902316Y-106298987D01*
X128879643Y-106292109D01*
X128879281Y-106291959D01*
X128858384Y-106280789D01*
X128858058Y-106280571D01*
X128837771Y-106263923D01*
X128837626Y-106263791D01*
X128824023Y-106250188D01*
X128803976Y-106236794D01*
X128781702Y-106227568D01*
X128758051Y-106222864D01*
X128733945Y-106222864D01*
X128710295Y-106227569D01*
X128688022Y-106236795D01*
X128667974Y-106250190D01*
X128654372Y-106263792D01*
X128654227Y-106263924D01*
X128633942Y-106280571D01*
X128633616Y-106280789D01*
X128612719Y-106291959D01*
X128612357Y-106292109D01*
X128589684Y-106298987D01*
X128589299Y-106299063D01*
X128559576Y-106301990D01*
X128559380Y-106302000D01*
X128538020Y-106302000D01*
X128536288Y-106301000D01*
X128536288Y-106299000D01*
X128537824Y-106298010D01*
X128566690Y-106295167D01*
X128594263Y-106286803D01*
X128619673Y-106273221D01*
X128641944Y-106254944D01*
X128660221Y-106232673D01*
X128673803Y-106207263D01*
X128682167Y-106179690D01*
X128685000Y-106150926D01*
X128685000Y-104787074D01*
X128682167Y-104758310D01*
X128673803Y-104730737D01*
X128660221Y-104705327D01*
X128641944Y-104683056D01*
X128619673Y-104664779D01*
X128594263Y-104651197D01*
X128566690Y-104642833D01*
X128537824Y-104639990D01*
X128536198Y-104638825D01*
X128536394Y-104636835D01*
X128538020Y-104636000D01*
X128559380Y-104636000D01*
X128559576Y-104636010D01*
G37*
G36*
X124059576Y-104636010D02*
G01*
X124089299Y-104638937D01*
X124089684Y-104639013D01*
X124112357Y-104645891D01*
X124112719Y-104646041D01*
X124133616Y-104657211D01*
X124133942Y-104657429D01*
X124154229Y-104674077D01*
X124154374Y-104674209D01*
X124167977Y-104687812D01*
X124188024Y-104701206D01*
X124210298Y-104710432D01*
X124233949Y-104715136D01*
X124258055Y-104715136D01*
X124281705Y-104710431D01*
X124303978Y-104701205D01*
X124324026Y-104687810D01*
X124337628Y-104674208D01*
X124337773Y-104674076D01*
X124358058Y-104657429D01*
X124358384Y-104657211D01*
X124379281Y-104646041D01*
X124379643Y-104645891D01*
X124402316Y-104639013D01*
X124402701Y-104638937D01*
X124432424Y-104636010D01*
X124432620Y-104636000D01*
X124453980Y-104636000D01*
X124455712Y-104637000D01*
X124455712Y-104639000D01*
X124454176Y-104639990D01*
X124425310Y-104642833D01*
X124397737Y-104651197D01*
X124372327Y-104664779D01*
X124350056Y-104683056D01*
X124331779Y-104705327D01*
X124318197Y-104730737D01*
X124309833Y-104758310D01*
X124307000Y-104787074D01*
X124307000Y-106150926D01*
X124309833Y-106179690D01*
X124318197Y-106207263D01*
X124331779Y-106232673D01*
X124350056Y-106254944D01*
X124372327Y-106273221D01*
X124397737Y-106286803D01*
X124425310Y-106295167D01*
X124454176Y-106298010D01*
X124455802Y-106299175D01*
X124455606Y-106301165D01*
X124453980Y-106302000D01*
X124432620Y-106302000D01*
X124432424Y-106301990D01*
X124402701Y-106299063D01*
X124402316Y-106298987D01*
X124379643Y-106292109D01*
X124379281Y-106291959D01*
X124358384Y-106280789D01*
X124358058Y-106280571D01*
X124337771Y-106263923D01*
X124337626Y-106263791D01*
X124324023Y-106250188D01*
X124303976Y-106236794D01*
X124281702Y-106227568D01*
X124258051Y-106222864D01*
X124233945Y-106222864D01*
X124210295Y-106227569D01*
X124188022Y-106236795D01*
X124167974Y-106250190D01*
X124154372Y-106263792D01*
X124154227Y-106263924D01*
X124133942Y-106280571D01*
X124133616Y-106280789D01*
X124112719Y-106291959D01*
X124112357Y-106292109D01*
X124089684Y-106298987D01*
X124089299Y-106299063D01*
X124059576Y-106301990D01*
X124059380Y-106302000D01*
X124038020Y-106302000D01*
X124036288Y-106301000D01*
X124036288Y-106299000D01*
X124037824Y-106298010D01*
X124066690Y-106295167D01*
X124094263Y-106286803D01*
X124119673Y-106273221D01*
X124141944Y-106254944D01*
X124160221Y-106232673D01*
X124173803Y-106207263D01*
X124182167Y-106179690D01*
X124185000Y-106150926D01*
X124185000Y-104787074D01*
X124182167Y-104758310D01*
X124173803Y-104730737D01*
X124160221Y-104705327D01*
X124141944Y-104683056D01*
X124119673Y-104664779D01*
X124094263Y-104651197D01*
X124066690Y-104642833D01*
X124037824Y-104639990D01*
X124036198Y-104638825D01*
X124036394Y-104636835D01*
X124038020Y-104636000D01*
X124059380Y-104636000D01*
X124059576Y-104636010D01*
G37*
G36*
X150566084Y-104809979D02*
G01*
X150567000Y-104811660D01*
X150567000Y-106074340D01*
X150566000Y-106076072D01*
X150564000Y-106076072D01*
X150563010Y-106074536D01*
X150560628Y-106050349D01*
X150553628Y-106027274D01*
X150542263Y-106006010D01*
X150526968Y-105987373D01*
X150508331Y-105972078D01*
X150487067Y-105960713D01*
X150463992Y-105953713D01*
X150440001Y-105951350D01*
X150416010Y-105953713D01*
X150392935Y-105960713D01*
X150371715Y-105972055D01*
X150347757Y-105993769D01*
X150345802Y-105994191D01*
X150344459Y-105992709D01*
X150344868Y-105991018D01*
X150348255Y-105986892D01*
X150401298Y-105887657D01*
X150433962Y-105779977D01*
X150445000Y-105667906D01*
X150445000Y-105218095D01*
X150433962Y-105106023D01*
X150401298Y-104998343D01*
X150348255Y-104899108D01*
X150346170Y-104896568D01*
X150345844Y-104894594D01*
X150347390Y-104893326D01*
X150349130Y-104893885D01*
X150361976Y-104906731D01*
X150382024Y-104920126D01*
X150404297Y-104929353D01*
X150427948Y-104934057D01*
X150452054Y-104934057D01*
X150475704Y-104929353D01*
X150497978Y-104920126D01*
X150518025Y-104906732D01*
X150535072Y-104889685D01*
X150548467Y-104869637D01*
X150557694Y-104847364D01*
X150562407Y-104823667D01*
X150563002Y-104811562D01*
X150564086Y-104809881D01*
X150566084Y-104809979D01*
G37*
G36*
X149130836Y-104989013D02*
G01*
X149140929Y-105004118D01*
X149157976Y-105021165D01*
X149178024Y-105034560D01*
X149200298Y-105043786D01*
X149223948Y-105048490D01*
X149248054Y-105048490D01*
X149271704Y-105043785D01*
X149293978Y-105034559D01*
X149314025Y-105021164D01*
X149331072Y-105004117D01*
X149341164Y-104989013D01*
X149342958Y-104988128D01*
X149344621Y-104989239D01*
X149344591Y-104991067D01*
X149340702Y-104998343D01*
X149308038Y-105106023D01*
X149297000Y-105218094D01*
X149297000Y-105667906D01*
X149308038Y-105779976D01*
X149340702Y-105887656D01*
X149344591Y-105894932D01*
X149344525Y-105896931D01*
X149342762Y-105897874D01*
X149341164Y-105896986D01*
X149331071Y-105881881D01*
X149314024Y-105864834D01*
X149293976Y-105851439D01*
X149271702Y-105842213D01*
X149248052Y-105837509D01*
X149223946Y-105837509D01*
X149200296Y-105842214D01*
X149178022Y-105851440D01*
X149157975Y-105864835D01*
X149140928Y-105881882D01*
X149130839Y-105896982D01*
X149129045Y-105897867D01*
X149127382Y-105896756D01*
X149127412Y-105894928D01*
X149131298Y-105887657D01*
X149163962Y-105779977D01*
X149175000Y-105667906D01*
X149175000Y-105218095D01*
X149163962Y-105106023D01*
X149131298Y-104998343D01*
X149127409Y-104991067D01*
X149127475Y-104989068D01*
X149129238Y-104988125D01*
X149130836Y-104989013D01*
G37*
G36*
X150555084Y-99744979D02*
G01*
X150556000Y-99746660D01*
X150556000Y-101009340D01*
X150555000Y-101011072D01*
X150553000Y-101011072D01*
X150552010Y-101009536D01*
X150549628Y-100985349D01*
X150542628Y-100962274D01*
X150531263Y-100941010D01*
X150515968Y-100922373D01*
X150497331Y-100907078D01*
X150476067Y-100895713D01*
X150452992Y-100888713D01*
X150429001Y-100886350D01*
X150405010Y-100888713D01*
X150381935Y-100895713D01*
X150360715Y-100907055D01*
X150336757Y-100928769D01*
X150334802Y-100929191D01*
X150333459Y-100927709D01*
X150333868Y-100926018D01*
X150337255Y-100921892D01*
X150390298Y-100822657D01*
X150422962Y-100714977D01*
X150434000Y-100602906D01*
X150434000Y-100153095D01*
X150422962Y-100041023D01*
X150390298Y-99933343D01*
X150337255Y-99834108D01*
X150335170Y-99831568D01*
X150334844Y-99829594D01*
X150336390Y-99828326D01*
X150338130Y-99828885D01*
X150350976Y-99841731D01*
X150371024Y-99855126D01*
X150393297Y-99864353D01*
X150416948Y-99869057D01*
X150441054Y-99869057D01*
X150464704Y-99864353D01*
X150486978Y-99855126D01*
X150507025Y-99841732D01*
X150524072Y-99824685D01*
X150537467Y-99804637D01*
X150546694Y-99782364D01*
X150551407Y-99758667D01*
X150552002Y-99746562D01*
X150553086Y-99744881D01*
X150555084Y-99744979D01*
G37*
G36*
X149119836Y-99924013D02*
G01*
X149129929Y-99939118D01*
X149146976Y-99956165D01*
X149167024Y-99969560D01*
X149189298Y-99978786D01*
X149212948Y-99983490D01*
X149237054Y-99983490D01*
X149260704Y-99978785D01*
X149282978Y-99969559D01*
X149303025Y-99956164D01*
X149320072Y-99939117D01*
X149330164Y-99924013D01*
X149331958Y-99923128D01*
X149333621Y-99924239D01*
X149333591Y-99926067D01*
X149329702Y-99933343D01*
X149297038Y-100041023D01*
X149286000Y-100153094D01*
X149286000Y-100602906D01*
X149297038Y-100714976D01*
X149329702Y-100822656D01*
X149333591Y-100829932D01*
X149333525Y-100831931D01*
X149331762Y-100832874D01*
X149330164Y-100831986D01*
X149320071Y-100816881D01*
X149303024Y-100799834D01*
X149282976Y-100786439D01*
X149260702Y-100777213D01*
X149237052Y-100772509D01*
X149212946Y-100772509D01*
X149189296Y-100777214D01*
X149167022Y-100786440D01*
X149146975Y-100799835D01*
X149129928Y-100816882D01*
X149119839Y-100831982D01*
X149118045Y-100832867D01*
X149116382Y-100831756D01*
X149116412Y-100829928D01*
X149120298Y-100822657D01*
X149152962Y-100714977D01*
X149164000Y-100602906D01*
X149164000Y-100153095D01*
X149152962Y-100041023D01*
X149120298Y-99933343D01*
X149116409Y-99926067D01*
X149116475Y-99924068D01*
X149118238Y-99923125D01*
X149119836Y-99924013D01*
G37*
M02*
