G04 #@! TF.GenerationSoftware,KiCad,Pcbnew,(5.1.12)-1*
G04 #@! TF.CreationDate,2022-03-08T00:28:27-06:00*
G04 #@! TF.ProjectId,pcb,7063622e-6b69-4636-9164-5f7063625858,rev?*
G04 #@! TF.SameCoordinates,Original*
G04 #@! TF.FileFunction,Soldermask,Bot*
G04 #@! TF.FilePolarity,Negative*
%FSLAX46Y46*%
G04 Gerber Fmt 4.6, Leading zero omitted, Abs format (unit mm)*
G04 Created by KiCad (PCBNEW (5.1.12)-1) date 2022-03-08 00:28:27*
%MOMM*%
%LPD*%
G01*
G04 APERTURE LIST*
%ADD10C,4.877200*%
%ADD11O,1.002000X1.502000*%
%ADD12O,1.802000X1.802000*%
%ADD13O,1.152000X1.602000*%
%ADD14C,0.150000*%
G04 APERTURE END LIST*
D10*
X114427000Y-66040000D03*
X162052000Y-66040000D03*
X161925000Y-154940000D03*
X114300000Y-154940000D03*
G36*
G01*
X155499000Y-94409000D02*
X155499000Y-95933000D01*
G75*
G02*
X155448000Y-95984000I-51000J0D01*
G01*
X153924000Y-95984000D01*
G75*
G02*
X153873000Y-95933000I0J51000D01*
G01*
X153873000Y-94409000D01*
G75*
G02*
X153924000Y-94358000I51000J0D01*
G01*
X155448000Y-94358000D01*
G75*
G02*
X155499000Y-94409000I0J-51000D01*
G01*
G37*
G36*
G01*
X152959000Y-94409000D02*
X152959000Y-95933000D01*
G75*
G02*
X152908000Y-95984000I-51000J0D01*
G01*
X151384000Y-95984000D01*
G75*
G02*
X151333000Y-95933000I0J51000D01*
G01*
X151333000Y-94409000D01*
G75*
G02*
X151384000Y-94358000I51000J0D01*
G01*
X152908000Y-94358000D01*
G75*
G02*
X152959000Y-94409000I0J-51000D01*
G01*
G37*
G36*
G01*
X150419000Y-94409000D02*
X150419000Y-95933000D01*
G75*
G02*
X150368000Y-95984000I-51000J0D01*
G01*
X148844000Y-95984000D01*
G75*
G02*
X148793000Y-95933000I0J51000D01*
G01*
X148793000Y-94409000D01*
G75*
G02*
X148844000Y-94358000I51000J0D01*
G01*
X150368000Y-94358000D01*
G75*
G02*
X150419000Y-94409000I0J-51000D01*
G01*
G37*
G36*
G01*
X147879000Y-94409000D02*
X147879000Y-95933000D01*
G75*
G02*
X147828000Y-95984000I-51000J0D01*
G01*
X146304000Y-95984000D01*
G75*
G02*
X146253000Y-95933000I0J51000D01*
G01*
X146253000Y-94409000D01*
G75*
G02*
X146304000Y-94358000I51000J0D01*
G01*
X147828000Y-94358000D01*
G75*
G02*
X147879000Y-94409000I0J-51000D01*
G01*
G37*
G36*
G01*
X145339000Y-94409000D02*
X145339000Y-95933000D01*
G75*
G02*
X145288000Y-95984000I-51000J0D01*
G01*
X143764000Y-95984000D01*
G75*
G02*
X143713000Y-95933000I0J51000D01*
G01*
X143713000Y-94409000D01*
G75*
G02*
X143764000Y-94358000I51000J0D01*
G01*
X145288000Y-94358000D01*
G75*
G02*
X145339000Y-94409000I0J-51000D01*
G01*
G37*
G36*
G01*
X142799000Y-94409000D02*
X142799000Y-95933000D01*
G75*
G02*
X142748000Y-95984000I-51000J0D01*
G01*
X141224000Y-95984000D01*
G75*
G02*
X141173000Y-95933000I0J51000D01*
G01*
X141173000Y-94409000D01*
G75*
G02*
X141224000Y-94358000I51000J0D01*
G01*
X142748000Y-94358000D01*
G75*
G02*
X142799000Y-94409000I0J-51000D01*
G01*
G37*
D11*
X122528000Y-117904000D03*
X123778000Y-117904000D03*
X125028000Y-117904000D03*
X126278000Y-117904000D03*
X127528000Y-117904000D03*
G36*
G01*
X129279000Y-117403500D02*
X129279000Y-118404500D01*
G75*
G02*
X129028500Y-118655000I-250500J0D01*
G01*
X128527500Y-118655000D01*
G75*
G02*
X128277000Y-118404500I0J250500D01*
G01*
X128277000Y-117403500D01*
G75*
G02*
X128527500Y-117153000I250500J0D01*
G01*
X129028500Y-117153000D01*
G75*
G02*
X129279000Y-117403500I0J-250500D01*
G01*
G37*
G36*
G01*
X115074000Y-123205000D02*
X115074000Y-121935000D01*
G75*
G02*
X115125000Y-121884000I51000J0D01*
G01*
X116395000Y-121884000D01*
G75*
G02*
X116446000Y-121935000I0J-51000D01*
G01*
X116446000Y-123205000D01*
G75*
G02*
X116395000Y-123256000I-51000J0D01*
G01*
X115125000Y-123256000D01*
G75*
G02*
X115074000Y-123205000I0J51000D01*
G01*
G37*
G36*
G01*
X117614000Y-123205000D02*
X117614000Y-121935000D01*
G75*
G02*
X117665000Y-121884000I51000J0D01*
G01*
X118935000Y-121884000D01*
G75*
G02*
X118986000Y-121935000I0J-51000D01*
G01*
X118986000Y-123205000D01*
G75*
G02*
X118935000Y-123256000I-51000J0D01*
G01*
X117665000Y-123256000D01*
G75*
G02*
X117614000Y-123205000I0J51000D01*
G01*
G37*
G36*
G01*
X120154000Y-123205000D02*
X120154000Y-121935000D01*
G75*
G02*
X120205000Y-121884000I51000J0D01*
G01*
X121475000Y-121884000D01*
G75*
G02*
X121526000Y-121935000I0J-51000D01*
G01*
X121526000Y-123205000D01*
G75*
G02*
X121475000Y-123256000I-51000J0D01*
G01*
X120205000Y-123256000D01*
G75*
G02*
X120154000Y-123205000I0J51000D01*
G01*
G37*
G36*
G01*
X122694000Y-123205000D02*
X122694000Y-121935000D01*
G75*
G02*
X122745000Y-121884000I51000J0D01*
G01*
X124015000Y-121884000D01*
G75*
G02*
X124066000Y-121935000I0J-51000D01*
G01*
X124066000Y-123205000D01*
G75*
G02*
X124015000Y-123256000I-51000J0D01*
G01*
X122745000Y-123256000D01*
G75*
G02*
X122694000Y-123205000I0J51000D01*
G01*
G37*
G36*
G01*
X149047000Y-126667000D02*
X149047000Y-125143000D01*
G75*
G02*
X149098000Y-125092000I51000J0D01*
G01*
X150622000Y-125092000D01*
G75*
G02*
X150673000Y-125143000I0J-51000D01*
G01*
X150673000Y-126667000D01*
G75*
G02*
X150622000Y-126718000I-51000J0D01*
G01*
X149098000Y-126718000D01*
G75*
G02*
X149047000Y-126667000I0J51000D01*
G01*
G37*
G36*
G01*
X146507000Y-126667000D02*
X146507000Y-125143000D01*
G75*
G02*
X146558000Y-125092000I51000J0D01*
G01*
X148082000Y-125092000D01*
G75*
G02*
X148133000Y-125143000I0J-51000D01*
G01*
X148133000Y-126667000D01*
G75*
G02*
X148082000Y-126718000I-51000J0D01*
G01*
X146558000Y-126718000D01*
G75*
G02*
X146507000Y-126667000I0J51000D01*
G01*
G37*
G36*
G01*
X143967000Y-126667000D02*
X143967000Y-125143000D01*
G75*
G02*
X144018000Y-125092000I51000J0D01*
G01*
X145542000Y-125092000D01*
G75*
G02*
X145593000Y-125143000I0J-51000D01*
G01*
X145593000Y-126667000D01*
G75*
G02*
X145542000Y-126718000I-51000J0D01*
G01*
X144018000Y-126718000D01*
G75*
G02*
X143967000Y-126667000I0J51000D01*
G01*
G37*
G36*
G01*
X141427000Y-126667000D02*
X141427000Y-125143000D01*
G75*
G02*
X141478000Y-125092000I51000J0D01*
G01*
X143002000Y-125092000D01*
G75*
G02*
X143053000Y-125143000I0J-51000D01*
G01*
X143053000Y-126667000D01*
G75*
G02*
X143002000Y-126718000I-51000J0D01*
G01*
X141478000Y-126718000D01*
G75*
G02*
X141427000Y-126667000I0J51000D01*
G01*
G37*
G36*
G01*
X138887000Y-126667000D02*
X138887000Y-125143000D01*
G75*
G02*
X138938000Y-125092000I51000J0D01*
G01*
X140462000Y-125092000D01*
G75*
G02*
X140513000Y-125143000I0J-51000D01*
G01*
X140513000Y-126667000D01*
G75*
G02*
X140462000Y-126718000I-51000J0D01*
G01*
X138938000Y-126718000D01*
G75*
G02*
X138887000Y-126667000I0J51000D01*
G01*
G37*
G36*
G01*
X136347000Y-126667000D02*
X136347000Y-125143000D01*
G75*
G02*
X136398000Y-125092000I51000J0D01*
G01*
X137922000Y-125092000D01*
G75*
G02*
X137973000Y-125143000I0J-51000D01*
G01*
X137973000Y-126667000D01*
G75*
G02*
X137922000Y-126718000I-51000J0D01*
G01*
X136398000Y-126718000D01*
G75*
G02*
X136347000Y-126667000I0J51000D01*
G01*
G37*
G36*
G01*
X133807000Y-126667000D02*
X133807000Y-125143000D01*
G75*
G02*
X133858000Y-125092000I51000J0D01*
G01*
X135382000Y-125092000D01*
G75*
G02*
X135433000Y-125143000I0J-51000D01*
G01*
X135433000Y-126667000D01*
G75*
G02*
X135382000Y-126718000I-51000J0D01*
G01*
X133858000Y-126718000D01*
G75*
G02*
X133807000Y-126667000I0J51000D01*
G01*
G37*
G36*
G01*
X131267000Y-126667000D02*
X131267000Y-125143000D01*
G75*
G02*
X131318000Y-125092000I51000J0D01*
G01*
X132842000Y-125092000D01*
G75*
G02*
X132893000Y-125143000I0J-51000D01*
G01*
X132893000Y-126667000D01*
G75*
G02*
X132842000Y-126718000I-51000J0D01*
G01*
X131318000Y-126718000D01*
G75*
G02*
X131267000Y-126667000I0J51000D01*
G01*
G37*
G36*
G01*
X116879000Y-115860000D02*
X118579000Y-115860000D01*
G75*
G02*
X118630000Y-115911000I0J-51000D01*
G01*
X118630000Y-117611000D01*
G75*
G02*
X118579000Y-117662000I-51000J0D01*
G01*
X116879000Y-117662000D01*
G75*
G02*
X116828000Y-117611000I0J51000D01*
G01*
X116828000Y-115911000D01*
G75*
G02*
X116879000Y-115860000I51000J0D01*
G01*
G37*
D12*
X115189000Y-116761000D03*
X112649000Y-116761000D03*
G36*
G01*
X113931000Y-111720000D02*
X113931000Y-113420000D01*
G75*
G02*
X113880000Y-113471000I-51000J0D01*
G01*
X112180000Y-113471000D01*
G75*
G02*
X112129000Y-113420000I0J51000D01*
G01*
X112129000Y-111720000D01*
G75*
G02*
X112180000Y-111669000I51000J0D01*
G01*
X113880000Y-111669000D01*
G75*
G02*
X113931000Y-111720000I0J-51000D01*
G01*
G37*
X113030000Y-110030000D03*
X113030000Y-107490000D03*
G36*
G01*
X118503000Y-112101000D02*
X118503000Y-113801000D01*
G75*
G02*
X118452000Y-113852000I-51000J0D01*
G01*
X116752000Y-113852000D01*
G75*
G02*
X116701000Y-113801000I0J51000D01*
G01*
X116701000Y-112101000D01*
G75*
G02*
X116752000Y-112050000I51000J0D01*
G01*
X118452000Y-112050000D01*
G75*
G02*
X118503000Y-112101000I0J-51000D01*
G01*
G37*
X117602000Y-110411000D03*
X117602000Y-107871000D03*
G36*
G01*
X118503000Y-102830000D02*
X118503000Y-104530000D01*
G75*
G02*
X118452000Y-104581000I-51000J0D01*
G01*
X116752000Y-104581000D01*
G75*
G02*
X116701000Y-104530000I0J51000D01*
G01*
X116701000Y-102830000D01*
G75*
G02*
X116752000Y-102779000I51000J0D01*
G01*
X118452000Y-102779000D01*
G75*
G02*
X118503000Y-102830000I0J-51000D01*
G01*
G37*
X117602000Y-101140000D03*
X117602000Y-98600000D03*
G36*
G01*
X112510000Y-95513000D02*
X112510000Y-93813000D01*
G75*
G02*
X112561000Y-93762000I51000J0D01*
G01*
X114261000Y-93762000D01*
G75*
G02*
X114312000Y-93813000I0J-51000D01*
G01*
X114312000Y-95513000D01*
G75*
G02*
X114261000Y-95564000I-51000J0D01*
G01*
X112561000Y-95564000D01*
G75*
G02*
X112510000Y-95513000I0J51000D01*
G01*
G37*
X113411000Y-97203000D03*
X113411000Y-99743000D03*
X122301000Y-94917000D03*
X122301000Y-97457000D03*
G36*
G01*
X123202000Y-99147000D02*
X123202000Y-100847000D01*
G75*
G02*
X123151000Y-100898000I-51000J0D01*
G01*
X121451000Y-100898000D01*
G75*
G02*
X121400000Y-100847000I0J51000D01*
G01*
X121400000Y-99147000D01*
G75*
G02*
X121451000Y-99096000I51000J0D01*
G01*
X123151000Y-99096000D01*
G75*
G02*
X123202000Y-99147000I0J-51000D01*
G01*
G37*
G36*
G01*
X133807000Y-119374660D02*
X133807000Y-117850660D01*
G75*
G02*
X133858000Y-117799660I51000J0D01*
G01*
X135382000Y-117799660D01*
G75*
G02*
X135433000Y-117850660I0J-51000D01*
G01*
X135433000Y-119374660D01*
G75*
G02*
X135382000Y-119425660I-51000J0D01*
G01*
X133858000Y-119425660D01*
G75*
G02*
X133807000Y-119374660I0J51000D01*
G01*
G37*
G36*
G01*
X136347000Y-119374660D02*
X136347000Y-117850660D01*
G75*
G02*
X136398000Y-117799660I51000J0D01*
G01*
X137922000Y-117799660D01*
G75*
G02*
X137973000Y-117850660I0J-51000D01*
G01*
X137973000Y-119374660D01*
G75*
G02*
X137922000Y-119425660I-51000J0D01*
G01*
X136398000Y-119425660D01*
G75*
G02*
X136347000Y-119374660I0J51000D01*
G01*
G37*
G36*
G01*
X138887000Y-119374660D02*
X138887000Y-117850660D01*
G75*
G02*
X138938000Y-117799660I51000J0D01*
G01*
X140462000Y-117799660D01*
G75*
G02*
X140513000Y-117850660I0J-51000D01*
G01*
X140513000Y-119374660D01*
G75*
G02*
X140462000Y-119425660I-51000J0D01*
G01*
X138938000Y-119425660D01*
G75*
G02*
X138887000Y-119374660I0J51000D01*
G01*
G37*
G36*
G01*
X151706000Y-99628000D02*
X151706000Y-101128000D01*
G75*
G02*
X151655000Y-101179000I-51000J0D01*
G01*
X150605000Y-101179000D01*
G75*
G02*
X150554000Y-101128000I0J51000D01*
G01*
X150554000Y-99628000D01*
G75*
G02*
X150605000Y-99577000I51000J0D01*
G01*
X151655000Y-99577000D01*
G75*
G02*
X151706000Y-99628000I0J-51000D01*
G01*
G37*
D13*
X148590000Y-100378000D03*
X149860000Y-100378000D03*
G36*
G01*
X151717000Y-109773000D02*
X151717000Y-111273000D01*
G75*
G02*
X151666000Y-111324000I-51000J0D01*
G01*
X150616000Y-111324000D01*
G75*
G02*
X150565000Y-111273000I0J51000D01*
G01*
X150565000Y-109773000D01*
G75*
G02*
X150616000Y-109722000I51000J0D01*
G01*
X151666000Y-109722000D01*
G75*
G02*
X151717000Y-109773000I0J-51000D01*
G01*
G37*
X148601000Y-110523000D03*
X149871000Y-110523000D03*
G36*
G01*
X151717000Y-104693000D02*
X151717000Y-106193000D01*
G75*
G02*
X151666000Y-106244000I-51000J0D01*
G01*
X150616000Y-106244000D01*
G75*
G02*
X150565000Y-106193000I0J51000D01*
G01*
X150565000Y-104693000D01*
G75*
G02*
X150616000Y-104642000I51000J0D01*
G01*
X151666000Y-104642000D01*
G75*
G02*
X151717000Y-104693000I0J-51000D01*
G01*
G37*
X148601000Y-105443000D03*
X149871000Y-105443000D03*
G36*
G01*
X151717000Y-114853000D02*
X151717000Y-116353000D01*
G75*
G02*
X151666000Y-116404000I-51000J0D01*
G01*
X150616000Y-116404000D01*
G75*
G02*
X150565000Y-116353000I0J51000D01*
G01*
X150565000Y-114853000D01*
G75*
G02*
X150616000Y-114802000I51000J0D01*
G01*
X151666000Y-114802000D01*
G75*
G02*
X151717000Y-114853000I0J-51000D01*
G01*
G37*
X148601000Y-115603000D03*
X149871000Y-115603000D03*
D12*
X162560000Y-115237000D03*
X162560000Y-112697000D03*
G36*
G01*
X161659000Y-111007000D02*
X161659000Y-109307000D01*
G75*
G02*
X161710000Y-109256000I51000J0D01*
G01*
X163410000Y-109256000D01*
G75*
G02*
X163461000Y-109307000I0J-51000D01*
G01*
X163461000Y-111007000D01*
G75*
G02*
X163410000Y-111058000I-51000J0D01*
G01*
X161710000Y-111058000D01*
G75*
G02*
X161659000Y-111007000I0J51000D01*
G01*
G37*
X162560000Y-106093000D03*
X162560000Y-103553000D03*
G36*
G01*
X161659000Y-101863000D02*
X161659000Y-100163000D01*
G75*
G02*
X161710000Y-100112000I51000J0D01*
G01*
X163410000Y-100112000D01*
G75*
G02*
X163461000Y-100163000I0J-51000D01*
G01*
X163461000Y-101863000D01*
G75*
G02*
X163410000Y-101914000I-51000J0D01*
G01*
X161710000Y-101914000D01*
G75*
G02*
X161659000Y-101863000I0J51000D01*
G01*
G37*
X162052000Y-94536000D03*
G36*
G01*
X160362000Y-95437000D02*
X158662000Y-95437000D01*
G75*
G02*
X158611000Y-95386000I0J51000D01*
G01*
X158611000Y-93686000D01*
G75*
G02*
X158662000Y-93635000I51000J0D01*
G01*
X160362000Y-93635000D01*
G75*
G02*
X160413000Y-93686000I0J-51000D01*
G01*
X160413000Y-95386000D01*
G75*
G02*
X160362000Y-95437000I-51000J0D01*
G01*
G37*
D14*
G36*
X128278084Y-117632033D02*
G01*
X128279000Y-117633714D01*
X128279000Y-118174287D01*
X128278000Y-118176019D01*
X128276000Y-118176019D01*
X128275010Y-118174483D01*
X128272628Y-118150296D01*
X128265628Y-118127221D01*
X128254263Y-118105957D01*
X128238968Y-118087320D01*
X128220331Y-118072025D01*
X128199067Y-118060660D01*
X128175992Y-118053660D01*
X128152001Y-118051297D01*
X128128010Y-118053660D01*
X128104935Y-118060660D01*
X128083671Y-118072025D01*
X128065034Y-118087320D01*
X128049739Y-118105957D01*
X128038374Y-118127221D01*
X128031360Y-118150344D01*
X128030978Y-118152918D01*
X128029735Y-118154484D01*
X128027757Y-118154191D01*
X128027000Y-118152624D01*
X128027000Y-117654095D01*
X128026812Y-117652184D01*
X128027637Y-117650362D01*
X128029628Y-117650166D01*
X128030764Y-117651598D01*
X128034308Y-117669417D01*
X128043535Y-117691691D01*
X128056929Y-117711738D01*
X128073976Y-117728785D01*
X128094023Y-117742180D01*
X128116297Y-117751406D01*
X128139948Y-117756111D01*
X128164054Y-117756111D01*
X128187704Y-117751407D01*
X128209978Y-117742180D01*
X128230025Y-117728786D01*
X128247072Y-117711739D01*
X128260467Y-117691692D01*
X128269693Y-117669418D01*
X128274407Y-117645721D01*
X128275002Y-117633616D01*
X128276086Y-117631935D01*
X128278084Y-117632033D01*
G37*
G36*
X125778320Y-117656596D02*
G01*
X125779001Y-117658100D01*
X125779000Y-118149895D01*
X125778000Y-118151627D01*
X125776000Y-118151627D01*
X125775038Y-118150285D01*
X125770693Y-118128440D01*
X125761466Y-118106166D01*
X125748072Y-118086119D01*
X125731025Y-118069072D01*
X125710977Y-118055677D01*
X125688704Y-118046450D01*
X125665053Y-118041746D01*
X125640947Y-118041746D01*
X125617297Y-118046450D01*
X125595023Y-118055677D01*
X125574976Y-118069071D01*
X125557929Y-118086118D01*
X125544534Y-118106166D01*
X125535307Y-118128439D01*
X125530962Y-118150285D01*
X125529643Y-118151789D01*
X125527681Y-118151399D01*
X125527000Y-118149895D01*
X125527000Y-117658105D01*
X125528000Y-117656373D01*
X125530000Y-117656373D01*
X125530962Y-117657715D01*
X125535307Y-117679560D01*
X125544534Y-117701834D01*
X125557928Y-117721881D01*
X125574975Y-117738928D01*
X125595023Y-117752323D01*
X125617296Y-117761549D01*
X125640947Y-117766254D01*
X125665053Y-117766254D01*
X125688703Y-117761550D01*
X125710977Y-117752323D01*
X125731024Y-117738929D01*
X125748071Y-117721882D01*
X125761466Y-117701834D01*
X125770692Y-117679561D01*
X125775039Y-117657710D01*
X125776358Y-117656206D01*
X125778320Y-117656596D01*
G37*
G36*
X124528320Y-117656596D02*
G01*
X124529001Y-117658100D01*
X124529000Y-118149895D01*
X124528000Y-118151627D01*
X124526000Y-118151627D01*
X124525038Y-118150285D01*
X124520693Y-118128440D01*
X124511466Y-118106166D01*
X124498072Y-118086119D01*
X124481025Y-118069072D01*
X124460977Y-118055677D01*
X124438704Y-118046450D01*
X124415053Y-118041746D01*
X124390947Y-118041746D01*
X124367297Y-118046450D01*
X124345023Y-118055677D01*
X124324976Y-118069071D01*
X124307929Y-118086118D01*
X124294534Y-118106166D01*
X124285307Y-118128439D01*
X124280962Y-118150285D01*
X124279643Y-118151789D01*
X124277681Y-118151399D01*
X124277000Y-118149895D01*
X124277000Y-117658105D01*
X124278000Y-117656373D01*
X124280000Y-117656373D01*
X124280962Y-117657715D01*
X124285307Y-117679560D01*
X124294534Y-117701834D01*
X124307928Y-117721881D01*
X124324975Y-117738928D01*
X124345023Y-117752323D01*
X124367296Y-117761549D01*
X124390947Y-117766254D01*
X124415053Y-117766254D01*
X124438703Y-117761550D01*
X124460977Y-117752323D01*
X124481024Y-117738929D01*
X124498071Y-117721882D01*
X124511466Y-117701834D01*
X124520692Y-117679561D01*
X124525039Y-117657710D01*
X124526358Y-117656206D01*
X124528320Y-117656596D01*
G37*
G36*
X127028320Y-117656596D02*
G01*
X127029001Y-117658100D01*
X127029000Y-118149895D01*
X127028000Y-118151627D01*
X127026000Y-118151627D01*
X127025038Y-118150285D01*
X127020693Y-118128440D01*
X127011466Y-118106166D01*
X126998072Y-118086119D01*
X126981025Y-118069072D01*
X126960977Y-118055677D01*
X126938704Y-118046450D01*
X126915053Y-118041746D01*
X126890947Y-118041746D01*
X126867297Y-118046450D01*
X126845023Y-118055677D01*
X126824976Y-118069071D01*
X126807929Y-118086118D01*
X126794534Y-118106166D01*
X126785307Y-118128439D01*
X126780962Y-118150285D01*
X126779643Y-118151789D01*
X126777681Y-118151399D01*
X126777000Y-118149895D01*
X126777000Y-117658105D01*
X126778000Y-117656373D01*
X126780000Y-117656373D01*
X126780962Y-117657715D01*
X126785307Y-117679560D01*
X126794534Y-117701834D01*
X126807928Y-117721881D01*
X126824975Y-117738928D01*
X126845023Y-117752323D01*
X126867296Y-117761549D01*
X126890947Y-117766254D01*
X126915053Y-117766254D01*
X126938703Y-117761550D01*
X126960977Y-117752323D01*
X126981024Y-117738929D01*
X126998071Y-117721882D01*
X127011466Y-117701834D01*
X127020692Y-117679561D01*
X127025039Y-117657710D01*
X127026358Y-117656206D01*
X127028320Y-117656596D01*
G37*
G36*
X123278320Y-117656596D02*
G01*
X123279001Y-117658100D01*
X123279000Y-118149895D01*
X123278000Y-118151627D01*
X123276000Y-118151627D01*
X123275038Y-118150285D01*
X123270693Y-118128440D01*
X123261466Y-118106166D01*
X123248072Y-118086119D01*
X123231025Y-118069072D01*
X123210977Y-118055677D01*
X123188704Y-118046450D01*
X123165053Y-118041746D01*
X123140947Y-118041746D01*
X123117297Y-118046450D01*
X123095023Y-118055677D01*
X123074976Y-118069071D01*
X123057929Y-118086118D01*
X123044534Y-118106166D01*
X123035307Y-118128439D01*
X123030962Y-118150285D01*
X123029643Y-118151789D01*
X123027681Y-118151399D01*
X123027000Y-118149895D01*
X123027000Y-117658105D01*
X123028000Y-117656373D01*
X123030000Y-117656373D01*
X123030962Y-117657715D01*
X123035307Y-117679560D01*
X123044534Y-117701834D01*
X123057928Y-117721881D01*
X123074975Y-117738928D01*
X123095023Y-117752323D01*
X123117296Y-117761549D01*
X123140947Y-117766254D01*
X123165053Y-117766254D01*
X123188703Y-117761550D01*
X123210977Y-117752323D01*
X123231024Y-117738929D01*
X123248071Y-117721882D01*
X123261466Y-117701834D01*
X123270692Y-117679561D01*
X123275039Y-117657710D01*
X123276358Y-117656206D01*
X123278320Y-117656596D01*
G37*
G36*
X150566084Y-114969979D02*
G01*
X150567000Y-114971660D01*
X150567000Y-116234340D01*
X150566000Y-116236072D01*
X150564000Y-116236072D01*
X150563010Y-116234536D01*
X150560628Y-116210349D01*
X150553628Y-116187274D01*
X150542263Y-116166010D01*
X150526968Y-116147373D01*
X150508331Y-116132078D01*
X150487067Y-116120713D01*
X150463992Y-116113713D01*
X150440001Y-116111350D01*
X150416010Y-116113713D01*
X150392935Y-116120713D01*
X150371715Y-116132055D01*
X150347757Y-116153769D01*
X150345802Y-116154191D01*
X150344459Y-116152709D01*
X150344868Y-116151018D01*
X150348255Y-116146892D01*
X150401298Y-116047657D01*
X150433962Y-115939977D01*
X150445000Y-115827906D01*
X150445000Y-115378095D01*
X150433962Y-115266023D01*
X150401298Y-115158343D01*
X150348255Y-115059108D01*
X150346170Y-115056568D01*
X150345844Y-115054594D01*
X150347390Y-115053326D01*
X150349130Y-115053885D01*
X150361976Y-115066731D01*
X150382024Y-115080126D01*
X150404297Y-115089353D01*
X150427948Y-115094057D01*
X150452054Y-115094057D01*
X150475704Y-115089353D01*
X150497978Y-115080126D01*
X150518025Y-115066732D01*
X150535072Y-115049685D01*
X150548467Y-115029637D01*
X150557694Y-115007364D01*
X150562407Y-114983667D01*
X150563002Y-114971562D01*
X150564086Y-114969881D01*
X150566084Y-114969979D01*
G37*
G36*
X149130836Y-115149013D02*
G01*
X149140929Y-115164118D01*
X149157976Y-115181165D01*
X149178024Y-115194560D01*
X149200298Y-115203786D01*
X149223948Y-115208490D01*
X149248054Y-115208490D01*
X149271704Y-115203785D01*
X149293978Y-115194559D01*
X149314025Y-115181164D01*
X149331072Y-115164117D01*
X149341164Y-115149013D01*
X149342958Y-115148128D01*
X149344621Y-115149239D01*
X149344591Y-115151067D01*
X149340702Y-115158343D01*
X149308038Y-115266023D01*
X149297000Y-115378094D01*
X149297000Y-115827906D01*
X149308038Y-115939976D01*
X149340702Y-116047656D01*
X149344591Y-116054932D01*
X149344525Y-116056931D01*
X149342762Y-116057874D01*
X149341164Y-116056986D01*
X149331071Y-116041881D01*
X149314024Y-116024834D01*
X149293976Y-116011439D01*
X149271702Y-116002213D01*
X149248052Y-115997509D01*
X149223946Y-115997509D01*
X149200296Y-116002214D01*
X149178022Y-116011440D01*
X149157975Y-116024835D01*
X149140928Y-116041882D01*
X149130839Y-116056982D01*
X149129045Y-116057867D01*
X149127382Y-116056756D01*
X149127412Y-116054928D01*
X149131298Y-116047657D01*
X149163962Y-115939977D01*
X149175000Y-115827906D01*
X149175000Y-115378095D01*
X149163962Y-115266023D01*
X149131298Y-115158343D01*
X149127409Y-115151067D01*
X149127475Y-115149068D01*
X149129238Y-115148125D01*
X149130836Y-115149013D01*
G37*
G36*
X150566084Y-109889979D02*
G01*
X150567000Y-109891660D01*
X150567000Y-111154340D01*
X150566000Y-111156072D01*
X150564000Y-111156072D01*
X150563010Y-111154536D01*
X150560628Y-111130349D01*
X150553628Y-111107274D01*
X150542263Y-111086010D01*
X150526968Y-111067373D01*
X150508331Y-111052078D01*
X150487067Y-111040713D01*
X150463992Y-111033713D01*
X150440001Y-111031350D01*
X150416010Y-111033713D01*
X150392935Y-111040713D01*
X150371715Y-111052055D01*
X150347757Y-111073769D01*
X150345802Y-111074191D01*
X150344459Y-111072709D01*
X150344868Y-111071018D01*
X150348255Y-111066892D01*
X150401298Y-110967657D01*
X150433962Y-110859977D01*
X150445000Y-110747906D01*
X150445000Y-110298095D01*
X150433962Y-110186023D01*
X150401298Y-110078343D01*
X150348255Y-109979108D01*
X150346170Y-109976568D01*
X150345844Y-109974594D01*
X150347390Y-109973326D01*
X150349130Y-109973885D01*
X150361976Y-109986731D01*
X150382024Y-110000126D01*
X150404297Y-110009353D01*
X150427948Y-110014057D01*
X150452054Y-110014057D01*
X150475704Y-110009353D01*
X150497978Y-110000126D01*
X150518025Y-109986732D01*
X150535072Y-109969685D01*
X150548467Y-109949637D01*
X150557694Y-109927364D01*
X150562407Y-109903667D01*
X150563002Y-109891562D01*
X150564086Y-109889881D01*
X150566084Y-109889979D01*
G37*
G36*
X149130836Y-110069013D02*
G01*
X149140929Y-110084118D01*
X149157976Y-110101165D01*
X149178024Y-110114560D01*
X149200298Y-110123786D01*
X149223948Y-110128490D01*
X149248054Y-110128490D01*
X149271704Y-110123785D01*
X149293978Y-110114559D01*
X149314025Y-110101164D01*
X149331072Y-110084117D01*
X149341164Y-110069013D01*
X149342958Y-110068128D01*
X149344621Y-110069239D01*
X149344591Y-110071067D01*
X149340702Y-110078343D01*
X149308038Y-110186023D01*
X149297000Y-110298094D01*
X149297000Y-110747906D01*
X149308038Y-110859976D01*
X149340702Y-110967656D01*
X149344591Y-110974932D01*
X149344525Y-110976931D01*
X149342762Y-110977874D01*
X149341164Y-110976986D01*
X149331071Y-110961881D01*
X149314024Y-110944834D01*
X149293976Y-110931439D01*
X149271702Y-110922213D01*
X149248052Y-110917509D01*
X149223946Y-110917509D01*
X149200296Y-110922214D01*
X149178022Y-110931440D01*
X149157975Y-110944835D01*
X149140928Y-110961882D01*
X149130839Y-110976982D01*
X149129045Y-110977867D01*
X149127382Y-110976756D01*
X149127412Y-110974928D01*
X149131298Y-110967657D01*
X149163962Y-110859977D01*
X149175000Y-110747906D01*
X149175000Y-110298095D01*
X149163962Y-110186023D01*
X149131298Y-110078343D01*
X149127409Y-110071067D01*
X149127475Y-110069068D01*
X149129238Y-110068125D01*
X149130836Y-110069013D01*
G37*
G36*
X150566084Y-104809979D02*
G01*
X150567000Y-104811660D01*
X150567000Y-106074340D01*
X150566000Y-106076072D01*
X150564000Y-106076072D01*
X150563010Y-106074536D01*
X150560628Y-106050349D01*
X150553628Y-106027274D01*
X150542263Y-106006010D01*
X150526968Y-105987373D01*
X150508331Y-105972078D01*
X150487067Y-105960713D01*
X150463992Y-105953713D01*
X150440001Y-105951350D01*
X150416010Y-105953713D01*
X150392935Y-105960713D01*
X150371715Y-105972055D01*
X150347757Y-105993769D01*
X150345802Y-105994191D01*
X150344459Y-105992709D01*
X150344868Y-105991018D01*
X150348255Y-105986892D01*
X150401298Y-105887657D01*
X150433962Y-105779977D01*
X150445000Y-105667906D01*
X150445000Y-105218095D01*
X150433962Y-105106023D01*
X150401298Y-104998343D01*
X150348255Y-104899108D01*
X150346170Y-104896568D01*
X150345844Y-104894594D01*
X150347390Y-104893326D01*
X150349130Y-104893885D01*
X150361976Y-104906731D01*
X150382024Y-104920126D01*
X150404297Y-104929353D01*
X150427948Y-104934057D01*
X150452054Y-104934057D01*
X150475704Y-104929353D01*
X150497978Y-104920126D01*
X150518025Y-104906732D01*
X150535072Y-104889685D01*
X150548467Y-104869637D01*
X150557694Y-104847364D01*
X150562407Y-104823667D01*
X150563002Y-104811562D01*
X150564086Y-104809881D01*
X150566084Y-104809979D01*
G37*
G36*
X149130836Y-104989013D02*
G01*
X149140929Y-105004118D01*
X149157976Y-105021165D01*
X149178024Y-105034560D01*
X149200298Y-105043786D01*
X149223948Y-105048490D01*
X149248054Y-105048490D01*
X149271704Y-105043785D01*
X149293978Y-105034559D01*
X149314025Y-105021164D01*
X149331072Y-105004117D01*
X149341164Y-104989013D01*
X149342958Y-104988128D01*
X149344621Y-104989239D01*
X149344591Y-104991067D01*
X149340702Y-104998343D01*
X149308038Y-105106023D01*
X149297000Y-105218094D01*
X149297000Y-105667906D01*
X149308038Y-105779976D01*
X149340702Y-105887656D01*
X149344591Y-105894932D01*
X149344525Y-105896931D01*
X149342762Y-105897874D01*
X149341164Y-105896986D01*
X149331071Y-105881881D01*
X149314024Y-105864834D01*
X149293976Y-105851439D01*
X149271702Y-105842213D01*
X149248052Y-105837509D01*
X149223946Y-105837509D01*
X149200296Y-105842214D01*
X149178022Y-105851440D01*
X149157975Y-105864835D01*
X149140928Y-105881882D01*
X149130839Y-105896982D01*
X149129045Y-105897867D01*
X149127382Y-105896756D01*
X149127412Y-105894928D01*
X149131298Y-105887657D01*
X149163962Y-105779977D01*
X149175000Y-105667906D01*
X149175000Y-105218095D01*
X149163962Y-105106023D01*
X149131298Y-104998343D01*
X149127409Y-104991067D01*
X149127475Y-104989068D01*
X149129238Y-104988125D01*
X149130836Y-104989013D01*
G37*
G36*
X150555084Y-99744979D02*
G01*
X150556000Y-99746660D01*
X150556000Y-101009340D01*
X150555000Y-101011072D01*
X150553000Y-101011072D01*
X150552010Y-101009536D01*
X150549628Y-100985349D01*
X150542628Y-100962274D01*
X150531263Y-100941010D01*
X150515968Y-100922373D01*
X150497331Y-100907078D01*
X150476067Y-100895713D01*
X150452992Y-100888713D01*
X150429001Y-100886350D01*
X150405010Y-100888713D01*
X150381935Y-100895713D01*
X150360715Y-100907055D01*
X150336757Y-100928769D01*
X150334802Y-100929191D01*
X150333459Y-100927709D01*
X150333868Y-100926018D01*
X150337255Y-100921892D01*
X150390298Y-100822657D01*
X150422962Y-100714977D01*
X150434000Y-100602906D01*
X150434000Y-100153095D01*
X150422962Y-100041023D01*
X150390298Y-99933343D01*
X150337255Y-99834108D01*
X150335170Y-99831568D01*
X150334844Y-99829594D01*
X150336390Y-99828326D01*
X150338130Y-99828885D01*
X150350976Y-99841731D01*
X150371024Y-99855126D01*
X150393297Y-99864353D01*
X150416948Y-99869057D01*
X150441054Y-99869057D01*
X150464704Y-99864353D01*
X150486978Y-99855126D01*
X150507025Y-99841732D01*
X150524072Y-99824685D01*
X150537467Y-99804637D01*
X150546694Y-99782364D01*
X150551407Y-99758667D01*
X150552002Y-99746562D01*
X150553086Y-99744881D01*
X150555084Y-99744979D01*
G37*
G36*
X149119836Y-99924013D02*
G01*
X149129929Y-99939118D01*
X149146976Y-99956165D01*
X149167024Y-99969560D01*
X149189298Y-99978786D01*
X149212948Y-99983490D01*
X149237054Y-99983490D01*
X149260704Y-99978785D01*
X149282978Y-99969559D01*
X149303025Y-99956164D01*
X149320072Y-99939117D01*
X149330164Y-99924013D01*
X149331958Y-99923128D01*
X149333621Y-99924239D01*
X149333591Y-99926067D01*
X149329702Y-99933343D01*
X149297038Y-100041023D01*
X149286000Y-100153094D01*
X149286000Y-100602906D01*
X149297038Y-100714976D01*
X149329702Y-100822656D01*
X149333591Y-100829932D01*
X149333525Y-100831931D01*
X149331762Y-100832874D01*
X149330164Y-100831986D01*
X149320071Y-100816881D01*
X149303024Y-100799834D01*
X149282976Y-100786439D01*
X149260702Y-100777213D01*
X149237052Y-100772509D01*
X149212946Y-100772509D01*
X149189296Y-100777214D01*
X149167022Y-100786440D01*
X149146975Y-100799835D01*
X149129928Y-100816882D01*
X149119839Y-100831982D01*
X149118045Y-100832867D01*
X149116382Y-100831756D01*
X149116412Y-100829928D01*
X149120298Y-100822657D01*
X149152962Y-100714977D01*
X149164000Y-100602906D01*
X149164000Y-100153095D01*
X149152962Y-100041023D01*
X149120298Y-99933343D01*
X149116409Y-99926067D01*
X149116475Y-99924068D01*
X149118238Y-99923125D01*
X149119836Y-99924013D01*
G37*
M02*
