M48
INCH,TZ
T1C0.0118
T2C0.0236
T3C0.0295
T4C0.0350
T5C0.0354
T6C0.0394
%
G90
G05
T1
X43700Y-43350
X44200Y-46850
X44350Y-47600
X44500Y-40550
X45143Y-45304
X45200Y-47069
X45300Y-41350
X45500Y-36200
X46050Y-49250
X47250Y-46469
X47383Y-45295
X47550Y-40919
X47600Y-46119
X48000Y-39950
X48228Y-44735
X48800Y-42269
X48800Y-43869
X48850Y-49550
X48900Y-38419
X49250Y-43119
X49300Y-42269
X49302Y-39304
X49450Y-40219
X49596Y-40817
X49800Y-42269
X49850Y-47569
X49950Y-37719
X49966Y-38897
X50050Y-49569
X50150Y-42869
X50350Y-49069
X50502Y-35849
X50550Y-40785
X50700Y-42469
X50700Y-48569
X50887Y-43982
X50913Y-43255
X51050Y-40219
X51600Y-47650
X51700Y-39400
X51750Y-41150
X52017Y-46319
X52100Y-48019
X52200Y-42519
X52233Y-44819
X52250Y-43069
X52300Y-47369
X52450Y-41650
X52450Y-43669
X52500Y-44519
X52700Y-42769
X52700Y-45519
X52750Y-44169
X52800Y-50550
X53950Y-39450
X54000Y-47650
X54353Y-36772
X54491Y-41515
X54500Y-50250
X54800Y-35400
X54950Y-45669
X55050Y-40219
X55350Y-43419
X55400Y-44269
X55550Y-45300
X55750Y-46850
X57416Y-45184
X57500Y-47369
X57603Y-43468
X58000Y-35550
X58350Y-47350
X58850Y-50900
X59250Y-44419
X59300Y-47319
X59950Y-46950
X60150Y-44419
X60150Y-49769
X60300Y-40300
X60350Y-43319
X60550Y-41319
X60650Y-46250
X60850Y-51300
X61300Y-35450
X61400Y-43819
X61750Y-39869
X61750Y-40869
X62200Y-43319
X62400Y-43969
X62450Y-41300
X62600Y-39250
X62600Y-51300
X62850Y-45650
X63750Y-46350
X64550Y-35500
X65150Y-51350
X65200Y-49200
X65250Y-38100
X65250Y-44500
X65250Y-45750
X65300Y-43150
X65300Y-46600
X65550Y-41050
X65550Y-42200
X65600Y-39700
T2
X48239Y-46419
X48731Y-46419
X49224Y-46419
X49716Y-46419
X50208Y-46419
X50700Y-46419
T3
X58500Y-39519
X58504Y-41513
X58504Y-43513
X58504Y-45513
X59000Y-39519
X59004Y-41513
X59004Y-43513
X59004Y-45513
X59500Y-39519
X59504Y-41513
X59504Y-43513
X59504Y-45513
T4
X45575Y-48256
X46575Y-48256
X47575Y-48256
X48575Y-48256
X52000Y-49569
X53000Y-46698
X53000Y-49569
X54000Y-46698
X54000Y-49569
X55000Y-46698
X55000Y-49569
X56000Y-49569
X57000Y-49569
X58000Y-49569
X59000Y-49569
T5
X55900Y-37469
X56900Y-37469
X57900Y-37469
X58900Y-37469
X59900Y-37469
X60900Y-37469
T6
X44350Y-45969
X44500Y-42319
X44500Y-43319
X44500Y-44319
X44650Y-37269
X44650Y-38269
X44650Y-39269
X45350Y-45969
X46300Y-38819
X46300Y-39819
X46300Y-40819
X46300Y-42469
X46300Y-43469
X46300Y-44469
X46350Y-45969
X46700Y-37000
X47700Y-37000
X48700Y-37000
X56071Y-39643
X56071Y-40643
X56071Y-41643
X57071Y-39643
X57071Y-40643
X57071Y-41643
X62800Y-37219
X63800Y-37219
X64000Y-39769
X64000Y-40769
X64000Y-41769
X64000Y-43369
X64000Y-44369
X64000Y-45369
T0
M30
