G04 #@! TF.GenerationSoftware,KiCad,Pcbnew,(5.1.12)-1*
G04 #@! TF.CreationDate,2022-03-08T00:28:27-06:00*
G04 #@! TF.ProjectId,pcb,7063622e-6b69-4636-9164-5f7063625858,rev?*
G04 #@! TF.SameCoordinates,Original*
G04 #@! TF.FileFunction,Legend,Top*
G04 #@! TF.FilePolarity,Positive*
%FSLAX46Y46*%
G04 Gerber Fmt 4.6, Leading zero omitted, Abs format (unit mm)*
G04 Created by KiCad (PCBNEW (5.1.12)-1) date 2022-03-08 00:28:27*
%MOMM*%
%LPD*%
G01*
G04 APERTURE LIST*
%ADD10C,0.120000*%
%ADD11C,0.127000*%
%ADD12C,0.200000*%
%ADD13C,0.150000*%
G04 APERTURE END LIST*
D10*
X156066000Y-92171000D02*
X156066000Y-97171000D01*
X139066000Y-92171000D02*
X156066000Y-92171000D01*
X139066000Y-97171000D02*
X139066000Y-92171000D01*
X156066000Y-97171000D02*
X140066000Y-97171000D01*
X140066000Y-97171000D02*
X139066000Y-97171000D01*
X130328000Y-120204000D02*
X130328000Y-116604000D01*
X130328000Y-116604000D02*
X120978000Y-116604000D01*
X120978000Y-116604000D02*
X120978000Y-120204000D01*
X120978000Y-120204000D02*
X130328000Y-120204000D01*
X130638000Y-118204000D02*
X130638000Y-116294000D01*
X130638000Y-116294000D02*
X128728000Y-116294000D01*
X130328000Y-117904000D02*
X130028000Y-117904000D01*
X130028000Y-117904000D02*
X130028000Y-116904000D01*
X130028000Y-116904000D02*
X121278000Y-116904000D01*
X121278000Y-116904000D02*
X121278000Y-117904000D01*
X121278000Y-117904000D02*
X120978000Y-117904000D01*
X130328000Y-118654000D02*
X130028000Y-118654000D01*
X130028000Y-118654000D02*
X130028000Y-119754000D01*
X130028000Y-119754000D02*
X129728000Y-119754000D01*
X129728000Y-119754000D02*
X129728000Y-120204000D01*
X120978000Y-118654000D02*
X121278000Y-118654000D01*
X121278000Y-118654000D02*
X121278000Y-119754000D01*
X121278000Y-119754000D02*
X121578000Y-119754000D01*
X121578000Y-119754000D02*
X121578000Y-120204000D01*
X129728000Y-119754000D02*
X128528000Y-119754000D01*
X128528000Y-119754000D02*
X128528000Y-120054000D01*
X128528000Y-120054000D02*
X127778000Y-120054000D01*
X127778000Y-120054000D02*
X127778000Y-119754000D01*
X127778000Y-119754000D02*
X123528000Y-119754000D01*
X123528000Y-119754000D02*
X123528000Y-120054000D01*
X123528000Y-120054000D02*
X122778000Y-120054000D01*
X122778000Y-120054000D02*
X122778000Y-119754000D01*
X122778000Y-119754000D02*
X121578000Y-119754000D01*
X126300000Y-121030000D02*
X114300000Y-121030000D01*
X126300000Y-127030000D02*
X126300000Y-121030000D01*
X114300000Y-127030000D02*
X126300000Y-127030000D01*
X114300000Y-121030000D02*
X114300000Y-127030000D01*
X126300000Y-121030000D02*
X126300000Y-127030000D01*
X156075748Y-128520000D02*
X156598252Y-128520000D01*
X156075748Y-127100000D02*
X156598252Y-127100000D01*
X155578748Y-103120000D02*
X156101252Y-103120000D01*
X155578748Y-101700000D02*
X156101252Y-101700000D01*
X155578748Y-105660000D02*
X156101252Y-105660000D01*
X155578748Y-104240000D02*
X156101252Y-104240000D01*
X155578748Y-108200000D02*
X156101252Y-108200000D01*
X155578748Y-106780000D02*
X156101252Y-106780000D01*
X155578748Y-110740000D02*
X156101252Y-110740000D01*
X155578748Y-109320000D02*
X156101252Y-109320000D01*
X155578748Y-113280000D02*
X156101252Y-113280000D01*
X155578748Y-111860000D02*
X156101252Y-111860000D01*
X155578748Y-115678000D02*
X156101252Y-115678000D01*
X155578748Y-114258000D02*
X156101252Y-114258000D01*
X126700000Y-124905000D02*
X126700000Y-130905000D01*
X151700000Y-124905000D02*
X126700000Y-124905000D01*
X126700000Y-130905000D02*
X151700000Y-130905000D01*
X151700000Y-124905000D02*
X151700000Y-130905000D01*
X116459000Y-115431000D02*
X116459000Y-118091000D01*
X116459000Y-115431000D02*
X111319000Y-115431000D01*
X111319000Y-115431000D02*
X111319000Y-118091000D01*
X116459000Y-118091000D02*
X111319000Y-118091000D01*
X119059000Y-118091000D02*
X117729000Y-118091000D01*
X119059000Y-116761000D02*
X119059000Y-118091000D01*
X114360000Y-111300000D02*
X111700000Y-111300000D01*
X114360000Y-111300000D02*
X114360000Y-106160000D01*
X114360000Y-106160000D02*
X111700000Y-106160000D01*
X111700000Y-111300000D02*
X111700000Y-106160000D01*
X111700000Y-113900000D02*
X111700000Y-112570000D01*
X113030000Y-113900000D02*
X111700000Y-113900000D01*
X118932000Y-111681000D02*
X116272000Y-111681000D01*
X118932000Y-111681000D02*
X118932000Y-106541000D01*
X118932000Y-106541000D02*
X116272000Y-106541000D01*
X116272000Y-111681000D02*
X116272000Y-106541000D01*
X116272000Y-114281000D02*
X116272000Y-112951000D01*
X117602000Y-114281000D02*
X116272000Y-114281000D01*
X118932000Y-102410000D02*
X116272000Y-102410000D01*
X118932000Y-102410000D02*
X118932000Y-97270000D01*
X118932000Y-97270000D02*
X116272000Y-97270000D01*
X116272000Y-102410000D02*
X116272000Y-97270000D01*
X116272000Y-105010000D02*
X116272000Y-103680000D01*
X117602000Y-105010000D02*
X116272000Y-105010000D01*
X112081000Y-95933000D02*
X114741000Y-95933000D01*
X112081000Y-95933000D02*
X112081000Y-101073000D01*
X112081000Y-101073000D02*
X114741000Y-101073000D01*
X114741000Y-95933000D02*
X114741000Y-101073000D01*
X114741000Y-93333000D02*
X114741000Y-94663000D01*
X113411000Y-93333000D02*
X114741000Y-93333000D01*
X122301000Y-101327000D02*
X120971000Y-101327000D01*
X120971000Y-101327000D02*
X120971000Y-99997000D01*
X120971000Y-98727000D02*
X120971000Y-93587000D01*
X123631000Y-93587000D02*
X120971000Y-93587000D01*
X123631000Y-98727000D02*
X123631000Y-93587000D01*
X123631000Y-98727000D02*
X120971000Y-98727000D01*
D11*
X123536000Y-106049000D02*
X123146000Y-106049000D01*
X123146000Y-106049000D02*
X123146000Y-106439000D01*
D12*
X120896000Y-106699000D02*
G75*
G03*
X120896000Y-106699000I-150000J0D01*
G01*
D11*
X123146000Y-112859000D02*
X123146000Y-113249000D01*
X123146000Y-113249000D02*
X123536000Y-113249000D01*
X129956000Y-113249000D02*
X130346000Y-113249000D01*
X130346000Y-113249000D02*
X130346000Y-112859000D01*
X130346000Y-106439000D02*
X130346000Y-106049000D01*
X130346000Y-106049000D02*
X129956000Y-106049000D01*
D10*
X155647000Y-125071000D02*
X162107000Y-125071000D01*
X155647000Y-120541000D02*
X155647000Y-123141000D01*
X155647000Y-118611000D02*
X162107000Y-118611000D01*
X162107000Y-120541000D02*
X162107000Y-123141000D01*
X155647000Y-118641000D02*
X155647000Y-118611000D01*
X155647000Y-125071000D02*
X155647000Y-125041000D01*
X162107000Y-125071000D02*
X162107000Y-125041000D01*
X162107000Y-118611000D02*
X162107000Y-118641000D01*
X151660000Y-98528000D02*
X148060000Y-98528000D01*
X148021522Y-98539522D02*
G75*
G03*
X149860000Y-102978000I1838478J-1838478D01*
G01*
X151698478Y-98539522D02*
G75*
G02*
X149860000Y-102978000I-1838478J-1838478D01*
G01*
X151671000Y-108673000D02*
X148071000Y-108673000D01*
X148032522Y-108684522D02*
G75*
G03*
X149871000Y-113123000I1838478J-1838478D01*
G01*
X151709478Y-108684522D02*
G75*
G02*
X149871000Y-113123000I-1838478J-1838478D01*
G01*
X151671000Y-103593000D02*
X148071000Y-103593000D01*
X148032522Y-103604522D02*
G75*
G03*
X149871000Y-108043000I1838478J-1838478D01*
G01*
X151709478Y-103604522D02*
G75*
G02*
X149871000Y-108043000I-1838478J-1838478D01*
G01*
X151671000Y-113753000D02*
X148071000Y-113753000D01*
X148032522Y-113764522D02*
G75*
G03*
X149871000Y-118203000I1838478J-1838478D01*
G01*
X151709478Y-113764522D02*
G75*
G02*
X149871000Y-118203000I-1838478J-1838478D01*
G01*
X161230000Y-108827000D02*
X162560000Y-108827000D01*
X161230000Y-110157000D02*
X161230000Y-108827000D01*
X161230000Y-111427000D02*
X163890000Y-111427000D01*
X163890000Y-111427000D02*
X163890000Y-116567000D01*
X161230000Y-111427000D02*
X161230000Y-116567000D01*
X161230000Y-116567000D02*
X163890000Y-116567000D01*
X161230000Y-99683000D02*
X162560000Y-99683000D01*
X161230000Y-101013000D02*
X161230000Y-99683000D01*
X161230000Y-102283000D02*
X163890000Y-102283000D01*
X163890000Y-102283000D02*
X163890000Y-107423000D01*
X161230000Y-102283000D02*
X161230000Y-107423000D01*
X161230000Y-107423000D02*
X163890000Y-107423000D01*
X158182000Y-95866000D02*
X158182000Y-94536000D01*
X159512000Y-95866000D02*
X158182000Y-95866000D01*
X160782000Y-95866000D02*
X160782000Y-93206000D01*
X160782000Y-93206000D02*
X163382000Y-93206000D01*
X160782000Y-95866000D02*
X163382000Y-95866000D01*
X163382000Y-95866000D02*
X163382000Y-93206000D01*
X162515733Y-128320000D02*
X162858267Y-128320000D01*
X162515733Y-127300000D02*
X162858267Y-127300000D01*
X135984593Y-115332740D02*
X136327127Y-115332740D01*
X135984593Y-114312740D02*
X136327127Y-114312740D01*
X135984593Y-113554740D02*
X136327127Y-113554740D01*
X135984593Y-112534740D02*
X136327127Y-112534740D01*
X135984593Y-111776740D02*
X136327127Y-111776740D01*
X135984593Y-110756740D02*
X136327127Y-110756740D01*
X135984593Y-109998740D02*
X136327127Y-109998740D01*
X135984593Y-108978740D02*
X136327127Y-108978740D01*
X135984593Y-108220740D02*
X136327127Y-108220740D01*
X135984593Y-107200740D02*
X136327127Y-107200740D01*
X135972733Y-106476000D02*
X136315267Y-106476000D01*
X135972733Y-105456000D02*
X136315267Y-105456000D01*
X135882748Y-104644000D02*
X136405252Y-104644000D01*
X135882748Y-103224000D02*
X136405252Y-103224000D01*
X128404252Y-100049000D02*
X127881748Y-100049000D01*
X128404252Y-101469000D02*
X127881748Y-101469000D01*
D13*
X113093666Y-63292380D02*
X112760333Y-62816190D01*
X112522238Y-63292380D02*
X112522238Y-62292380D01*
X112903190Y-62292380D01*
X112998428Y-62340000D01*
X113046047Y-62387619D01*
X113093666Y-62482857D01*
X113093666Y-62625714D01*
X113046047Y-62720952D01*
X112998428Y-62768571D01*
X112903190Y-62816190D01*
X112522238Y-62816190D01*
X113522238Y-62768571D02*
X113855571Y-62768571D01*
X113998428Y-63292380D02*
X113522238Y-63292380D01*
X113522238Y-62292380D01*
X113998428Y-62292380D01*
X114760333Y-62768571D02*
X114427000Y-62768571D01*
X114427000Y-63292380D02*
X114427000Y-62292380D01*
X114903190Y-62292380D01*
X115427000Y-62292380D02*
X115427000Y-62530476D01*
X115188904Y-62435238D02*
X115427000Y-62530476D01*
X115665095Y-62435238D01*
X115284142Y-62720952D02*
X115427000Y-62530476D01*
X115569857Y-62720952D01*
X116188904Y-62292380D02*
X116188904Y-62530476D01*
X115950809Y-62435238D02*
X116188904Y-62530476D01*
X116427000Y-62435238D01*
X116046047Y-62720952D02*
X116188904Y-62530476D01*
X116331761Y-62720952D01*
X160718666Y-63292380D02*
X160385333Y-62816190D01*
X160147238Y-63292380D02*
X160147238Y-62292380D01*
X160528190Y-62292380D01*
X160623428Y-62340000D01*
X160671047Y-62387619D01*
X160718666Y-62482857D01*
X160718666Y-62625714D01*
X160671047Y-62720952D01*
X160623428Y-62768571D01*
X160528190Y-62816190D01*
X160147238Y-62816190D01*
X161147238Y-62768571D02*
X161480571Y-62768571D01*
X161623428Y-63292380D02*
X161147238Y-63292380D01*
X161147238Y-62292380D01*
X161623428Y-62292380D01*
X162385333Y-62768571D02*
X162052000Y-62768571D01*
X162052000Y-63292380D02*
X162052000Y-62292380D01*
X162528190Y-62292380D01*
X163052000Y-62292380D02*
X163052000Y-62530476D01*
X162813904Y-62435238D02*
X163052000Y-62530476D01*
X163290095Y-62435238D01*
X162909142Y-62720952D02*
X163052000Y-62530476D01*
X163194857Y-62720952D01*
X163813904Y-62292380D02*
X163813904Y-62530476D01*
X163575809Y-62435238D02*
X163813904Y-62530476D01*
X164052000Y-62435238D01*
X163671047Y-62720952D02*
X163813904Y-62530476D01*
X163956761Y-62720952D01*
X160591666Y-152192380D02*
X160258333Y-151716190D01*
X160020238Y-152192380D02*
X160020238Y-151192380D01*
X160401190Y-151192380D01*
X160496428Y-151240000D01*
X160544047Y-151287619D01*
X160591666Y-151382857D01*
X160591666Y-151525714D01*
X160544047Y-151620952D01*
X160496428Y-151668571D01*
X160401190Y-151716190D01*
X160020238Y-151716190D01*
X161020238Y-151668571D02*
X161353571Y-151668571D01*
X161496428Y-152192380D02*
X161020238Y-152192380D01*
X161020238Y-151192380D01*
X161496428Y-151192380D01*
X162258333Y-151668571D02*
X161925000Y-151668571D01*
X161925000Y-152192380D02*
X161925000Y-151192380D01*
X162401190Y-151192380D01*
X162925000Y-151192380D02*
X162925000Y-151430476D01*
X162686904Y-151335238D02*
X162925000Y-151430476D01*
X163163095Y-151335238D01*
X162782142Y-151620952D02*
X162925000Y-151430476D01*
X163067857Y-151620952D01*
X163686904Y-151192380D02*
X163686904Y-151430476D01*
X163448809Y-151335238D02*
X163686904Y-151430476D01*
X163925000Y-151335238D01*
X163544047Y-151620952D02*
X163686904Y-151430476D01*
X163829761Y-151620952D01*
X112966666Y-152192380D02*
X112633333Y-151716190D01*
X112395238Y-152192380D02*
X112395238Y-151192380D01*
X112776190Y-151192380D01*
X112871428Y-151240000D01*
X112919047Y-151287619D01*
X112966666Y-151382857D01*
X112966666Y-151525714D01*
X112919047Y-151620952D01*
X112871428Y-151668571D01*
X112776190Y-151716190D01*
X112395238Y-151716190D01*
X113395238Y-151668571D02*
X113728571Y-151668571D01*
X113871428Y-152192380D02*
X113395238Y-152192380D01*
X113395238Y-151192380D01*
X113871428Y-151192380D01*
X114633333Y-151668571D02*
X114300000Y-151668571D01*
X114300000Y-152192380D02*
X114300000Y-151192380D01*
X114776190Y-151192380D01*
X115300000Y-151192380D02*
X115300000Y-151430476D01*
X115061904Y-151335238D02*
X115300000Y-151430476D01*
X115538095Y-151335238D01*
X115157142Y-151620952D02*
X115300000Y-151430476D01*
X115442857Y-151620952D01*
X116061904Y-151192380D02*
X116061904Y-151430476D01*
X115823809Y-151335238D02*
X116061904Y-151430476D01*
X116300000Y-151335238D01*
X115919047Y-151620952D02*
X116061904Y-151430476D01*
X116204761Y-151620952D01*
X157734095Y-97290380D02*
X157734095Y-98099904D01*
X157781714Y-98195142D01*
X157829333Y-98242761D01*
X157924571Y-98290380D01*
X158115047Y-98290380D01*
X158210285Y-98242761D01*
X158257904Y-98195142D01*
X158305523Y-98099904D01*
X158305523Y-97290380D01*
X159257904Y-97290380D02*
X158781714Y-97290380D01*
X158734095Y-97766571D01*
X158781714Y-97718952D01*
X158876952Y-97671333D01*
X159115047Y-97671333D01*
X159210285Y-97718952D01*
X159257904Y-97766571D01*
X159305523Y-97861809D01*
X159305523Y-98099904D01*
X159257904Y-98195142D01*
X159210285Y-98242761D01*
X159115047Y-98290380D01*
X158876952Y-98290380D01*
X158781714Y-98242761D01*
X158734095Y-98195142D01*
X154178190Y-97417380D02*
X154511523Y-98417380D01*
X154844857Y-97417380D01*
X155321047Y-98417380D02*
X155225809Y-98369761D01*
X155178190Y-98322142D01*
X155130571Y-98226904D01*
X155130571Y-97941190D01*
X155178190Y-97845952D01*
X155225809Y-97798333D01*
X155321047Y-97750714D01*
X155463904Y-97750714D01*
X155559142Y-97798333D01*
X155606761Y-97845952D01*
X155654380Y-97941190D01*
X155654380Y-98226904D01*
X155606761Y-98322142D01*
X155559142Y-98369761D01*
X155463904Y-98417380D01*
X155321047Y-98417380D01*
X156511523Y-97750714D02*
X156511523Y-98417380D01*
X156082952Y-97750714D02*
X156082952Y-98274523D01*
X156130571Y-98369761D01*
X156225809Y-98417380D01*
X156368666Y-98417380D01*
X156463904Y-98369761D01*
X156511523Y-98322142D01*
X156844857Y-97750714D02*
X157225809Y-97750714D01*
X156987714Y-97417380D02*
X156987714Y-98274523D01*
X157035333Y-98369761D01*
X157130571Y-98417380D01*
X157225809Y-98417380D01*
X148994904Y-97893571D02*
X149137761Y-97941190D01*
X149185380Y-97988809D01*
X149233000Y-98084047D01*
X149233000Y-98226904D01*
X149185380Y-98322142D01*
X149137761Y-98369761D01*
X149042523Y-98417380D01*
X148661571Y-98417380D01*
X148661571Y-97417380D01*
X148994904Y-97417380D01*
X149090142Y-97465000D01*
X149137761Y-97512619D01*
X149185380Y-97607857D01*
X149185380Y-97703095D01*
X149137761Y-97798333D01*
X149090142Y-97845952D01*
X148994904Y-97893571D01*
X148661571Y-97893571D01*
X149613952Y-98131666D02*
X150090142Y-98131666D01*
X149518714Y-98417380D02*
X149852047Y-97417380D01*
X150185380Y-98417380D01*
X150375857Y-97417380D02*
X150947285Y-97417380D01*
X150661571Y-98417380D02*
X150661571Y-97417380D01*
X151765095Y-97465000D02*
X151669857Y-97417380D01*
X151527000Y-97417380D01*
X151384142Y-97465000D01*
X151288904Y-97560238D01*
X151241285Y-97655476D01*
X151193666Y-97845952D01*
X151193666Y-97988809D01*
X151241285Y-98179285D01*
X151288904Y-98274523D01*
X151384142Y-98369761D01*
X151527000Y-98417380D01*
X151622238Y-98417380D01*
X151765095Y-98369761D01*
X151812714Y-98322142D01*
X151812714Y-97988809D01*
X151622238Y-97988809D01*
X152241285Y-98417380D02*
X152241285Y-97417380D01*
X152812714Y-98417380D01*
X152812714Y-97417380D01*
X153288904Y-98417380D02*
X153288904Y-97417380D01*
X153527000Y-97417380D01*
X153669857Y-97465000D01*
X153765095Y-97560238D01*
X153812714Y-97655476D01*
X153860333Y-97845952D01*
X153860333Y-97988809D01*
X153812714Y-98179285D01*
X153765095Y-98274523D01*
X153669857Y-98369761D01*
X153527000Y-98417380D01*
X153288904Y-98417380D01*
X146177095Y-97465000D02*
X146081857Y-97417380D01*
X145939000Y-97417380D01*
X145796142Y-97465000D01*
X145700904Y-97560238D01*
X145653285Y-97655476D01*
X145605666Y-97845952D01*
X145605666Y-97988809D01*
X145653285Y-98179285D01*
X145700904Y-98274523D01*
X145796142Y-98369761D01*
X145939000Y-98417380D01*
X146034238Y-98417380D01*
X146177095Y-98369761D01*
X146224714Y-98322142D01*
X146224714Y-97988809D01*
X146034238Y-97988809D01*
X146653285Y-98417380D02*
X146653285Y-97417380D01*
X147224714Y-98417380D01*
X147224714Y-97417380D01*
X147700904Y-98417380D02*
X147700904Y-97417380D01*
X147939000Y-97417380D01*
X148081857Y-97465000D01*
X148177095Y-97560238D01*
X148224714Y-97655476D01*
X148272333Y-97845952D01*
X148272333Y-97988809D01*
X148224714Y-98179285D01*
X148177095Y-98274523D01*
X148081857Y-98369761D01*
X147939000Y-98417380D01*
X147700904Y-98417380D01*
X143637095Y-97465000D02*
X143541857Y-97417380D01*
X143399000Y-97417380D01*
X143256142Y-97465000D01*
X143160904Y-97560238D01*
X143113285Y-97655476D01*
X143065666Y-97845952D01*
X143065666Y-97988809D01*
X143113285Y-98179285D01*
X143160904Y-98274523D01*
X143256142Y-98369761D01*
X143399000Y-98417380D01*
X143494238Y-98417380D01*
X143637095Y-98369761D01*
X143684714Y-98322142D01*
X143684714Y-97988809D01*
X143494238Y-97988809D01*
X144113285Y-98417380D02*
X144113285Y-97417380D01*
X144684714Y-98417380D01*
X144684714Y-97417380D01*
X145160904Y-98417380D02*
X145160904Y-97417380D01*
X145399000Y-97417380D01*
X145541857Y-97465000D01*
X145637095Y-97560238D01*
X145684714Y-97655476D01*
X145732333Y-97845952D01*
X145732333Y-97988809D01*
X145684714Y-98179285D01*
X145637095Y-98274523D01*
X145541857Y-98369761D01*
X145399000Y-98417380D01*
X145160904Y-98417380D01*
X140581190Y-97544380D02*
X140914523Y-98544380D01*
X141247857Y-97544380D01*
X141581190Y-98544380D02*
X141581190Y-97877714D01*
X141581190Y-97544380D02*
X141533571Y-97592000D01*
X141581190Y-97639619D01*
X141628809Y-97592000D01*
X141581190Y-97544380D01*
X141581190Y-97639619D01*
X142057380Y-97877714D02*
X142057380Y-98544380D01*
X142057380Y-97972952D02*
X142105000Y-97925333D01*
X142200238Y-97877714D01*
X142343095Y-97877714D01*
X142438333Y-97925333D01*
X142485952Y-98020571D01*
X142485952Y-98544380D01*
X125650666Y-115070380D02*
X125650666Y-115784666D01*
X125603047Y-115927523D01*
X125507809Y-116022761D01*
X125364952Y-116070380D01*
X125269714Y-116070380D01*
X126555428Y-115403714D02*
X126555428Y-116070380D01*
X126317333Y-115022761D02*
X126079238Y-115737047D01*
X126698285Y-115737047D01*
X112815714Y-123119000D02*
X112720476Y-123071380D01*
X112577619Y-123071380D01*
X112434761Y-123119000D01*
X112339523Y-123214238D01*
X112291904Y-123309476D01*
X112244285Y-123499952D01*
X112244285Y-123642809D01*
X112291904Y-123833285D01*
X112339523Y-123928523D01*
X112434761Y-124023761D01*
X112577619Y-124071380D01*
X112672857Y-124071380D01*
X112815714Y-124023761D01*
X112863333Y-123976142D01*
X112863333Y-123642809D01*
X112672857Y-123642809D01*
X113815714Y-124071380D02*
X113244285Y-124071380D01*
X113530000Y-124071380D02*
X113530000Y-123071380D01*
X113434761Y-123214238D01*
X113339523Y-123309476D01*
X113244285Y-123357095D01*
X115062095Y-119690000D02*
X114966857Y-119642380D01*
X114824000Y-119642380D01*
X114681142Y-119690000D01*
X114585904Y-119785238D01*
X114538285Y-119880476D01*
X114490666Y-120070952D01*
X114490666Y-120213809D01*
X114538285Y-120404285D01*
X114585904Y-120499523D01*
X114681142Y-120594761D01*
X114824000Y-120642380D01*
X114919238Y-120642380D01*
X115062095Y-120594761D01*
X115109714Y-120547142D01*
X115109714Y-120213809D01*
X114919238Y-120213809D01*
X115538285Y-120642380D02*
X115538285Y-119642380D01*
X116109714Y-120642380D01*
X116109714Y-119642380D01*
X116585904Y-120642380D02*
X116585904Y-119642380D01*
X116824000Y-119642380D01*
X116966857Y-119690000D01*
X117062095Y-119785238D01*
X117109714Y-119880476D01*
X117157333Y-120070952D01*
X117157333Y-120213809D01*
X117109714Y-120404285D01*
X117062095Y-120499523D01*
X116966857Y-120594761D01*
X116824000Y-120642380D01*
X116585904Y-120642380D01*
X156170333Y-126612380D02*
X155837000Y-126136190D01*
X155598904Y-126612380D02*
X155598904Y-125612380D01*
X155979857Y-125612380D01*
X156075095Y-125660000D01*
X156122714Y-125707619D01*
X156170333Y-125802857D01*
X156170333Y-125945714D01*
X156122714Y-126040952D01*
X156075095Y-126088571D01*
X155979857Y-126136190D01*
X155598904Y-126136190D01*
X156503666Y-125612380D02*
X157170333Y-125612380D01*
X156741761Y-126612380D01*
X158837333Y-103004380D02*
X158504000Y-102528190D01*
X158265904Y-103004380D02*
X158265904Y-102004380D01*
X158646857Y-102004380D01*
X158742095Y-102052000D01*
X158789714Y-102099619D01*
X158837333Y-102194857D01*
X158837333Y-102337714D01*
X158789714Y-102432952D01*
X158742095Y-102480571D01*
X158646857Y-102528190D01*
X158265904Y-102528190D01*
X159694476Y-102004380D02*
X159504000Y-102004380D01*
X159408761Y-102052000D01*
X159361142Y-102099619D01*
X159265904Y-102242476D01*
X159218285Y-102432952D01*
X159218285Y-102813904D01*
X159265904Y-102909142D01*
X159313523Y-102956761D01*
X159408761Y-103004380D01*
X159599238Y-103004380D01*
X159694476Y-102956761D01*
X159742095Y-102909142D01*
X159789714Y-102813904D01*
X159789714Y-102575809D01*
X159742095Y-102480571D01*
X159694476Y-102432952D01*
X159599238Y-102385333D01*
X159408761Y-102385333D01*
X159313523Y-102432952D01*
X159265904Y-102480571D01*
X159218285Y-102575809D01*
X158837333Y-105544380D02*
X158504000Y-105068190D01*
X158265904Y-105544380D02*
X158265904Y-104544380D01*
X158646857Y-104544380D01*
X158742095Y-104592000D01*
X158789714Y-104639619D01*
X158837333Y-104734857D01*
X158837333Y-104877714D01*
X158789714Y-104972952D01*
X158742095Y-105020571D01*
X158646857Y-105068190D01*
X158265904Y-105068190D01*
X159742095Y-104544380D02*
X159265904Y-104544380D01*
X159218285Y-105020571D01*
X159265904Y-104972952D01*
X159361142Y-104925333D01*
X159599238Y-104925333D01*
X159694476Y-104972952D01*
X159742095Y-105020571D01*
X159789714Y-105115809D01*
X159789714Y-105353904D01*
X159742095Y-105449142D01*
X159694476Y-105496761D01*
X159599238Y-105544380D01*
X159361142Y-105544380D01*
X159265904Y-105496761D01*
X159218285Y-105449142D01*
X158837333Y-108084380D02*
X158504000Y-107608190D01*
X158265904Y-108084380D02*
X158265904Y-107084380D01*
X158646857Y-107084380D01*
X158742095Y-107132000D01*
X158789714Y-107179619D01*
X158837333Y-107274857D01*
X158837333Y-107417714D01*
X158789714Y-107512952D01*
X158742095Y-107560571D01*
X158646857Y-107608190D01*
X158265904Y-107608190D01*
X159694476Y-107417714D02*
X159694476Y-108084380D01*
X159456380Y-107036761D02*
X159218285Y-107751047D01*
X159837333Y-107751047D01*
X158837333Y-110624380D02*
X158504000Y-110148190D01*
X158265904Y-110624380D02*
X158265904Y-109624380D01*
X158646857Y-109624380D01*
X158742095Y-109672000D01*
X158789714Y-109719619D01*
X158837333Y-109814857D01*
X158837333Y-109957714D01*
X158789714Y-110052952D01*
X158742095Y-110100571D01*
X158646857Y-110148190D01*
X158265904Y-110148190D01*
X159170666Y-109624380D02*
X159789714Y-109624380D01*
X159456380Y-110005333D01*
X159599238Y-110005333D01*
X159694476Y-110052952D01*
X159742095Y-110100571D01*
X159789714Y-110195809D01*
X159789714Y-110433904D01*
X159742095Y-110529142D01*
X159694476Y-110576761D01*
X159599238Y-110624380D01*
X159313523Y-110624380D01*
X159218285Y-110576761D01*
X159170666Y-110529142D01*
X158837333Y-113164380D02*
X158504000Y-112688190D01*
X158265904Y-113164380D02*
X158265904Y-112164380D01*
X158646857Y-112164380D01*
X158742095Y-112212000D01*
X158789714Y-112259619D01*
X158837333Y-112354857D01*
X158837333Y-112497714D01*
X158789714Y-112592952D01*
X158742095Y-112640571D01*
X158646857Y-112688190D01*
X158265904Y-112688190D01*
X159218285Y-112259619D02*
X159265904Y-112212000D01*
X159361142Y-112164380D01*
X159599238Y-112164380D01*
X159694476Y-112212000D01*
X159742095Y-112259619D01*
X159789714Y-112354857D01*
X159789714Y-112450095D01*
X159742095Y-112592952D01*
X159170666Y-113164380D01*
X159789714Y-113164380D01*
X158837333Y-115562380D02*
X158504000Y-115086190D01*
X158265904Y-115562380D02*
X158265904Y-114562380D01*
X158646857Y-114562380D01*
X158742095Y-114610000D01*
X158789714Y-114657619D01*
X158837333Y-114752857D01*
X158837333Y-114895714D01*
X158789714Y-114990952D01*
X158742095Y-115038571D01*
X158646857Y-115086190D01*
X158265904Y-115086190D01*
X159789714Y-115562380D02*
X159218285Y-115562380D01*
X159504000Y-115562380D02*
X159504000Y-114562380D01*
X159408761Y-114705238D01*
X159313523Y-114800476D01*
X159218285Y-114848095D01*
X139065095Y-122436380D02*
X139065095Y-123245904D01*
X139112714Y-123341142D01*
X139160333Y-123388761D01*
X139255571Y-123436380D01*
X139446047Y-123436380D01*
X139541285Y-123388761D01*
X139588904Y-123341142D01*
X139636523Y-123245904D01*
X139636523Y-122436380D01*
X140017476Y-122436380D02*
X140636523Y-122436380D01*
X140303190Y-122817333D01*
X140446047Y-122817333D01*
X140541285Y-122864952D01*
X140588904Y-122912571D01*
X140636523Y-123007809D01*
X140636523Y-123245904D01*
X140588904Y-123341142D01*
X140541285Y-123388761D01*
X140446047Y-123436380D01*
X140160333Y-123436380D01*
X140065095Y-123388761D01*
X140017476Y-123341142D01*
X149509523Y-124309761D02*
X149652380Y-124357380D01*
X149890476Y-124357380D01*
X149985714Y-124309761D01*
X150033333Y-124262142D01*
X150080952Y-124166904D01*
X150080952Y-124071666D01*
X150033333Y-123976428D01*
X149985714Y-123928809D01*
X149890476Y-123881190D01*
X149700000Y-123833571D01*
X149604761Y-123785952D01*
X149557142Y-123738333D01*
X149509523Y-123643095D01*
X149509523Y-123547857D01*
X149557142Y-123452619D01*
X149604761Y-123405000D01*
X149700000Y-123357380D01*
X149938095Y-123357380D01*
X150080952Y-123405000D01*
X151080952Y-124262142D02*
X151033333Y-124309761D01*
X150890476Y-124357380D01*
X150795238Y-124357380D01*
X150652380Y-124309761D01*
X150557142Y-124214523D01*
X150509523Y-124119285D01*
X150461904Y-123928809D01*
X150461904Y-123785952D01*
X150509523Y-123595476D01*
X150557142Y-123500238D01*
X150652380Y-123405000D01*
X150795238Y-123357380D01*
X150890476Y-123357380D01*
X151033333Y-123405000D01*
X151080952Y-123452619D01*
X151985714Y-124357380D02*
X151509523Y-124357380D01*
X151509523Y-123357380D01*
X146485714Y-124309761D02*
X146628571Y-124357380D01*
X146866666Y-124357380D01*
X146961904Y-124309761D01*
X147009523Y-124262142D01*
X147057142Y-124166904D01*
X147057142Y-124071666D01*
X147009523Y-123976428D01*
X146961904Y-123928809D01*
X146866666Y-123881190D01*
X146676190Y-123833571D01*
X146580952Y-123785952D01*
X146533333Y-123738333D01*
X146485714Y-123643095D01*
X146485714Y-123547857D01*
X146533333Y-123452619D01*
X146580952Y-123405000D01*
X146676190Y-123357380D01*
X146914285Y-123357380D01*
X147057142Y-123405000D01*
X147485714Y-124357380D02*
X147485714Y-123357380D01*
X147723809Y-123357380D01*
X147866666Y-123405000D01*
X147961904Y-123500238D01*
X148009523Y-123595476D01*
X148057142Y-123785952D01*
X148057142Y-123928809D01*
X148009523Y-124119285D01*
X147961904Y-124214523D01*
X147866666Y-124309761D01*
X147723809Y-124357380D01*
X147485714Y-124357380D01*
X148438095Y-124071666D02*
X148914285Y-124071666D01*
X148342857Y-124357380D02*
X148676190Y-123357380D01*
X149009523Y-124357380D01*
X130461904Y-123357380D02*
X131080952Y-123357380D01*
X130747619Y-123738333D01*
X130890476Y-123738333D01*
X130985714Y-123785952D01*
X131033333Y-123833571D01*
X131080952Y-123928809D01*
X131080952Y-124166904D01*
X131033333Y-124262142D01*
X130985714Y-124309761D01*
X130890476Y-124357380D01*
X130604761Y-124357380D01*
X130509523Y-124309761D01*
X130461904Y-124262142D01*
X131366666Y-123357380D02*
X131700000Y-124357380D01*
X132033333Y-123357380D01*
X132271428Y-123357380D02*
X132890476Y-123357380D01*
X132557142Y-123738333D01*
X132700000Y-123738333D01*
X132795238Y-123785952D01*
X132842857Y-123833571D01*
X132890476Y-123928809D01*
X132890476Y-124166904D01*
X132842857Y-124262142D01*
X132795238Y-124309761D01*
X132700000Y-124357380D01*
X132414285Y-124357380D01*
X132319047Y-124309761D01*
X132271428Y-124262142D01*
X135938095Y-123405000D02*
X135842857Y-123357380D01*
X135700000Y-123357380D01*
X135557142Y-123405000D01*
X135461904Y-123500238D01*
X135414285Y-123595476D01*
X135366666Y-123785952D01*
X135366666Y-123928809D01*
X135414285Y-124119285D01*
X135461904Y-124214523D01*
X135557142Y-124309761D01*
X135700000Y-124357380D01*
X135795238Y-124357380D01*
X135938095Y-124309761D01*
X135985714Y-124262142D01*
X135985714Y-123928809D01*
X135795238Y-123928809D01*
X136414285Y-124357380D02*
X136414285Y-123357380D01*
X136985714Y-124357380D01*
X136985714Y-123357380D01*
X137461904Y-124357380D02*
X137461904Y-123357380D01*
X137700000Y-123357380D01*
X137842857Y-123405000D01*
X137938095Y-123500238D01*
X137985714Y-123595476D01*
X138033333Y-123785952D01*
X138033333Y-123928809D01*
X137985714Y-124119285D01*
X137938095Y-124214523D01*
X137842857Y-124309761D01*
X137700000Y-124357380D01*
X137461904Y-124357380D01*
X109561380Y-117570523D02*
X110275666Y-117570523D01*
X110418523Y-117618142D01*
X110513761Y-117713380D01*
X110561380Y-117856238D01*
X110561380Y-117951476D01*
X110561380Y-116570523D02*
X110561380Y-117141952D01*
X110561380Y-116856238D02*
X109561380Y-116856238D01*
X109704238Y-116951476D01*
X109799476Y-117046714D01*
X109847095Y-117141952D01*
X110561380Y-115618142D02*
X110561380Y-116189571D01*
X110561380Y-115903857D02*
X109561380Y-115903857D01*
X109704238Y-115999095D01*
X109799476Y-116094333D01*
X109847095Y-116189571D01*
X117800428Y-119808952D02*
X117800428Y-119047047D01*
X118181380Y-119428000D02*
X117419476Y-119428000D01*
X112720428Y-119681952D02*
X112720428Y-118920047D01*
X112093476Y-104402380D02*
X112093476Y-105116666D01*
X112045857Y-105259523D01*
X111950619Y-105354761D01*
X111807761Y-105402380D01*
X111712523Y-105402380D01*
X113093476Y-105402380D02*
X112522047Y-105402380D01*
X112807761Y-105402380D02*
X112807761Y-104402380D01*
X112712523Y-104545238D01*
X112617285Y-104640476D01*
X112522047Y-104688095D01*
X113712523Y-104402380D02*
X113807761Y-104402380D01*
X113903000Y-104450000D01*
X113950619Y-104497619D01*
X113998238Y-104592857D01*
X114045857Y-104783333D01*
X114045857Y-105021428D01*
X113998238Y-105211904D01*
X113950619Y-105307142D01*
X113903000Y-105354761D01*
X113807761Y-105402380D01*
X113712523Y-105402380D01*
X113617285Y-105354761D01*
X113569666Y-105307142D01*
X113522047Y-105211904D01*
X113474428Y-105021428D01*
X113474428Y-104783333D01*
X113522047Y-104592857D01*
X113569666Y-104497619D01*
X113617285Y-104450000D01*
X113712523Y-104402380D01*
X114935047Y-112641428D02*
X115696952Y-112641428D01*
X115316000Y-113022380D02*
X115316000Y-112260476D01*
X114935047Y-107434428D02*
X115696952Y-107434428D01*
X120062666Y-110117380D02*
X120062666Y-110831666D01*
X120015047Y-110974523D01*
X119919809Y-111069761D01*
X119776952Y-111117380D01*
X119681714Y-111117380D01*
X120586476Y-111117380D02*
X120776952Y-111117380D01*
X120872190Y-111069761D01*
X120919809Y-111022142D01*
X121015047Y-110879285D01*
X121062666Y-110688809D01*
X121062666Y-110307857D01*
X121015047Y-110212619D01*
X120967428Y-110165000D01*
X120872190Y-110117380D01*
X120681714Y-110117380D01*
X120586476Y-110165000D01*
X120538857Y-110212619D01*
X120491238Y-110307857D01*
X120491238Y-110545952D01*
X120538857Y-110641190D01*
X120586476Y-110688809D01*
X120681714Y-110736428D01*
X120872190Y-110736428D01*
X120967428Y-110688809D01*
X121015047Y-110641190D01*
X121062666Y-110545952D01*
X119888047Y-113022428D02*
X120649952Y-113022428D01*
X120269000Y-113403380D02*
X120269000Y-112641476D01*
X119888047Y-107815428D02*
X120649952Y-107815428D01*
X114601666Y-103132380D02*
X114601666Y-103846666D01*
X114554047Y-103989523D01*
X114458809Y-104084761D01*
X114315952Y-104132380D01*
X114220714Y-104132380D01*
X115220714Y-103560952D02*
X115125476Y-103513333D01*
X115077857Y-103465714D01*
X115030238Y-103370476D01*
X115030238Y-103322857D01*
X115077857Y-103227619D01*
X115125476Y-103180000D01*
X115220714Y-103132380D01*
X115411190Y-103132380D01*
X115506428Y-103180000D01*
X115554047Y-103227619D01*
X115601666Y-103322857D01*
X115601666Y-103370476D01*
X115554047Y-103465714D01*
X115506428Y-103513333D01*
X115411190Y-103560952D01*
X115220714Y-103560952D01*
X115125476Y-103608571D01*
X115077857Y-103656190D01*
X115030238Y-103751428D01*
X115030238Y-103941904D01*
X115077857Y-104037142D01*
X115125476Y-104084761D01*
X115220714Y-104132380D01*
X115411190Y-104132380D01*
X115506428Y-104084761D01*
X115554047Y-104037142D01*
X115601666Y-103941904D01*
X115601666Y-103751428D01*
X115554047Y-103656190D01*
X115506428Y-103608571D01*
X115411190Y-103560952D01*
X119761047Y-103751428D02*
X120522952Y-103751428D01*
X120142000Y-104132380D02*
X120142000Y-103370476D01*
X119507047Y-98417428D02*
X120268952Y-98417428D01*
X113204666Y-91194380D02*
X113204666Y-91908666D01*
X113157047Y-92051523D01*
X113061809Y-92146761D01*
X112918952Y-92194380D01*
X112823714Y-92194380D01*
X113585619Y-91194380D02*
X114252285Y-91194380D01*
X113823714Y-92194380D01*
X110617047Y-94607428D02*
X111378952Y-94607428D01*
X110998000Y-94988380D02*
X110998000Y-94226476D01*
X110617047Y-99687428D02*
X111378952Y-99687428D01*
X122094666Y-102243380D02*
X122094666Y-102957666D01*
X122047047Y-103100523D01*
X121951809Y-103195761D01*
X121808952Y-103243380D01*
X121713714Y-103243380D01*
X122999428Y-102243380D02*
X122808952Y-102243380D01*
X122713714Y-102291000D01*
X122666095Y-102338619D01*
X122570857Y-102481476D01*
X122523238Y-102671952D01*
X122523238Y-103052904D01*
X122570857Y-103148142D01*
X122618476Y-103195761D01*
X122713714Y-103243380D01*
X122904190Y-103243380D01*
X122999428Y-103195761D01*
X123047047Y-103148142D01*
X123094666Y-103052904D01*
X123094666Y-102814809D01*
X123047047Y-102719571D01*
X122999428Y-102671952D01*
X122904190Y-102624333D01*
X122713714Y-102624333D01*
X122618476Y-102671952D01*
X122570857Y-102719571D01*
X122523238Y-102814809D01*
X124841047Y-100068428D02*
X125602952Y-100068428D01*
X125222000Y-100449380D02*
X125222000Y-99687476D01*
X124841047Y-95115428D02*
X125602952Y-95115428D01*
X132352478Y-98970468D02*
X132352478Y-100300210D01*
X132430698Y-100456650D01*
X132508918Y-100534870D01*
X132665358Y-100613090D01*
X132978239Y-100613090D01*
X133134679Y-100534870D01*
X133212899Y-100456650D01*
X133291119Y-100300210D01*
X133291119Y-98970468D01*
X134777301Y-99518009D02*
X134777301Y-100613090D01*
X134386200Y-98892248D02*
X133995100Y-100065550D01*
X135011961Y-100065550D01*
X131536535Y-117991380D02*
X131536535Y-118800904D01*
X131584154Y-118896142D01*
X131631773Y-118943761D01*
X131727011Y-118991380D01*
X131917487Y-118991380D01*
X132012725Y-118943761D01*
X132060344Y-118896142D01*
X132107963Y-118800904D01*
X132107963Y-117991380D01*
X132536535Y-118086619D02*
X132584154Y-118039000D01*
X132679392Y-117991380D01*
X132917487Y-117991380D01*
X133012725Y-118039000D01*
X133060344Y-118086619D01*
X133107963Y-118181857D01*
X133107963Y-118277095D01*
X133060344Y-118419952D01*
X132488916Y-118991380D01*
X133107963Y-118991380D01*
X133822535Y-116515000D02*
X133727297Y-116467380D01*
X133584440Y-116467380D01*
X133441582Y-116515000D01*
X133346344Y-116610238D01*
X133298725Y-116705476D01*
X133251106Y-116895952D01*
X133251106Y-117038809D01*
X133298725Y-117229285D01*
X133346344Y-117324523D01*
X133441582Y-117419761D01*
X133584440Y-117467380D01*
X133679678Y-117467380D01*
X133822535Y-117419761D01*
X133870154Y-117372142D01*
X133870154Y-117038809D01*
X133679678Y-117038809D01*
X134298725Y-117467380D02*
X134298725Y-116467380D01*
X134870154Y-117467380D01*
X134870154Y-116467380D01*
X135346344Y-117467380D02*
X135346344Y-116467380D01*
X135584440Y-116467380D01*
X135727297Y-116515000D01*
X135822535Y-116610238D01*
X135870154Y-116705476D01*
X135917773Y-116895952D01*
X135917773Y-117038809D01*
X135870154Y-117229285D01*
X135822535Y-117324523D01*
X135727297Y-117419761D01*
X135584440Y-117467380D01*
X135346344Y-117467380D01*
X136291106Y-116340380D02*
X136481582Y-116340380D01*
X136576820Y-116388000D01*
X136672059Y-116483238D01*
X136719678Y-116673714D01*
X136719678Y-117007047D01*
X136672059Y-117197523D01*
X136576820Y-117292761D01*
X136481582Y-117340380D01*
X136291106Y-117340380D01*
X136195868Y-117292761D01*
X136100630Y-117197523D01*
X136053011Y-117007047D01*
X136053011Y-116673714D01*
X136100630Y-116483238D01*
X136195868Y-116388000D01*
X136291106Y-116340380D01*
X137576820Y-116673714D02*
X137576820Y-117340380D01*
X137148249Y-116673714D02*
X137148249Y-117197523D01*
X137195868Y-117292761D01*
X137291106Y-117340380D01*
X137433963Y-117340380D01*
X137529201Y-117292761D01*
X137576820Y-117245142D01*
X137910154Y-116673714D02*
X138291106Y-116673714D01*
X138053011Y-116340380D02*
X138053011Y-117197523D01*
X138100630Y-117292761D01*
X138195868Y-117340380D01*
X138291106Y-117340380D01*
X138461904Y-116340380D02*
X138795238Y-117340380D01*
X139128571Y-116340380D01*
X139890476Y-117340380D02*
X139890476Y-116340380D01*
X139890476Y-117292761D02*
X139795238Y-117340380D01*
X139604761Y-117340380D01*
X139509523Y-117292761D01*
X139461904Y-117245142D01*
X139414285Y-117149904D01*
X139414285Y-116864190D01*
X139461904Y-116768952D01*
X139509523Y-116721333D01*
X139604761Y-116673714D01*
X139795238Y-116673714D01*
X139890476Y-116721333D01*
X140795238Y-117340380D02*
X140795238Y-116340380D01*
X140795238Y-117292761D02*
X140700000Y-117340380D01*
X140509523Y-117340380D01*
X140414285Y-117292761D01*
X140366666Y-117245142D01*
X140319047Y-117149904D01*
X140319047Y-116864190D01*
X140366666Y-116768952D01*
X140414285Y-116721333D01*
X140509523Y-116673714D01*
X140700000Y-116673714D01*
X140795238Y-116721333D01*
X123659095Y-102966380D02*
X123659095Y-103775904D01*
X123706714Y-103871142D01*
X123754333Y-103918761D01*
X123849571Y-103966380D01*
X124040047Y-103966380D01*
X124135285Y-103918761D01*
X124182904Y-103871142D01*
X124230523Y-103775904D01*
X124230523Y-102966380D01*
X125230523Y-103966380D02*
X124659095Y-103966380D01*
X124944809Y-103966380D02*
X124944809Y-102966380D01*
X124849571Y-103109238D01*
X124754333Y-103204476D01*
X124659095Y-103252095D01*
X157543666Y-118195761D02*
X157686523Y-118243380D01*
X157924619Y-118243380D01*
X158019857Y-118195761D01*
X158067476Y-118148142D01*
X158115095Y-118052904D01*
X158115095Y-117957666D01*
X158067476Y-117862428D01*
X158019857Y-117814809D01*
X157924619Y-117767190D01*
X157734142Y-117719571D01*
X157638904Y-117671952D01*
X157591285Y-117624333D01*
X157543666Y-117529095D01*
X157543666Y-117433857D01*
X157591285Y-117338619D01*
X157638904Y-117291000D01*
X157734142Y-117243380D01*
X157972238Y-117243380D01*
X158115095Y-117291000D01*
X158448428Y-117243380D02*
X158686523Y-118243380D01*
X158877000Y-117529095D01*
X159067476Y-118243380D01*
X159305571Y-117243380D01*
X160210333Y-118243380D02*
X159638904Y-118243380D01*
X159924619Y-118243380D02*
X159924619Y-117243380D01*
X159829380Y-117386238D01*
X159734142Y-117481476D01*
X159638904Y-117529095D01*
X145446761Y-101560619D02*
X145351523Y-101513000D01*
X145256285Y-101417761D01*
X145113428Y-101274904D01*
X145018190Y-101227285D01*
X144922952Y-101227285D01*
X144970571Y-101465380D02*
X144875333Y-101417761D01*
X144780095Y-101322523D01*
X144732476Y-101132047D01*
X144732476Y-100798714D01*
X144780095Y-100608238D01*
X144875333Y-100513000D01*
X144970571Y-100465380D01*
X145161047Y-100465380D01*
X145256285Y-100513000D01*
X145351523Y-100608238D01*
X145399142Y-100798714D01*
X145399142Y-101132047D01*
X145351523Y-101322523D01*
X145256285Y-101417761D01*
X145161047Y-101465380D01*
X144970571Y-101465380D01*
X146256285Y-100798714D02*
X146256285Y-101465380D01*
X146018190Y-100417761D02*
X145780095Y-101132047D01*
X146399142Y-101132047D01*
X145711761Y-111324619D02*
X145616523Y-111277000D01*
X145521285Y-111181761D01*
X145378428Y-111038904D01*
X145283190Y-110991285D01*
X145187952Y-110991285D01*
X145235571Y-111229380D02*
X145140333Y-111181761D01*
X145045095Y-111086523D01*
X144997476Y-110896047D01*
X144997476Y-110562714D01*
X145045095Y-110372238D01*
X145140333Y-110277000D01*
X145235571Y-110229380D01*
X145426047Y-110229380D01*
X145521285Y-110277000D01*
X145616523Y-110372238D01*
X145664142Y-110562714D01*
X145664142Y-110896047D01*
X145616523Y-111086523D01*
X145521285Y-111181761D01*
X145426047Y-111229380D01*
X145235571Y-111229380D01*
X145997476Y-110229380D02*
X146616523Y-110229380D01*
X146283190Y-110610333D01*
X146426047Y-110610333D01*
X146521285Y-110657952D01*
X146568904Y-110705571D01*
X146616523Y-110800809D01*
X146616523Y-111038904D01*
X146568904Y-111134142D01*
X146521285Y-111181761D01*
X146426047Y-111229380D01*
X146140333Y-111229380D01*
X146045095Y-111181761D01*
X145997476Y-111134142D01*
X145457761Y-106244619D02*
X145362523Y-106197000D01*
X145267285Y-106101761D01*
X145124428Y-105958904D01*
X145029190Y-105911285D01*
X144933952Y-105911285D01*
X144981571Y-106149380D02*
X144886333Y-106101761D01*
X144791095Y-106006523D01*
X144743476Y-105816047D01*
X144743476Y-105482714D01*
X144791095Y-105292238D01*
X144886333Y-105197000D01*
X144981571Y-105149380D01*
X145172047Y-105149380D01*
X145267285Y-105197000D01*
X145362523Y-105292238D01*
X145410142Y-105482714D01*
X145410142Y-105816047D01*
X145362523Y-106006523D01*
X145267285Y-106101761D01*
X145172047Y-106149380D01*
X144981571Y-106149380D01*
X145791095Y-105244619D02*
X145838714Y-105197000D01*
X145933952Y-105149380D01*
X146172047Y-105149380D01*
X146267285Y-105197000D01*
X146314904Y-105244619D01*
X146362523Y-105339857D01*
X146362523Y-105435095D01*
X146314904Y-105577952D01*
X145743476Y-106149380D01*
X146362523Y-106149380D01*
X145711761Y-116404619D02*
X145616523Y-116357000D01*
X145521285Y-116261761D01*
X145378428Y-116118904D01*
X145283190Y-116071285D01*
X145187952Y-116071285D01*
X145235571Y-116309380D02*
X145140333Y-116261761D01*
X145045095Y-116166523D01*
X144997476Y-115976047D01*
X144997476Y-115642714D01*
X145045095Y-115452238D01*
X145140333Y-115357000D01*
X145235571Y-115309380D01*
X145426047Y-115309380D01*
X145521285Y-115357000D01*
X145616523Y-115452238D01*
X145664142Y-115642714D01*
X145664142Y-115976047D01*
X145616523Y-116166523D01*
X145521285Y-116261761D01*
X145426047Y-116309380D01*
X145235571Y-116309380D01*
X146616523Y-116309380D02*
X146045095Y-116309380D01*
X146330809Y-116309380D02*
X146330809Y-115309380D01*
X146235571Y-115452238D01*
X146140333Y-115547476D01*
X146045095Y-115595095D01*
X165274666Y-112149380D02*
X165274666Y-112863666D01*
X165227047Y-113006523D01*
X165131809Y-113101761D01*
X164988952Y-113149380D01*
X164893714Y-113149380D01*
X165655619Y-112149380D02*
X166274666Y-112149380D01*
X165941333Y-112530333D01*
X166084190Y-112530333D01*
X166179428Y-112577952D01*
X166227047Y-112625571D01*
X166274666Y-112720809D01*
X166274666Y-112958904D01*
X166227047Y-113054142D01*
X166179428Y-113101761D01*
X166084190Y-113149380D01*
X165798476Y-113149380D01*
X165703238Y-113101761D01*
X165655619Y-113054142D01*
X164592047Y-110228428D02*
X165353952Y-110228428D01*
X164973000Y-110609380D02*
X164973000Y-109847476D01*
X164592047Y-115308428D02*
X165353952Y-115308428D01*
X165020666Y-103005380D02*
X165020666Y-103719666D01*
X164973047Y-103862523D01*
X164877809Y-103957761D01*
X164734952Y-104005380D01*
X164639714Y-104005380D01*
X165449238Y-103100619D02*
X165496857Y-103053000D01*
X165592095Y-103005380D01*
X165830190Y-103005380D01*
X165925428Y-103053000D01*
X165973047Y-103100619D01*
X166020666Y-103195857D01*
X166020666Y-103291095D01*
X165973047Y-103433952D01*
X165401619Y-104005380D01*
X166020666Y-104005380D01*
X164846047Y-101084428D02*
X165607952Y-101084428D01*
X165227000Y-101465380D02*
X165227000Y-100703476D01*
X164846047Y-106926428D02*
X165607952Y-106926428D01*
X164639666Y-93988380D02*
X164639666Y-94702666D01*
X164592047Y-94845523D01*
X164496809Y-94940761D01*
X164353952Y-94988380D01*
X164258714Y-94988380D01*
X165639666Y-94988380D02*
X165068238Y-94988380D01*
X165353952Y-94988380D02*
X165353952Y-93988380D01*
X165258714Y-94131238D01*
X165163476Y-94226476D01*
X165068238Y-94274095D01*
X159583428Y-92503952D02*
X159583428Y-91742047D01*
X159964380Y-92123000D02*
X159202476Y-92123000D01*
X162250428Y-92503952D02*
X162250428Y-91742047D01*
X162520333Y-126770142D02*
X162472714Y-126817761D01*
X162329857Y-126865380D01*
X162234619Y-126865380D01*
X162091761Y-126817761D01*
X161996523Y-126722523D01*
X161948904Y-126627285D01*
X161901285Y-126436809D01*
X161901285Y-126293952D01*
X161948904Y-126103476D01*
X161996523Y-126008238D01*
X162091761Y-125913000D01*
X162234619Y-125865380D01*
X162329857Y-125865380D01*
X162472714Y-125913000D01*
X162520333Y-125960619D01*
X162996523Y-126865380D02*
X163187000Y-126865380D01*
X163282238Y-126817761D01*
X163329857Y-126770142D01*
X163425095Y-126627285D01*
X163472714Y-126436809D01*
X163472714Y-126055857D01*
X163425095Y-125960619D01*
X163377476Y-125913000D01*
X163282238Y-125865380D01*
X163091761Y-125865380D01*
X162996523Y-125913000D01*
X162948904Y-125960619D01*
X162901285Y-126055857D01*
X162901285Y-126293952D01*
X162948904Y-126389190D01*
X162996523Y-126436809D01*
X163091761Y-126484428D01*
X163282238Y-126484428D01*
X163377476Y-126436809D01*
X163425095Y-126389190D01*
X163472714Y-126293952D01*
X139037193Y-115179882D02*
X138989574Y-115227501D01*
X138846717Y-115275120D01*
X138751479Y-115275120D01*
X138608621Y-115227501D01*
X138513383Y-115132263D01*
X138465764Y-115037025D01*
X138418145Y-114846549D01*
X138418145Y-114703692D01*
X138465764Y-114513216D01*
X138513383Y-114417978D01*
X138608621Y-114322740D01*
X138751479Y-114275120D01*
X138846717Y-114275120D01*
X138989574Y-114322740D01*
X139037193Y-114370359D01*
X139608621Y-114703692D02*
X139513383Y-114656073D01*
X139465764Y-114608454D01*
X139418145Y-114513216D01*
X139418145Y-114465597D01*
X139465764Y-114370359D01*
X139513383Y-114322740D01*
X139608621Y-114275120D01*
X139799098Y-114275120D01*
X139894336Y-114322740D01*
X139941955Y-114370359D01*
X139989574Y-114465597D01*
X139989574Y-114513216D01*
X139941955Y-114608454D01*
X139894336Y-114656073D01*
X139799098Y-114703692D01*
X139608621Y-114703692D01*
X139513383Y-114751311D01*
X139465764Y-114798930D01*
X139418145Y-114894168D01*
X139418145Y-115084644D01*
X139465764Y-115179882D01*
X139513383Y-115227501D01*
X139608621Y-115275120D01*
X139799098Y-115275120D01*
X139894336Y-115227501D01*
X139941955Y-115179882D01*
X139989574Y-115084644D01*
X139989574Y-114894168D01*
X139941955Y-114798930D01*
X139894336Y-114751311D01*
X139799098Y-114703692D01*
X139037193Y-113401882D02*
X138989574Y-113449501D01*
X138846717Y-113497120D01*
X138751479Y-113497120D01*
X138608621Y-113449501D01*
X138513383Y-113354263D01*
X138465764Y-113259025D01*
X138418145Y-113068549D01*
X138418145Y-112925692D01*
X138465764Y-112735216D01*
X138513383Y-112639978D01*
X138608621Y-112544740D01*
X138751479Y-112497120D01*
X138846717Y-112497120D01*
X138989574Y-112544740D01*
X139037193Y-112592359D01*
X139370526Y-112497120D02*
X140037193Y-112497120D01*
X139608621Y-113497120D01*
X139037193Y-111623882D02*
X138989574Y-111671501D01*
X138846717Y-111719120D01*
X138751479Y-111719120D01*
X138608621Y-111671501D01*
X138513383Y-111576263D01*
X138465764Y-111481025D01*
X138418145Y-111290549D01*
X138418145Y-111147692D01*
X138465764Y-110957216D01*
X138513383Y-110861978D01*
X138608621Y-110766740D01*
X138751479Y-110719120D01*
X138846717Y-110719120D01*
X138989574Y-110766740D01*
X139037193Y-110814359D01*
X139894336Y-110719120D02*
X139703860Y-110719120D01*
X139608621Y-110766740D01*
X139561002Y-110814359D01*
X139465764Y-110957216D01*
X139418145Y-111147692D01*
X139418145Y-111528644D01*
X139465764Y-111623882D01*
X139513383Y-111671501D01*
X139608621Y-111719120D01*
X139799098Y-111719120D01*
X139894336Y-111671501D01*
X139941955Y-111623882D01*
X139989574Y-111528644D01*
X139989574Y-111290549D01*
X139941955Y-111195311D01*
X139894336Y-111147692D01*
X139799098Y-111100073D01*
X139608621Y-111100073D01*
X139513383Y-111147692D01*
X139465764Y-111195311D01*
X139418145Y-111290549D01*
X139037193Y-109845882D02*
X138989574Y-109893501D01*
X138846717Y-109941120D01*
X138751479Y-109941120D01*
X138608621Y-109893501D01*
X138513383Y-109798263D01*
X138465764Y-109703025D01*
X138418145Y-109512549D01*
X138418145Y-109369692D01*
X138465764Y-109179216D01*
X138513383Y-109083978D01*
X138608621Y-108988740D01*
X138751479Y-108941120D01*
X138846717Y-108941120D01*
X138989574Y-108988740D01*
X139037193Y-109036359D01*
X139941955Y-108941120D02*
X139465764Y-108941120D01*
X139418145Y-109417311D01*
X139465764Y-109369692D01*
X139561002Y-109322073D01*
X139799098Y-109322073D01*
X139894336Y-109369692D01*
X139941955Y-109417311D01*
X139989574Y-109512549D01*
X139989574Y-109750644D01*
X139941955Y-109845882D01*
X139894336Y-109893501D01*
X139799098Y-109941120D01*
X139561002Y-109941120D01*
X139465764Y-109893501D01*
X139418145Y-109845882D01*
X139037193Y-108067882D02*
X138989574Y-108115501D01*
X138846717Y-108163120D01*
X138751479Y-108163120D01*
X138608621Y-108115501D01*
X138513383Y-108020263D01*
X138465764Y-107925025D01*
X138418145Y-107734549D01*
X138418145Y-107591692D01*
X138465764Y-107401216D01*
X138513383Y-107305978D01*
X138608621Y-107210740D01*
X138751479Y-107163120D01*
X138846717Y-107163120D01*
X138989574Y-107210740D01*
X139037193Y-107258359D01*
X139894336Y-107496454D02*
X139894336Y-108163120D01*
X139656240Y-107115501D02*
X139418145Y-107829787D01*
X140037193Y-107829787D01*
X139025333Y-106323142D02*
X138977714Y-106370761D01*
X138834857Y-106418380D01*
X138739619Y-106418380D01*
X138596761Y-106370761D01*
X138501523Y-106275523D01*
X138453904Y-106180285D01*
X138406285Y-105989809D01*
X138406285Y-105846952D01*
X138453904Y-105656476D01*
X138501523Y-105561238D01*
X138596761Y-105466000D01*
X138739619Y-105418380D01*
X138834857Y-105418380D01*
X138977714Y-105466000D01*
X139025333Y-105513619D01*
X139358666Y-105418380D02*
X139977714Y-105418380D01*
X139644380Y-105799333D01*
X139787238Y-105799333D01*
X139882476Y-105846952D01*
X139930095Y-105894571D01*
X139977714Y-105989809D01*
X139977714Y-106227904D01*
X139930095Y-106323142D01*
X139882476Y-106370761D01*
X139787238Y-106418380D01*
X139501523Y-106418380D01*
X139406285Y-106370761D01*
X139358666Y-106323142D01*
X139152333Y-104291142D02*
X139104714Y-104338761D01*
X138961857Y-104386380D01*
X138866619Y-104386380D01*
X138723761Y-104338761D01*
X138628523Y-104243523D01*
X138580904Y-104148285D01*
X138533285Y-103957809D01*
X138533285Y-103814952D01*
X138580904Y-103624476D01*
X138628523Y-103529238D01*
X138723761Y-103434000D01*
X138866619Y-103386380D01*
X138961857Y-103386380D01*
X139104714Y-103434000D01*
X139152333Y-103481619D01*
X139533285Y-103481619D02*
X139580904Y-103434000D01*
X139676142Y-103386380D01*
X139914238Y-103386380D01*
X140009476Y-103434000D01*
X140057095Y-103481619D01*
X140104714Y-103576857D01*
X140104714Y-103672095D01*
X140057095Y-103814952D01*
X139485666Y-104386380D01*
X140104714Y-104386380D01*
X127976333Y-102766142D02*
X127928714Y-102813761D01*
X127785857Y-102861380D01*
X127690619Y-102861380D01*
X127547761Y-102813761D01*
X127452523Y-102718523D01*
X127404904Y-102623285D01*
X127357285Y-102432809D01*
X127357285Y-102289952D01*
X127404904Y-102099476D01*
X127452523Y-102004238D01*
X127547761Y-101909000D01*
X127690619Y-101861380D01*
X127785857Y-101861380D01*
X127928714Y-101909000D01*
X127976333Y-101956619D01*
X128928714Y-102861380D02*
X128357285Y-102861380D01*
X128643000Y-102861380D02*
X128643000Y-101861380D01*
X128547761Y-102004238D01*
X128452523Y-102099476D01*
X128357285Y-102147095D01*
M02*
